<svg width="22" height="22" viewBox="0 0 22 22" fill="none" xmlns="http://www.w3.org/2000/svg"><path fill-rule="evenodd" clip-rule="evenodd" d="M11 22C4.92487 22 0 17.0751 0 11C0 4.92487 4.92487 0 11 0C17.0751 0 22 4.92487 22 11C22 17.0751 17.0751 22 11 22ZM18.3995 16.1246C19.4086 14.6703 20 12.9042 20 11C20 6.02944 15.9706 2 11 2C6.02944 2 2 6.02944 2 11C2 12.9042 2.59138 14.6703 3.6005 16.1246C4.72595 14.6381 7.3706 14 11 14C14.6294 14 17.274 14.6381 18.3995 16.1246ZM16.9647 17.7398C16.672 16.6874 14.5694 16 11 16C7.43062 16 5.328 16.6874 5.03532 17.7398C6.6233 19.1462 8.71194 20 11 20C13.2881 20 15.3767 19.1462 16.9647 17.7398Z" fill="url(#paint0_linear)"/><path d="M18.3995 16.1246C19.4086 14.6703 20 12.9042 20 11C20 6.02944 15.9706 2 11 2C6.02944 2 2 6.02944 2 11C2 12.9042 2.59138 14.6703 3.6005 16.1246C4.72595 14.6381 7.3706 14 11 14C8.76086 14 7 12.4274 7 9C7 6.75576 8.5791 5 11 5C13.4142 5 15 6.92158 15 9.2C15 12.4796 13.2181 14 11 14C14.6294 14 17.274 14.6381 18.3995 16.1246Z" fill="url(#paint1_linear)"/><defs><linearGradient id="paint0_linear" x1="20.8267" y1="-1.45048e-07" x2="16.2696" y2="24.4252" gradientUnits="userSpaceOnUse"><stop stop-color="#586171"/><stop offset="1" stop-color="#1E2024"/></linearGradient><linearGradient id="paint1_linear" x1="20.8267" y1="-1.45048e-07" x2="16.2696" y2="24.4252" gradientUnits="userSpaceOnUse"><stop stop-color="#586171"/><stop offset="1" stop-color="#1E2024"/></linearGradient></defs></svg>