<svg width="26" height="26" viewBox="0 0 26 26" fill="none" xmlns="http://www.w3.org/2000/svg">
<path fill-rule="evenodd" clip-rule="evenodd" d="M12.5378 0.00614308C12.5317 0.0123187 12.4051 0.0219944 12.2565 0.0276493C11.9301 0.0400874 11.5945 0.0694036 11.2992 0.111259C11.2395 0.11972 11.1419 0.132679 11.0822 0.140069C11.0225 0.147445 10.933 0.160274 10.8833 0.16859C10.8336 0.176892 10.7554 0.189706 10.7097 0.197053C10.6639 0.2044 10.5972 0.217821 10.5614 0.226875C10.5256 0.235943 10.4637 0.249669 10.4239 0.257377C10.3842 0.265086 10.3207 0.277698 10.2829 0.285392C10.2451 0.293086 10.1832 0.305495 10.1454 0.312944C10.1077 0.320406 10.049 0.333423 10.0152 0.341869C9.98142 0.35033 9.9277 0.363752 9.89588 0.371706C9.86405 0.379661 9.8136 0.392374 9.78375 0.399967C9.75392 0.40756 9.70346 0.419839 9.67163 0.427244C9.6398 0.434663 9.57795 0.451715 9.53419 0.465136C9.49042 0.478572 9.41066 0.502089 9.35696 0.517405C9.30326 0.532721 9.2121 0.558711 9.15442 0.575141C9.09673 0.591585 9.02999 0.611876 9.00612 0.62025C8.98225 0.62861 8.84879 0.673951 8.70954 0.720984C8.57029 0.768003 8.42543 0.819302 8.38764 0.834966C8.34985 0.850629 8.28636 0.87646 8.24658 0.892369C8.20679 0.908278 8.14007 0.935078 8.09829 0.951912C8.0565 0.968747 7.98978 0.995431 7.94999 1.01118C7.83106 1.0583 7.52232 1.20354 7.16875 1.37873C6.80525 1.55882 6.72173 1.60374 6.35857 1.81458C6.21539 1.8977 5.64807 2.26296 5.62179 2.28895C5.61324 2.29739 5.5444 2.34565 5.46881 2.39619C5.39322 2.44672 5.32812 2.49219 5.32414 2.49722C5.32016 2.50226 5.29412 2.52201 5.26627 2.54113C5.23842 2.56025 5.21238 2.57978 5.2084 2.58452C5.20442 2.58927 5.17838 2.60879 5.15053 2.62791C5.12268 2.64703 5.09663 2.66656 5.09266 2.6713C5.08868 2.67604 5.06264 2.69557 5.03479 2.7147C5.00694 2.73382 4.97438 2.75986 4.96245 2.77254C4.95051 2.78522 4.91796 2.81126 4.89011 2.83039C4.86226 2.84953 4.82971 2.87556 4.81777 2.88824C4.80584 2.90093 4.77329 2.92706 4.74544 2.94631C4.71759 2.96556 4.67201 3.00452 4.64416 3.03287C4.61631 3.06122 4.57074 3.10031 4.54289 3.11972C4.51504 3.13913 4.46296 3.18466 4.42715 3.22089C4.39134 3.25712 4.33926 3.30276 4.31141 3.3223C4.28356 3.34186 4.19241 3.42638 4.10886 3.51015C4.02531 3.59391 3.93417 3.67844 3.90632 3.69799C3.84085 3.74392 3.72628 3.86085 3.69521 3.91346C3.68185 3.93608 3.65227 3.96558 3.62947 3.97905C3.60668 3.99251 3.58803 4.00926 3.58803 4.01627C3.58803 4.02329 3.53089 4.08659 3.46105 4.15694C3.3912 4.2273 3.31817 4.30742 3.29875 4.335C3.27934 4.36259 3.24023 4.40793 3.21188 4.43577C3.18352 4.46361 3.14441 4.50917 3.125 4.53701C3.10558 4.56485 3.06004 4.61691 3.0238 4.65271C2.98756 4.68851 2.94212 4.74057 2.92282 4.76841C2.90352 4.79625 2.87734 4.8288 2.86466 4.84073C2.85197 4.85266 2.82593 4.8852 2.8068 4.91304C2.78766 4.94088 2.76813 4.96692 2.76338 4.97089C2.75864 4.97487 2.73911 5.0009 2.71997 5.02874C2.70084 5.05659 2.6748 5.08913 2.66211 5.10106C2.64942 5.11299 2.62338 5.14553 2.60426 5.17337C2.58511 5.20121 2.56541 5.22725 2.56045 5.23122C2.55549 5.2352 2.52311 5.28076 2.4885 5.33246C2.45389 5.38417 2.42134 5.42973 2.41616 5.4337C2.41098 5.43768 2.37843 5.48324 2.34383 5.53494C2.30922 5.58665 2.27639 5.63221 2.27089 5.63618C2.2506 5.65088 1.98189 6.07128 1.84566 6.30148C1.81978 6.34523 1.77022 6.42658 1.73552 6.48226C1.66718 6.59195 1.55558 6.79227 1.48571 6.93061C1.46161 6.97834 1.43299 7.03366 1.42211 7.05354C1.39195 7.10871 1.25948 7.38294 1.14617 7.62483C1.05202 7.8258 1.0274 7.88257 0.953249 8.06956C0.903163 8.19586 0.868368 8.28231 0.839752 8.35159C0.764014 8.53487 0.571943 9.1191 0.465317 9.49053C0.449331 9.54622 0.425156 9.62757 0.411585 9.67132C0.398014 9.71507 0.381666 9.78015 0.375257 9.81595C0.368833 9.85174 0.356261 9.91032 0.347306 9.94611C0.33835 9.98191 0.32533 10.0405 0.318371 10.0763C0.311412 10.1121 0.2991 10.1674 0.290998 10.1992C0.244051 10.3838 0.227587 10.4607 0.201965 10.615C0.19437 10.6608 0.181421 10.7389 0.173189 10.7886C0.164957 10.8383 0.152153 10.9213 0.14476 10.973C0.137367 11.0247 0.124274 11.1093 0.115695 11.161C0.0845899 11.3482 0.0480304 11.685 0.0348216 11.9058C0.0305536 11.9774 0.0209761 12.0422 0.0135688 12.0497C-0.00455905 12.0682 -0.00450118 13.9563 0.0136122 13.9747C0.0210629 13.9823 0.0305392 14.0536 0.0346769 14.1331C0.0441821 14.3161 0.0832155 14.668 0.115695 14.8635C0.124274 14.9152 0.137367 14.9998 0.14476 15.0515C0.152153 15.1032 0.164957 15.1862 0.173189 15.2359C0.181421 15.2856 0.19437 15.3637 0.201965 15.4095C0.227587 15.5638 0.244051 15.6406 0.290998 15.8253C0.2991 15.8571 0.311412 15.9124 0.318371 15.9482C0.32533 15.984 0.337945 16.0409 0.346394 16.0747C0.354858 16.1086 0.368588 16.1639 0.376906 16.1977C0.385225 16.2315 0.398246 16.2836 0.405841 16.3134C0.413437 16.3432 0.425416 16.392 0.432462 16.4219C0.439507 16.4517 0.456261 16.5119 0.469701 16.5556C0.483127 16.5994 0.513682 16.7003 0.537597 16.7798C0.61468 17.0362 0.785441 17.5408 0.839853 17.6729C0.855406 17.7107 0.881867 17.7758 0.898649 17.8175C0.915431 17.8593 0.947274 17.9358 0.96941 17.9875C0.991545 18.0392 1.02402 18.1173 1.04157 18.161C1.1754 18.4947 1.57721 19.2842 1.80544 19.6619C1.93175 19.871 2.33703 20.4885 2.35813 20.504C2.36354 20.508 2.40922 20.5731 2.45965 20.6486C2.51007 20.7242 2.56191 20.7958 2.57486 20.8077C2.58779 20.8197 2.61404 20.8522 2.63316 20.88C2.6523 20.9079 2.67183 20.9339 2.67658 20.9379C2.68132 20.9419 2.70086 20.9679 2.72 20.9957C2.73912 21.0236 2.76516 21.0561 2.77785 21.068C2.79054 21.08 2.81658 21.1125 2.83572 21.1404C2.85486 21.1682 2.8809 21.2007 2.89359 21.2127C2.90628 21.2246 2.93242 21.2572 2.95168 21.285C2.97093 21.3128 3.00991 21.3584 3.03827 21.3862C3.06662 21.4141 3.10569 21.4596 3.12507 21.4875C3.14446 21.5153 3.18352 21.5609 3.21188 21.5887C3.24023 21.6166 3.27934 21.6619 3.29878 21.6895C3.32618 21.7284 3.57571 21.9884 3.83735 22.2507C4.02731 22.4411 4.27304 22.6749 4.31187 22.7023C4.33946 22.7217 4.38483 22.7608 4.41268 22.7891C4.44053 22.8175 4.4861 22.8565 4.51396 22.8759C4.54181 22.8953 4.58738 22.9343 4.61523 22.9627C4.64308 22.991 4.68865 23.03 4.7165 23.0492C4.74435 23.0685 4.7769 23.0946 4.78884 23.1073C4.80077 23.12 4.83333 23.146 4.86118 23.1652C4.88903 23.1843 4.92158 23.2103 4.93351 23.223C4.94545 23.2357 4.978 23.2617 5.00585 23.2809C5.0337 23.3 5.05974 23.3195 5.06372 23.3243C5.0677 23.329 5.09374 23.3485 5.12159 23.3677C5.14944 23.3868 5.18199 23.413 5.19393 23.4259C5.20586 23.4389 5.27726 23.4908 5.35259 23.5412C5.42794 23.5917 5.5031 23.6465 5.51965 23.663C5.53619 23.6795 5.59222 23.7179 5.64414 23.7482C5.69608 23.7786 5.75763 23.8199 5.78092 23.84C5.80421 23.8601 5.8428 23.8867 5.86667 23.899C5.89054 23.9114 5.95564 23.9522 6.01134 23.9897C6.17068 24.0969 6.54255 24.3181 6.75642 24.4329C7.09848 24.6164 7.69755 24.9073 7.89212 24.9844C8.03593 25.0413 8.12533 25.0782 8.21764 25.1185C8.30355 25.156 8.39274 25.1897 8.51784 25.2319C8.54371 25.2407 8.58601 25.2551 8.61188 25.264C8.91703 25.3694 9.38251 25.5168 9.51249 25.5493C9.54432 25.5572 9.60616 25.5748 9.64993 25.5882C9.69369 25.6017 9.75392 25.6185 9.78375 25.6255C9.8136 25.6325 9.86568 25.6452 9.89949 25.6537C9.9333 25.6621 9.99191 25.6751 10.0297 25.6826C10.0675 25.6901 10.1294 25.7023 10.1671 25.7097C10.2049 25.7172 10.2652 25.7306 10.301 25.7396C10.3368 25.7485 10.397 25.7619 10.4348 25.7694C10.4726 25.7768 10.5377 25.7896 10.5795 25.7979C10.6212 25.8061 10.688 25.8195 10.7278 25.8277C10.7675 25.836 10.8489 25.8486 10.9086 25.8558C11.0104 25.8681 11.0714 25.8764 11.3318 25.9136C11.5219 25.9408 11.6948 25.9578 11.8562 25.9653C11.9438 25.9694 12.0215 25.9788 12.0291 25.9863C12.0476 26.0046 13.9363 26.0046 13.9547 25.9863C13.9623 25.9788 14.0466 25.9694 14.1421 25.9655C14.2376 25.9616 14.3694 25.9514 14.4351 25.943C14.5007 25.9345 14.6049 25.9212 14.6665 25.9135C14.9689 25.8756 15.2827 25.8283 15.4297 25.7985C15.4695 25.7905 15.5346 25.7779 15.5744 25.7705C15.6142 25.7632 15.6695 25.7493 15.6974 25.7396C15.7252 25.7298 15.7789 25.7161 15.8167 25.709C15.951 25.6839 16.0237 25.6689 16.0844 25.6537C16.1182 25.6452 16.1719 25.6318 16.2037 25.6238C16.2355 25.6159 16.286 25.6032 16.3158 25.5956C16.3457 25.588 16.3961 25.5758 16.428 25.5684C16.4598 25.5611 16.5412 25.5375 16.6088 25.516C16.6764 25.4945 16.7969 25.4575 16.8765 25.4337C16.956 25.4098 17.0602 25.3772 17.1079 25.3612C17.3439 25.2818 17.5339 25.2152 17.5926 25.1911C17.6647 25.1616 17.7718 25.1183 17.882 25.0743C17.9217 25.0583 17.9885 25.0317 18.0302 25.0149C18.1745 24.9572 18.4259 24.839 18.8151 24.6456C19.2498 24.4297 19.3797 24.3594 19.7017 24.1657C19.9039 24.044 20.527 23.6361 20.544 23.6142C20.548 23.6091 20.574 23.5892 20.6019 23.5701C20.6297 23.551 20.6557 23.5315 20.6597 23.5267C20.6637 23.522 20.6897 23.5025 20.7176 23.4833C20.7454 23.4642 20.7715 23.4445 20.7755 23.4396C20.7794 23.4346 20.825 23.4022 20.8767 23.3674C20.9285 23.3327 20.987 23.2874 21.0069 23.2667C21.0268 23.2461 21.0659 23.2134 21.0937 23.1942C21.1216 23.175 21.1476 23.1554 21.1516 23.1507C21.1556 23.146 21.1816 23.1264 21.2095 23.1072C21.2373 23.088 21.2764 23.0555 21.2963 23.035C21.3162 23.0145 21.3552 22.9819 21.3831 22.9625C21.4109 22.9432 21.463 22.8977 21.4988 22.8614C21.5346 22.8252 21.5867 22.7796 21.6146 22.7601C21.6424 22.7405 21.7206 22.669 21.7882 22.6011C21.8558 22.5332 21.9339 22.4615 21.9618 22.4418C22.0276 22.3953 22.407 22.016 22.4535 21.9503C22.4732 21.9224 22.5384 21.8509 22.5984 21.7912C22.6584 21.7315 22.7234 21.6599 22.7429 21.6321C22.7624 21.6043 22.8081 21.5522 22.8443 21.5164C22.8806 21.4806 22.9261 21.4285 22.9454 21.4007C22.9648 21.3729 22.9974 21.3338 23.0179 21.3139C23.0384 21.294 23.0709 21.255 23.0901 21.2271C23.1093 21.1993 23.1354 21.1668 23.1481 21.1548C23.1608 21.1429 23.1869 21.1104 23.206 21.0825C23.2251 21.0547 23.2513 21.0221 23.2642 21.0102C23.2771 20.9983 23.316 20.9462 23.3507 20.8945C23.3854 20.8428 23.4244 20.7907 23.4375 20.7788C23.4506 20.7669 23.4896 20.7148 23.5242 20.6631C23.5589 20.6114 23.5916 20.5658 23.5968 20.5618C23.6021 20.5579 23.6606 20.4733 23.7268 20.3738C23.7931 20.2744 23.8518 20.1898 23.8573 20.1858C23.8681 20.178 23.911 20.1093 24.1371 19.7375C24.3385 19.4062 24.4066 19.2811 24.6291 18.8335C24.8682 18.3525 25.0237 18.0144 25.0847 17.8428C25.1002 17.7991 25.1274 17.7275 25.145 17.6837C25.2149 17.5099 25.4473 16.8326 25.4775 16.7147C25.4987 16.6318 25.5406 16.4843 25.572 16.3821C25.5855 16.3383 25.6022 16.2781 25.6093 16.2483C25.6163 16.2185 25.6286 16.168 25.6366 16.1362C25.6445 16.1044 25.6579 16.0507 25.6664 16.0169C25.6748 15.9831 25.6879 15.9245 25.6953 15.8867C25.7028 15.849 25.7154 15.7855 25.7234 15.7457C25.7313 15.7059 25.7443 15.6409 25.7523 15.6011C25.7915 15.4052 25.798 15.3712 25.8102 15.2974C25.8174 15.2536 25.8305 15.182 25.8394 15.1383C25.8482 15.0945 25.8616 15.0083 25.869 14.9466C25.882 14.8388 25.8942 14.7404 25.9264 14.4838C26.0246 13.7022 26.0245 12.2033 25.9263 11.5226C25.9177 11.4629 25.9045 11.3653 25.897 11.3056C25.8895 11.246 25.8767 11.1516 25.8687 11.0959C25.8607 11.0402 25.8478 10.9491 25.8402 10.8934C25.8325 10.8377 25.8194 10.758 25.811 10.7163C25.8026 10.6745 25.7892 10.6078 25.7812 10.568C25.7733 10.5282 25.7605 10.4648 25.7528 10.427C25.7451 10.3892 25.732 10.3241 25.7238 10.2824C25.7156 10.2406 25.7028 10.1755 25.6953 10.1377C25.6879 10.1 25.6748 10.0414 25.6664 10.0076C25.6456 9.92452 25.6233 9.83375 25.6086 9.77256C25.6019 9.74472 25.5855 9.68614 25.572 9.6424C25.5586 9.59864 25.5356 9.52055 25.5209 9.46884C25.4532 9.2299 25.428 9.14654 25.3767 8.99157C25.3465 8.90009 25.3144 8.8041 25.3055 8.77824C25.2966 8.75238 25.2821 8.71008 25.2733 8.68423C25.2498 8.61508 25.1813 8.43198 25.1448 8.34074C25.1273 8.29699 25.1002 8.2254 25.0847 8.18165C25.0573 8.10475 25.029 8.03794 24.9132 7.77669C24.8832 7.70907 24.8376 7.60494 24.8117 7.54528C24.7859 7.48562 24.7557 7.42054 24.7445 7.40065C24.7333 7.38077 24.6617 7.24084 24.5854 7.0897C24.5091 6.93856 24.4345 6.79764 24.4195 6.77652C24.4046 6.75541 24.3923 6.73173 24.3923 6.72392C24.3923 6.7161 24.3542 6.64552 24.3076 6.56706C24.2611 6.4886 24.1946 6.3756 24.16 6.31594C24.1254 6.25628 24.0603 6.15215 24.0154 6.08453C23.9704 6.01692 23.9236 5.94207 23.9112 5.91821C23.8988 5.89435 23.8723 5.85577 23.8521 5.83249C23.832 5.8092 23.7909 5.74805 23.7608 5.6966C23.7307 5.64515 23.6992 5.59586 23.6907 5.58708C23.6822 5.57829 23.6595 5.54832 23.6402 5.52048C23.621 5.49264 23.6012 5.46661 23.5962 5.46263C23.5913 5.45865 23.5589 5.41309 23.5243 5.36139C23.4897 5.30969 23.4573 5.26413 23.4523 5.26015C23.4474 5.25617 23.4277 5.23014 23.4086 5.2023C23.3894 5.17446 23.3699 5.14842 23.3651 5.14445C23.3604 5.14047 23.3409 5.11444 23.3217 5.0866C23.3026 5.05875 23.2766 5.02621 23.2639 5.01428C23.2512 5.00235 23.2251 4.96981 23.206 4.94197C23.1869 4.91413 23.1608 4.88159 23.1481 4.86965C23.1354 4.85772 23.1093 4.82518 23.0901 4.79734C23.0709 4.7695 23.0384 4.73045 23.0179 4.71056C22.9974 4.69068 22.9649 4.65163 22.9456 4.62379C22.9263 4.59594 22.8938 4.55689 22.8733 4.53701C22.8527 4.51712 22.8201 4.47807 22.8006 4.45023C22.7812 4.42239 22.7097 4.34429 22.6418 4.27668C22.5738 4.20906 22.5022 4.13096 22.4824 4.10312C22.4359 4.03732 21.9698 3.57135 21.9039 3.5248C21.8761 3.50508 21.798 3.43342 21.7303 3.36552C21.6627 3.29761 21.5846 3.22612 21.5567 3.20663C21.5289 3.18715 21.4833 3.148 21.4554 3.11965C21.4276 3.0913 21.382 3.05234 21.3542 3.03309C21.3263 3.01384 21.2938 2.9877 21.2818 2.97502C21.2699 2.96234 21.2373 2.9363 21.2095 2.91717C21.1816 2.89803 21.1491 2.872 21.1371 2.85932C21.1252 2.84663 21.0927 2.8206 21.0648 2.80147C21.037 2.78233 21.0044 2.7563 20.9925 2.74361C20.9805 2.73093 20.948 2.7049 20.9201 2.68578C20.8923 2.66664 20.8662 2.64712 20.8623 2.64237C20.8583 2.63763 20.8322 2.61811 20.8044 2.59899C20.7765 2.57987 20.7505 2.56017 20.7465 2.55521C20.7425 2.55025 20.697 2.51788 20.6453 2.48328C20.5935 2.44869 20.548 2.41632 20.544 2.41136C20.54 2.4064 20.514 2.3866 20.4861 2.36736C20.4583 2.34811 20.4283 2.32543 20.4195 2.31696C20.4107 2.30847 20.3614 2.27691 20.3099 2.24683C20.2585 2.21673 20.1973 2.17566 20.174 2.15555C20.1507 2.13544 20.1121 2.10887 20.0883 2.0965C20.0644 2.08414 19.9895 2.03728 19.9219 1.99237C19.8542 1.94746 19.7501 1.88241 19.6904 1.84778C19.6307 1.81318 19.5177 1.74675 19.4392 1.70018C19.3607 1.65361 19.2901 1.61551 19.2823 1.61551C19.2745 1.61551 19.2508 1.60328 19.2297 1.58834C19.2085 1.5734 19.0676 1.49875 18.9164 1.42249C18.7652 1.34621 18.6252 1.27458 18.6053 1.2633C18.5854 1.25202 18.5334 1.22837 18.4896 1.21075C18.4458 1.19314 18.3417 1.14748 18.2581 1.10931C18.1746 1.07114 18.0704 1.02547 18.0266 1.00784C17.906 0.959216 17.8094 0.920658 17.7373 0.892369C17.7015 0.878325 17.6396 0.853305 17.5998 0.836759C17.477 0.785676 16.9235 0.598166 16.7426 0.546374C16.685 0.529857 16.5938 0.503795 16.5401 0.488479C16.4864 0.473163 16.4066 0.449646 16.3629 0.43621C16.3191 0.422789 16.2589 0.406026 16.229 0.398983C16.1992 0.39194 16.1471 0.379256 16.1133 0.370795C16.0528 0.355681 15.9925 0.342983 15.8493 0.315229C15.8095 0.30752 15.7476 0.293882 15.7118 0.284929C15.676 0.275977 15.6142 0.262338 15.5744 0.254629C15.5346 0.246921 15.4727 0.234526 15.4369 0.227078C15.2843 0.195332 15.207 0.181245 15.115 0.168402C15.0613 0.160896 14.9702 0.148067 14.9125 0.139896C14.5143 0.0834615 14.1301 0.0454097 13.737 0.0234985C13.3898 0.00413274 12.5519 -0.00798713 12.5378 0.00614308ZM14.0119 0.890792C14.473 0.935179 14.8691 0.987506 15.1187 1.037C15.1624 1.04568 15.234 1.05869 15.2778 1.06592C15.3216 1.07315 15.3932 1.08608 15.4369 1.09465C15.6382 1.13407 15.6498 1.13666 15.8239 1.18096C15.893 1.19853 15.9771 1.21956 16.0554 1.23881C16.0893 1.24713 16.143 1.26045 16.1748 1.2684C16.2066 1.27636 16.2571 1.28854 16.2869 1.29548C16.3684 1.31442 16.871 1.47827 17.0065 1.53008C17.0461 1.54525 17.0903 1.55766 17.1046 1.55766C17.1189 1.55766 17.1638 1.57448 17.2044 1.59503C17.2449 1.61558 17.3147 1.64413 17.3594 1.65848C17.4041 1.67283 17.4635 1.69433 17.4913 1.70628C17.5192 1.71821 17.5778 1.74241 17.6215 1.76002C18.0352 1.92659 18.6858 2.2466 19.0683 2.47151C19.3111 2.6143 20.0337 3.07933 20.0521 3.10465C20.0561 3.11012 20.1016 3.1429 20.1534 3.1775C20.2051 3.21209 20.2507 3.24446 20.2546 3.24942C20.2586 3.25438 20.2846 3.27408 20.3125 3.2932C20.3403 3.31232 20.3664 3.33185 20.3704 3.33659C20.3743 3.34133 20.4004 3.36092 20.4282 3.38012C20.4561 3.39932 20.4952 3.43179 20.515 3.45229C20.5349 3.4728 20.574 3.50529 20.6019 3.52448C20.6297 3.54368 20.6623 3.56978 20.6742 3.58246C20.6861 3.59514 20.7187 3.62123 20.7465 3.64044C20.7744 3.65963 20.8134 3.69212 20.8333 3.71263C20.8532 3.73313 20.8923 3.76578 20.9201 3.78519C20.948 3.80459 21.0131 3.86305 21.0648 3.91511C21.1165 3.96716 21.1816 4.02585 21.2095 4.04552C21.2755 4.09216 21.9439 4.76043 21.9904 4.82626C22.0101 4.85411 22.0623 4.91268 22.1065 4.95643C22.1506 5.00018 22.2026 5.05875 22.222 5.0866C22.2414 5.11444 22.274 5.15349 22.2946 5.17337C22.3151 5.19326 22.3476 5.23231 22.3668 5.26015C22.386 5.28799 22.4121 5.32053 22.4248 5.33246C22.4374 5.3444 22.4635 5.37694 22.4828 5.40478C22.502 5.43262 22.5346 5.47167 22.5553 5.49156C22.576 5.51144 22.6213 5.57002 22.6561 5.62172C22.6909 5.67343 22.7298 5.72549 22.7427 5.73742C22.7556 5.74936 22.7818 5.7819 22.8009 5.80974C22.82 5.83758 22.84 5.86361 22.8452 5.86759C22.8573 5.87672 23.2238 6.43306 23.3559 6.64286C23.6042 7.03696 23.8153 7.42687 24.013 7.85623C24.0606 7.95964 24.1326 8.11584 24.173 8.20334C24.2425 8.35396 24.2597 8.39738 24.3436 8.63465C24.3628 8.68893 24.3946 8.76518 24.4143 8.80411C24.4341 8.84305 24.4502 8.88839 24.4502 8.90489C24.4502 8.92138 24.4621 8.95901 24.4766 8.98853C24.491 9.01803 24.5111 9.07147 24.5211 9.10727C24.5312 9.14306 24.5755 9.28299 24.6196 9.41822C24.6638 9.55345 24.7058 9.69012 24.7131 9.72194C24.7205 9.75376 24.7323 9.80257 24.7396 9.83041C24.7468 9.85825 24.7595 9.9087 24.7678 9.9425C24.7762 9.9763 24.7895 10.03 24.7974 10.0618C24.8054 10.0936 24.8187 10.1473 24.827 10.1811C24.8496 10.2727 24.8693 10.3514 24.886 10.4162C24.8942 10.448 24.9066 10.5098 24.9136 10.5536C24.9206 10.5973 24.9334 10.6689 24.9421 10.7126C24.9508 10.7564 24.9641 10.8296 24.9717 10.8754C24.9793 10.9211 24.9923 10.9992 25.0005 11.0489C25.0087 11.0986 25.0217 11.1832 25.0294 11.2369C25.0371 11.2906 25.0501 11.3817 25.0584 11.4394C25.0781 11.5776 25.0986 11.7648 25.1174 11.9781C25.1377 12.2087 25.1376 13.8244 25.1173 14.0319C25.0803 14.4099 25.0724 14.4865 25.0592 14.5959C25.0516 14.6596 25.038 14.7474 25.029 14.7912C25.0201 14.8349 25.0069 14.913 24.9997 14.9647C24.9823 15.0891 24.9613 15.2157 24.9432 15.3046C24.9199 15.4197 24.9007 15.516 24.8856 15.5939C24.8779 15.6336 24.8647 15.6938 24.8562 15.7276C24.8478 15.7615 24.8343 15.8151 24.8264 15.847C24.8184 15.8788 24.8054 15.9308 24.7974 15.9627C24.7895 15.9945 24.7765 16.0465 24.7685 16.0784C24.7605 16.1102 24.7483 16.1606 24.7412 16.1905C24.7272 16.2496 24.715 16.2902 24.6073 16.6352C24.5211 16.9115 24.542 16.8505 24.3641 17.3439C24.3301 17.438 24.2967 17.5211 24.2316 17.6729C24.2086 17.7266 24.1696 17.8177 24.1449 17.8754C24.1005 17.9789 23.867 18.4755 23.8099 18.5877C23.7315 18.7418 23.5639 19.0366 23.3963 19.3152C23.2717 19.5224 22.9239 20.0541 22.9025 20.0701C22.8971 20.0741 22.8644 20.1196 22.8298 20.1714C22.7951 20.2231 22.7563 20.2751 22.7434 20.2871C22.7305 20.299 22.7043 20.3315 22.6852 20.3594C22.666 20.3872 22.6465 20.4132 22.6418 20.4172C22.637 20.4212 22.6175 20.4472 22.5984 20.4751C22.5792 20.5029 22.5532 20.5355 22.5405 20.5474C22.5278 20.5593 22.5018 20.5919 22.4826 20.6197C22.4635 20.6475 22.4374 20.6801 22.4248 20.692C22.4121 20.7039 22.3859 20.7365 22.3667 20.7643C22.3474 20.7922 22.3084 20.8377 22.2801 20.8656C22.2517 20.8934 22.2126 20.939 22.1932 20.9668C22.1738 20.9946 22.1282 21.0467 22.092 21.0825C22.0558 21.1183 22.01 21.1704 21.9904 21.1982C21.944 21.264 21.2755 21.9323 21.2095 21.9789C21.1816 21.9986 21.123 22.0508 21.0793 22.0949C21.0355 22.1391 20.9769 22.1911 20.9491 22.2105C20.9212 22.2299 20.8756 22.269 20.8478 22.2974C20.8199 22.3257 20.7744 22.3647 20.7465 22.384C20.7187 22.4032 20.6861 22.4293 20.6742 22.442C20.6623 22.4547 20.6297 22.4807 20.6019 22.4999C20.574 22.519 20.5414 22.545 20.5295 22.5577C20.5176 22.5704 20.485 22.5964 20.4572 22.6156C20.4293 22.6347 20.4033 22.6542 20.3993 22.659C20.3953 22.6637 20.3693 22.6832 20.3414 22.7024C20.3136 22.7215 20.2875 22.7412 20.2836 22.7461C20.2796 22.7511 20.234 22.7835 20.1823 22.8181C20.1306 22.8526 20.085 22.885 20.081 22.89C20.077 22.8949 20.051 22.9146 20.0231 22.9338C19.9953 22.9529 19.9693 22.9727 19.9653 22.9777C19.9553 22.9904 19.6334 23.2046 19.5096 23.2809C19.0074 23.5904 18.9039 23.6479 18.3811 23.9079C17.956 24.1192 17.8391 24.1724 17.5275 24.2965C17.4877 24.3124 17.4128 24.3441 17.3611 24.3669C17.2708 24.4069 16.446 24.6807 16.3267 24.7104C16.2949 24.7183 16.2412 24.7318 16.2073 24.7404C16.1735 24.749 16.1214 24.7621 16.0916 24.7694C16.0618 24.7767 16.0015 24.7938 15.9578 24.8072C15.914 24.8207 15.8538 24.8375 15.8239 24.8445C15.7941 24.8515 15.742 24.8643 15.7082 24.8729C15.6744 24.8814 15.6109 24.8942 15.5671 24.9012C15.5234 24.9081 15.455 24.9204 15.4152 24.9285C15.2692 24.9581 15.1818 24.9747 15.1006 24.9881C15.0548 24.9957 14.9767 25.0087 14.927 25.0169C14.8161 25.0353 14.6704 25.056 14.5219 25.0747C14.4602 25.0824 14.356 25.0956 14.2904 25.1039C14.0174 25.1386 13.7254 25.1487 12.9919 25.1487C12.2584 25.1487 11.9664 25.1386 11.6935 25.1039C11.6278 25.0956 11.5237 25.0824 11.462 25.0747C11.2299 25.0456 11.0398 25.0164 10.8941 24.9875C10.8504 24.9788 10.7788 24.9658 10.735 24.9586C10.6569 24.9457 10.564 24.928 10.4276 24.9002C10.3898 24.8925 10.3279 24.8801 10.2901 24.8727C10.1866 24.8523 10.1141 24.8343 10.0261 24.8072C9.98232 24.7938 9.92211 24.7767 9.89226 24.7694C9.75887 24.7366 9.70608 24.7222 9.57036 24.6815C9.3668 24.6204 8.84805 24.4477 8.75294 24.4093C8.70918 24.3917 8.63756 24.3645 8.5938 24.3489C8.15151 24.191 7.26355 23.7581 6.79983 23.4741C6.70832 23.4181 6.58788 23.3442 6.53218 23.3098C6.40677 23.2325 5.91272 22.9037 5.90284 22.891C5.89886 22.8859 5.87282 22.8661 5.84497 22.847C5.81712 22.8279 5.79108 22.8083 5.7871 22.8036C5.78312 22.7988 5.75708 22.7793 5.72923 22.7602C5.70138 22.7411 5.67534 22.7216 5.67136 22.7168C5.66738 22.7121 5.64134 22.6925 5.61349 22.6734C5.58564 22.6543 5.5596 22.6348 5.55562 22.63C5.55164 22.6253 5.5256 22.6057 5.49775 22.5865C5.4699 22.5673 5.43083 22.5348 5.41094 22.5143C5.39105 22.4938 5.35199 22.4613 5.32414 22.4422C5.29629 22.4229 5.26373 22.3969 5.2518 22.3842C5.23986 22.3715 5.20731 22.3454 5.17946 22.3261C5.15161 22.3069 5.10604 22.2679 5.07819 22.2395C5.05034 22.2112 5.00477 22.172 4.97692 22.1525C4.94907 22.133 4.86443 22.055 4.78884 21.9792C4.71325 21.9034 4.62861 21.8252 4.60076 21.8055C4.53521 21.7592 4.27116 21.4952 4.22472 21.4296C4.20502 21.4018 4.12032 21.3107 4.03653 21.2271C3.95273 21.1436 3.86821 21.0525 3.84869 21.0247C3.82918 20.9968 3.79 20.9513 3.76164 20.9234C3.73329 20.8956 3.69431 20.85 3.67506 20.8222C3.6558 20.7943 3.62966 20.7618 3.61697 20.7499C3.60428 20.7379 3.57818 20.7054 3.55897 20.6776C3.53977 20.6497 3.50728 20.6107 3.48676 20.5908C3.46625 20.5709 3.43377 20.5318 3.41457 20.504C3.39535 20.4762 3.37577 20.4501 3.37102 20.4461C3.36627 20.4422 3.34674 20.4161 3.32762 20.3883C3.30849 20.3605 3.28879 20.3344 3.28382 20.3304C3.27886 20.3265 3.24628 20.2809 3.21143 20.2292C3.17656 20.1775 3.13474 20.1218 3.11847 20.1053C3.07665 20.0631 2.62753 19.3761 2.51402 19.1806C2.3283 18.8609 2.25394 18.7259 2.17552 18.566C2.13847 18.4904 2.09908 18.4123 2.08798 18.3924C2.04319 18.3121 1.9224 18.0496 1.81178 17.7922C1.77116 17.6977 1.75238 17.6519 1.67832 17.4668C1.6624 17.427 1.63657 17.3636 1.6209 17.3258C1.60523 17.288 1.55391 17.1432 1.50688 17.004C1.45983 16.8648 1.41449 16.7314 1.40611 16.7075C1.38458 16.6461 1.30721 16.386 1.28995 16.317C1.282 16.2852 1.26446 16.2234 1.25101 16.1796C1.23754 16.1359 1.22046 16.074 1.21304 16.0422C1.20564 16.0104 1.19335 15.96 1.18576 15.9301C1.15034 15.791 1.14023 15.7479 1.12718 15.6806C1.11947 15.6409 1.10665 15.5758 1.09869 15.536C1.09073 15.4962 1.07771 15.4312 1.06976 15.3914C1.0618 15.3516 1.0492 15.2898 1.04175 15.254C1.00999 15.1013 0.9959 15.0241 0.983052 14.9322C0.975544 14.8785 0.962711 14.7874 0.954537 14.7297C0.875819 14.1747 0.851847 13.7737 0.851847 13.0122C0.851847 12.3459 0.871812 11.9392 0.925486 11.5117C0.933733 11.4461 0.946696 11.342 0.954306 11.2803C0.974097 11.1199 0.997708 10.9822 1.04175 10.7705C1.0492 10.7347 1.06222 10.6696 1.07068 10.6259C1.08545 10.5496 1.09978 10.4774 1.1281 10.3366C1.13531 10.3008 1.14782 10.2455 1.15593 10.2137C1.16401 10.1819 1.1767 10.1298 1.18411 10.098C1.19153 10.0662 1.2086 10.0043 1.22207 9.96058C1.24494 9.88625 1.25271 9.85731 1.29002 9.70748C1.34261 9.49628 1.54486 8.88943 1.64912 8.63C1.6667 8.58624 1.69378 8.51465 1.70931 8.4709C1.72482 8.42715 1.76326 8.33442 1.79472 8.26481C1.82619 8.19521 1.87868 8.07806 1.91136 8.00448C2.08578 7.6119 2.36435 7.08558 2.61372 6.67751C2.80859 6.35859 2.83996 6.30866 2.84994 6.30148C2.85547 6.2975 2.91418 6.21289 2.9804 6.11346C3.04661 6.01403 3.10512 5.92942 3.1104 5.92544C3.11568 5.92146 3.14836 5.87591 3.183 5.8242C3.21765 5.7725 3.25654 5.72043 3.26941 5.7085C3.28229 5.69657 3.30848 5.66403 3.3276 5.63618C3.34674 5.60834 3.36627 5.58231 3.37102 5.57833C3.37577 5.57436 3.3953 5.54832 3.41444 5.52048C3.43356 5.49264 3.4596 5.4601 3.47229 5.44817C3.48498 5.43624 3.51108 5.40369 3.53029 5.37585C3.54949 5.34801 3.58199 5.30896 3.6025 5.28908C3.62302 5.26919 3.6556 5.23014 3.67492 5.2023C3.69425 5.17446 3.73329 5.1289 3.76164 5.10106C3.79 5.07322 3.82912 5.02766 3.84856 4.99982C3.86801 4.97198 3.92003 4.9134 3.96419 4.86965C4.00834 4.8259 4.06051 4.76733 4.08012 4.73949C4.11757 4.68631 4.54525 4.25812 4.67237 4.14651C4.71314 4.11071 4.79347 4.03581 4.85086 3.98006C4.90825 3.9243 4.978 3.86272 5.00585 3.84321C5.0337 3.82371 5.07276 3.79098 5.09266 3.77048C5.11255 3.74997 5.15161 3.71743 5.17946 3.69816C5.20731 3.6789 5.24637 3.64636 5.26627 3.62585C5.28616 3.60534 5.32522 3.57286 5.35307 3.55366C5.38092 3.53446 5.41347 3.50837 5.42541 3.49568C5.43735 3.483 5.4699 3.45697 5.49775 3.43785C5.5256 3.41871 5.55164 3.39919 5.55562 3.39444C5.5596 3.3897 5.58564 3.37017 5.61349 3.35104C5.64134 3.33192 5.67389 3.30574 5.68583 3.29287C5.69776 3.28 5.74984 3.24112 5.80157 3.20648C5.85329 3.17186 5.89886 3.13906 5.90284 3.1336C5.91794 3.11294 6.70314 2.60204 6.85648 2.51309C7.16789 2.33248 7.91479 1.95018 8.1019 1.87561C8.14567 1.85818 8.23681 1.81886 8.30445 1.78823C8.37208 1.75761 8.46323 1.71985 8.50699 1.70434C8.55076 1.68882 8.62237 1.66169 8.66614 1.64405C8.76164 1.60553 9.47065 1.36948 9.61376 1.32857C9.719 1.29847 9.80926 1.27459 9.89588 1.25394C10.0059 1.2277 10.0656 1.21178 10.1418 1.18834C10.2627 1.15115 10.3837 1.12419 10.5614 1.09485C10.6051 1.08762 10.6735 1.07511 10.7133 1.06705C10.8951 1.0302 10.951 1.02002 11.0388 1.00775C11.0905 1.00054 11.1752 0.987592 11.2269 0.979016C11.402 0.949945 11.7002 0.916985 11.9781 0.895985C12.057 0.890011 12.1265 0.880162 12.1326 0.874073C12.1487 0.857861 13.8248 0.872772 14.0119 0.890792ZM12.6832 1.4807C12.6767 1.48723 12.6019 1.49689 12.517 1.50217C12.3457 1.5128 12.2569 1.52733 12.1383 1.56407C12.0946 1.57763 12.0132 1.60248 11.9575 1.61929C11.9018 1.63609 11.8107 1.67222 11.755 1.69957C11.6519 1.75016 11.4426 1.87227 11.4294 1.88947C11.4255 1.89467 11.3994 1.91483 11.3716 1.93426C11.3062 1.97985 11.1284 2.15764 11.0828 2.22295C11.0633 2.25079 11.0431 2.27683 11.0377 2.2808C11.0148 2.2979 10.9122 2.4715 10.8705 2.56374C10.7845 2.75413 10.7742 2.77999 10.7612 2.83762C10.754 2.86944 10.7414 2.92151 10.7332 2.95333C10.725 2.98514 10.7114 3.05023 10.7029 3.09795C10.6854 3.19689 10.6816 3.92338 10.6982 4.00535C10.7127 4.07694 10.6822 4.08945 10.5956 4.04741C10.5605 4.03032 10.5226 4.01635 10.5116 4.01635C10.4879 4.01635 10.2367 4.26107 10.185 4.33453C10.1654 4.36237 10.1168 4.41863 10.0769 4.45954C10.037 4.50046 9.9816 4.56128 9.95375 4.59467C9.9259 4.62808 9.88995 4.66946 9.87386 4.68661C9.85777 4.70376 9.82873 4.74057 9.80932 4.76841C9.7899 4.79625 9.75725 4.8353 9.73673 4.85519C9.71622 4.87508 9.68367 4.91413 9.6644 4.94197C9.64513 4.96981 9.61257 5.00886 9.59206 5.02874C9.57154 5.04863 9.53899 5.08768 9.51972 5.11552C9.50045 5.14336 9.4679 5.18241 9.44738 5.2023C9.42687 5.22219 9.39439 5.26124 9.37519 5.28908C9.35598 5.31692 9.33639 5.34295 9.33164 5.34693C9.3269 5.3509 9.30737 5.37694 9.28823 5.40478C9.2691 5.43262 9.24306 5.46516 9.23037 5.47709C9.21768 5.48903 9.19164 5.52157 9.1725 5.54941C9.15336 5.57725 9.12717 5.60979 9.1143 5.62172C9.10142 5.63365 9.0625 5.68572 9.02782 5.73742C8.99315 5.78913 8.9539 5.8412 8.94063 5.85313C8.92735 5.86506 8.88457 5.92689 8.84556 5.99052L8.77464 6.10623L8.76418 6.34486C8.74681 6.74122 8.70014 7.22707 8.65167 7.51636C8.643 7.56806 8.62998 7.65918 8.62273 7.71884C8.61549 7.77849 8.60275 7.86799 8.59444 7.9177C8.58613 7.96742 8.57312 8.04551 8.56553 8.09125C8.55793 8.137 8.54491 8.20858 8.53659 8.25035C8.52828 8.29211 8.51475 8.36044 8.50653 8.40221C8.49831 8.44397 8.48529 8.50906 8.4776 8.54683C8.44478 8.70782 8.43262 8.7719 8.42064 8.84694C8.41365 8.89069 8.40051 8.95577 8.39146 8.99157C8.38238 9.02736 8.36866 9.08919 8.36094 9.12896C8.33292 9.27349 8.32042 9.33269 8.30445 9.39653C8.29549 9.43232 8.28207 9.49253 8.2746 9.53031C8.26715 9.56808 8.25494 9.62993 8.24749 9.6677C8.24002 9.70548 8.2266 9.76569 8.21764 9.80149C8.20869 9.83728 8.19526 9.89749 8.1878 9.93527C8.18035 9.97304 8.16813 10.0349 8.16068 10.0727C8.14804 10.1367 8.13748 10.1814 8.10257 10.3185C8.05009 10.5246 8.02858 10.6144 8.01419 10.6873C8.00674 10.7251 7.99452 10.787 7.98707 10.8247C7.97961 10.8625 7.96688 10.9195 7.95878 10.9513C7.92259 11.0934 7.922 11.0847 7.96951 11.1092C7.99379 11.1218 8.04348 11.1321 8.07994 11.1321C8.12356 11.1321 8.14888 11.139 8.15403 11.1524C8.16291 11.1756 8.12998 11.2801 8.08775 11.3629C8.02988 11.4762 8.01552 11.5418 8.01532 11.6936C8.0151 11.8435 8.04668 11.9804 8.10953 12.1018C8.12125 12.1245 8.13094 12.1613 8.13105 12.1835C8.13132 12.2335 8.16265 12.3253 8.21317 12.4239C8.28337 12.561 8.28124 12.5717 8.04643 13.2653C8.03027 13.3131 8.0096 13.3814 8.00047 13.4172C7.99136 13.453 7.95131 13.5864 7.91148 13.7137C7.87165 13.841 7.82659 13.989 7.81134 14.0427C7.79609 14.0964 7.77115 14.1843 7.7559 14.238C7.74065 14.2917 7.70209 14.4202 7.67022 14.5236C7.61585 14.7 7.59994 14.7565 7.56427 14.8996C7.54688 14.9694 7.50622 15.112 7.45079 15.2974C7.42821 15.3729 7.4022 15.4641 7.39298 15.4999C7.38378 15.5356 7.36425 15.6072 7.34959 15.6589C7.33494 15.7106 7.3154 15.7822 7.3062 15.818C7.29699 15.8538 7.27095 15.9449 7.24832 16.0205C7.20832 16.1541 7.18633 16.2347 7.16151 16.3387C7.15487 16.3665 7.14239 16.417 7.13378 16.4508C7.12516 16.4846 7.11109 16.5399 7.10251 16.5737C7.09394 16.6075 7.0684 16.697 7.04577 16.7726C7.02315 16.8482 6.99815 16.936 6.99023 16.9678C6.95279 17.1182 6.94512 17.1466 6.92203 17.2209C6.90843 17.2647 6.89206 17.3298 6.88565 17.3656C6.87922 17.4014 6.86665 17.4599 6.8577 17.4957C6.84874 17.5315 6.83572 17.5901 6.82876 17.6259C6.80004 17.7735 6.78819 17.8147 6.76328 17.8531C6.72772 17.9079 6.67224 17.9544 6.61944 17.9735C6.47093 18.0275 6.04847 18.25 6.01858 18.2901C6.0146 18.2954 5.98856 18.3157 5.96071 18.3352C5.895 18.3811 5.54427 18.7317 5.49835 18.7974C5.4789 18.8252 5.45909 18.8513 5.45434 18.8552C5.4496 18.8592 5.43007 18.8852 5.41094 18.9131C5.39182 18.9409 5.37228 18.967 5.36754 18.9709C5.36279 18.9749 5.34326 19.0009 5.32414 19.0288C5.30501 19.0566 5.28548 19.0827 5.28073 19.0866C5.27599 19.0906 5.25646 19.1166 5.23733 19.1445C5.21821 19.1723 5.19867 19.1984 5.19393 19.2023C5.18918 19.2063 5.16965 19.2324 5.15053 19.2602C5.1314 19.288 5.11187 19.3141 5.10712 19.318C5.10238 19.322 5.08285 19.3481 5.06372 19.3759C5.0446 19.4037 5.02506 19.4298 5.02032 19.4337C5.01557 19.4377 4.99604 19.4638 4.9769 19.4916C4.95778 19.5194 4.93173 19.552 4.91905 19.5639C4.90636 19.5758 4.88019 19.6084 4.86089 19.6362C4.84159 19.6641 4.81488 19.6988 4.80153 19.7133C4.78819 19.7279 4.77382 19.7604 4.76963 19.7856C4.74779 19.9167 4.73558 19.9521 4.6426 20.1535C4.61958 20.2034 4.60076 20.255 4.60076 20.2682C4.60076 20.2954 4.6004 20.2941 4.70219 20.6197C4.74322 20.751 4.78981 20.9039 4.80572 20.9596C4.82162 21.0153 4.85312 21.1226 4.87572 21.1982C4.8983 21.2738 4.92425 21.3649 4.9334 21.4007C4.94253 21.4365 4.96256 21.5057 4.97793 21.5544C4.99328 21.6032 5.00585 21.6604 5.00585 21.6815C5.00585 21.7026 5.02226 21.7522 5.04231 21.7918C5.07231 21.851 5.09989 21.8774 5.19784 21.9409C5.26333 21.9833 5.39132 22.0662 5.48227 22.1252C5.57322 22.1841 5.69629 22.2798 5.75575 22.3379C5.83065 22.411 5.87094 22.4406 5.88695 22.4343C5.98564 22.3953 6.35695 22.2766 6.4092 22.2673C6.44501 22.261 6.5036 22.2484 6.53941 22.2393C6.57522 22.2303 6.64032 22.2173 6.68408 22.2104C6.72785 22.2035 6.78923 22.1926 6.82051 22.1861C6.89051 22.1716 6.89036 22.172 6.94689 21.8563C6.96665 21.746 6.96755 21.459 6.94845 21.3645C6.94041 21.3248 6.92273 21.2564 6.90916 21.2127C6.89559 21.1689 6.87247 21.0908 6.85777 21.0391C6.84307 20.9874 6.82333 20.9185 6.8139 20.886C6.77914 20.7662 6.75888 20.7729 7.19064 20.7613C7.91218 20.7419 8.23946 20.7106 8.30448 20.6548C8.32605 20.6363 8.41832 20.4493 8.53593 20.1858C8.56965 20.1102 8.62829 19.9801 8.66624 19.8966C8.70417 19.813 8.75624 19.6959 8.78192 19.6362C8.89588 19.3716 9.01391 19.1147 9.06098 19.0288C9.08218 18.9901 9.16266 18.8319 9.27435 18.6094C9.43919 18.2809 9.47794 18.1703 9.49219 17.9875C9.50261 17.8539 9.51609 17.7705 9.54774 17.644C9.55621 17.6102 9.56878 17.5581 9.57568 17.5283C9.58976 17.4675 9.673 17.2267 9.72193 17.1052C9.73955 17.0615 9.76675 16.9899 9.78238 16.9461C9.81905 16.8434 9.85684 16.7513 9.92481 16.599C9.95499 16.5314 9.99337 16.4419 10.0101 16.4002C10.089 16.2033 10.1042 16.1662 10.1418 16.0784C10.1815 15.9858 10.2185 15.8954 10.2753 15.753C10.2912 15.7132 10.3226 15.6383 10.3452 15.5866C10.3678 15.5349 10.4003 15.4536 10.4174 15.4058C10.475 15.2453 10.4897 15.2081 10.518 15.1527C10.5335 15.1224 10.5555 15.0726 10.567 15.042C10.5784 15.0114 10.6085 14.9311 10.6337 14.8635C10.659 14.7959 10.6889 14.716 10.7001 14.6861C10.736 14.5905 10.8906 14.2914 10.9143 14.2717C10.983 14.2148 11.3212 14.4223 11.5776 14.6787C11.6673 14.7684 11.7566 14.8646 11.7761 14.8924C11.7955 14.9203 11.8153 14.9463 11.8201 14.9503C11.8248 14.9542 11.8443 14.9803 11.8635 15.0081C11.8826 15.036 11.9088 15.0685 11.9217 15.0804C11.9345 15.0924 11.9734 15.1444 12.0081 15.1961C12.0427 15.2478 12.0751 15.2934 12.0801 15.2974C12.085 15.3013 12.1048 15.3274 12.1239 15.3552C12.143 15.3831 12.1627 15.4091 12.1677 15.4131C12.1726 15.4171 12.205 15.4626 12.2396 15.5143C12.2742 15.566 12.3068 15.6116 12.3121 15.6156C12.3173 15.6195 12.3629 15.6846 12.4132 15.7602C12.4636 15.8358 12.5091 15.9008 12.5144 15.9048C12.5196 15.9088 12.5522 15.9543 12.5868 16.0061C12.6214 16.0578 12.654 16.1033 12.6592 16.1073C12.6644 16.1113 12.6969 16.1568 12.7316 16.2085C12.7662 16.2602 12.8051 16.3123 12.818 16.3242C12.8309 16.3362 12.8571 16.3687 12.8763 16.3965C12.8955 16.4244 12.928 16.4634 12.9485 16.4833C12.969 16.5032 13.0018 16.5423 13.0212 16.5701C13.0664 16.6347 13.1584 16.7267 13.2234 16.7724C13.2513 16.7919 13.3033 16.8376 13.3391 16.8738C13.375 16.9101 13.427 16.9557 13.4549 16.9753C13.4827 16.9949 13.5456 17.0509 13.5946 17.0998C13.6436 17.1488 13.7029 17.2001 13.7265 17.214C13.75 17.2279 13.7804 17.2581 13.794 17.2811C13.8076 17.3041 13.8335 17.3378 13.8516 17.3558C13.8697 17.3739 13.8949 17.4047 13.9077 17.4241C13.9321 17.4615 14.0132 17.6942 14.036 17.7922C14.0504 17.8546 14.0705 17.9358 14.0915 18.0164C14.1189 18.1222 14.1371 18.1994 14.1493 18.2623C14.1563 18.2981 14.1693 18.3566 14.1783 18.3924C14.1872 18.4282 14.2002 18.4868 14.2072 18.5226C14.2142 18.5584 14.2272 18.617 14.2361 18.6528C14.2521 18.7166 14.2646 18.7758 14.2926 18.9203C14.3003 18.9601 14.314 19.0219 14.3229 19.0577C14.3389 19.1216 14.3514 19.1807 14.3794 19.3253C14.3871 19.365 14.4004 19.4252 14.4088 19.4591C14.4173 19.4929 14.43 19.5449 14.437 19.5748C14.4441 19.6046 14.4609 19.6648 14.4743 19.7085C14.4878 19.7523 14.5053 19.8141 14.5133 19.8459C14.5284 19.9064 14.5594 20.0172 14.6123 20.2003C14.6652 20.3833 14.6962 20.4941 14.7113 20.5546C14.7193 20.5864 14.7369 20.6483 14.7505 20.692C14.7641 20.7358 14.7809 20.8025 14.7878 20.8403C14.7947 20.878 14.8072 20.9431 14.8155 20.9849C14.855 21.183 14.8617 21.247 14.8608 21.4152C14.8598 21.5879 14.8413 21.8854 14.8213 22.0485C14.8111 22.1317 14.835 22.2388 14.8729 22.2803C14.8852 22.2937 14.911 22.3274 14.9303 22.3552C14.9496 22.3831 14.9692 22.4091 14.974 22.4131C14.9787 22.4171 14.9983 22.4431 15.0174 22.4709C15.0365 22.4988 15.056 22.5248 15.0608 22.5288C15.0655 22.5328 15.0851 22.5588 15.1042 22.5866C15.1233 22.6145 15.1494 22.647 15.1621 22.659C15.1747 22.6709 15.201 22.7034 15.2204 22.7313C15.2653 22.7958 15.3291 22.8595 15.3935 22.9044C15.4214 22.9237 15.4474 22.9438 15.4514 22.9489C15.4554 22.9539 15.5596 23.0256 15.6829 23.108C15.9652 23.2968 16.2166 23.4373 16.4569 23.5405C16.5239 23.5693 16.5468 23.5711 16.768 23.5645C17.0371 23.5565 17.3522 23.5274 17.5998 23.4877L17.6722 23.4761L17.6848 23.4038C17.7127 23.2443 17.6981 22.9758 17.6541 22.8397C17.6323 22.7724 17.5456 22.6063 17.4617 22.4709C17.4197 22.4033 17.3591 22.3057 17.3269 22.254C17.2707 22.1637 17.2229 22.0785 17.0428 21.7478C16.9973 21.6643 16.9359 21.5519 16.9064 21.4981C16.8768 21.4444 16.8457 21.3793 16.8373 21.3535C16.8042 21.2528 16.7591 20.7912 16.7244 20.2003C16.6855 19.5372 16.659 19.1934 16.6412 19.1228C16.6332 19.091 16.6056 19.0031 16.5799 18.9275C16.5541 18.852 16.5276 18.7674 16.521 18.7395C16.4959 18.6348 16.4769 18.5571 16.4641 18.5081C16.4413 18.4201 16.4194 18.3297 16.403 18.255C16.3852 18.1743 16.3816 17.3432 16.3985 17.2339C16.4132 17.1391 16.3629 16.9978 16.291 16.9317C16.2781 16.9197 16.2518 16.8872 16.2327 16.8594C16.2135 16.8315 16.194 16.8055 16.1893 16.8015C16.1845 16.7975 16.1648 16.7715 16.1455 16.7437C16.1262 16.7158 16.1005 16.682 16.0884 16.6684C16.0604 16.6373 15.9602 16.476 15.8043 16.2114C15.6707 15.9847 15.4604 15.6643 15.4226 15.63C15.4095 15.6181 15.3703 15.566 15.3357 15.5143C15.301 15.4626 15.2621 15.4105 15.2492 15.3986C15.2363 15.3867 15.2101 15.3541 15.1909 15.3263C15.1717 15.2985 15.1392 15.2594 15.1187 15.2395C15.0981 15.2196 15.0657 15.1806 15.0465 15.1527C15.0272 15.1249 15.0077 15.0989 15.0029 15.0949C14.9982 15.0909 14.9786 15.0649 14.9595 15.037C14.9404 15.0092 14.9142 14.9767 14.9013 14.9647C14.8884 14.9528 14.8495 14.9007 14.8149 14.849C14.7803 14.7973 14.7473 14.7518 14.7418 14.7478C14.7362 14.7438 14.7179 14.7178 14.701 14.6899C14.6591 14.6209 14.659 14.4987 14.7007 14.4303C14.7446 14.3583 14.8527 14.2608 14.8989 14.2515C14.9207 14.2472 14.9563 14.2297 14.978 14.2126C15.0123 14.1856 15.0174 14.1714 15.0174 14.1024C15.0174 14.0213 15.0063 13.9918 14.9235 13.8511C14.734 13.5291 14.6892 13.4555 14.6698 13.4342C14.6576 13.4209 14.6319 13.3872 14.6126 13.3593C14.5933 13.3315 14.5736 13.3055 14.5689 13.3015C14.5641 13.2975 14.5446 13.2715 14.5255 13.2436C14.5064 13.2158 14.4868 13.1898 14.4821 13.1858C14.4773 13.1818 14.4577 13.1558 14.4385 13.1279C14.4193 13.1001 14.3869 13.0611 14.3663 13.0412C14.3458 13.0213 14.3133 12.9822 14.2941 12.9544C14.2749 12.9265 14.2488 12.894 14.2361 12.8821C14.2234 12.8701 14.1973 12.8376 14.1781 12.8098C14.1589 12.7819 14.1264 12.7429 14.1059 12.723C14.0854 12.7031 14.0529 12.664 14.0336 12.6362C14.0143 12.6084 13.9818 12.5693 13.9613 12.5494C13.9407 12.5295 13.9082 12.4905 13.889 12.4627C13.8698 12.4348 13.8437 12.4023 13.831 12.3903C13.8184 12.3784 13.7923 12.3459 13.773 12.318C13.7538 12.2902 13.7214 12.2511 13.7008 12.2312C13.6803 12.2114 13.6478 12.1723 13.6286 12.1445C13.6094 12.1166 13.5898 12.0906 13.5851 12.0866C13.5804 12.0826 13.5607 12.0566 13.5415 12.0288C13.5222 12.0009 13.4979 11.9693 13.4874 11.9586C13.477 11.9478 13.4558 11.9143 13.4404 11.8841C13.425 11.854 13.4037 11.8205 13.3931 11.8097C13.3824 11.7989 13.3453 11.7478 13.3105 11.6961C13.2757 11.6444 13.2432 11.5989 13.2383 11.5949C13.2333 11.5909 13.2136 11.5649 13.1944 11.537C13.147 11.4682 13.0637 11.3924 13.0353 11.3924C13.0225 11.3924 12.9814 11.4118 12.9439 11.4356C12.8516 11.4941 12.7659 11.537 12.7413 11.537C12.7062 11.537 12.6482 11.4661 12.6375 11.41C12.6318 11.3805 12.6215 11.2358 12.6146 11.0887C12.6077 10.9415 12.5981 10.7635 12.5933 10.693C12.585 10.5702 12.5908 10.5333 12.6328 10.4439C12.6528 10.4015 12.7264 10.3616 12.8111 10.3473C12.9661 10.3212 12.9898 10.32 13.0205 10.3364C13.07 10.3629 13.1033 10.3227 13.1139 10.2234C13.1244 10.1246 13.1455 9.93651 13.1665 9.75448C13.175 9.68091 13.1864 9.46776 13.1918 9.28082C13.2029 8.89932 13.2119 8.8624 13.3092 8.79947C13.4117 8.73313 13.5051 8.71619 13.8455 8.70222C14.1522 8.68964 14.2442 8.67443 14.4966 8.59463C14.5642 8.57324 14.6395 8.54967 14.664 8.54225C14.6884 8.53483 14.7426 8.52876 14.7844 8.52876C14.8617 8.52876 15.0309 8.47965 15.1329 8.42764C15.2401 8.37298 15.3131 8.35562 15.4371 8.35542C15.5598 8.3552 15.682 8.3246 15.7378 8.28011C15.7509 8.2697 15.7744 8.25143 15.7901 8.2395C15.8463 8.19683 15.9414 8.09238 16.001 8.00793C16.0205 7.98018 16.0471 7.94597 16.06 7.9319C16.0728 7.91784 16.108 7.86417 16.1382 7.81264C16.1683 7.7611 16.2058 7.70426 16.2213 7.68634C16.2369 7.66842 16.2593 7.63748 16.2711 7.6176C16.2976 7.57304 16.4079 7.49981 16.4867 7.47451C16.579 7.44491 16.8282 7.47746 17.0284 7.54528C17.0562 7.55471 17.1018 7.56805 17.1296 7.57489C17.1575 7.58174 17.2096 7.59456 17.2454 7.60338C17.4695 7.65855 17.5506 7.6599 17.6692 7.61036C17.7073 7.59445 17.7709 7.46173 17.7584 7.42408C17.736 7.35643 17.7197 7.17785 17.7136 6.93198C17.7064 6.64725 17.7144 6.61262 17.7718 6.67888C17.8006 6.71203 17.8874 6.95732 17.9275 7.11863C17.9602 7.24982 18.0932 7.63298 18.156 7.77669C18.1786 7.82839 18.2114 7.90649 18.2289 7.95024C18.2717 8.05738 18.5461 8.60924 18.627 8.75086C18.7085 8.89358 18.7806 8.96264 18.8483 8.96264C18.8776 8.96264 18.9428 8.93908 19.0094 8.90447C19.1298 8.84183 19.1842 8.7759 19.1838 8.69311C19.1835 8.63081 19.1062 8.42096 19.0494 8.32844C19.0218 8.28349 18.9531 8.15561 18.8968 8.04425C18.8404 7.93289 18.7852 7.8255 18.774 7.80561C18.7628 7.78573 18.7326 7.72064 18.7068 7.66098C18.681 7.60132 18.6438 7.51698 18.6241 7.47356C18.5851 7.38778 18.4794 7.07949 18.4589 6.99208C18.4519 6.96225 18.4392 6.91017 18.4306 6.87637C18.4106 6.79725 18.3888 6.66325 18.3791 6.5598C18.3736 6.50096 18.3779 6.46572 18.3947 6.43325C18.4075 6.4085 18.4215 6.38825 18.4259 6.38825C18.4412 6.38825 18.5697 6.48129 18.6053 6.5182C18.6252 6.53883 18.6643 6.5715 18.6921 6.59082C18.72 6.61013 18.7515 6.63444 18.7622 6.64482C18.7729 6.65522 18.8011 6.67374 18.8248 6.68599C18.8606 6.70451 18.8719 6.70506 18.892 6.68927C18.9314 6.65842 18.9444 6.64406 18.9813 6.59073C19.0005 6.56289 19.0201 6.53686 19.0249 6.53288C19.0296 6.5289 19.0493 6.50287 19.0685 6.47503C19.0878 6.44719 19.1109 6.41676 19.12 6.40739C19.1546 6.37163 19.2362 6.3305 19.2728 6.33046C19.3206 6.33039 19.475 6.1844 19.5482 6.06997C19.7831 5.7028 19.7743 5.71488 19.8416 5.67114C19.8791 5.64681 19.9244 5.64214 20.2105 5.63308C20.5558 5.62214 20.8778 5.60179 20.966 5.58535C20.9952 5.5799 21.0311 5.56419 21.0459 5.55042C21.1313 5.47087 21.1342 5.47034 21.5126 5.46263L21.8678 5.4554L21.8721 5.37062C21.8789 5.23932 21.8662 5.23127 21.6521 5.23101C21.5272 5.23086 21.4585 5.22407 21.412 5.20726C21.3762 5.19432 21.3241 5.17968 21.2963 5.17475C21.2471 5.16603 21.2455 5.16371 21.2417 5.09364C21.2372 5.01391 21.2557 4.98447 21.3578 4.90854C21.3992 4.87772 21.412 4.85804 21.412 4.8253C21.412 4.79001 21.4031 4.77861 21.3614 4.76095C21.3335 4.74915 21.288 4.72983 21.2601 4.71802L21.2095 4.69656V4.48163C21.2095 4.22244 21.2075 4.21882 21.0623 4.21882C20.9283 4.21882 20.9221 4.2284 20.917 4.44361L20.9129 4.61655L20.5729 4.61437C20.3859 4.61315 20.188 4.60665 20.1331 4.59991C20 4.58352 19.9883 4.56411 20.0519 4.465C20.1164 4.36447 20.1047 4.32494 20.0014 4.29555C19.9617 4.28423 19.9091 4.26884 19.8847 4.26135C19.7585 4.22273 19.6759 4.28825 19.6759 4.42696C19.6759 4.46268 19.6699 4.49564 19.6625 4.5002C19.6551 4.50477 19.4875 4.50857 19.29 4.50867C19.0145 4.5088 18.9174 4.50402 18.873 4.48814L18.8151 4.46743L18.8111 4.2776L18.807 4.08779L18.7532 4.06488C18.7236 4.05229 18.6715 4.02969 18.6375 4.0147C18.5348 3.9694 18.5101 3.9764 18.4662 4.06335C18.4158 4.16307 18.3483 4.26177 18.3035 4.30099C18.2569 4.34188 18.1397 4.3509 17.6505 4.35129C17.2758 4.35158 17.0447 4.33715 16.9271 4.30612C16.8171 4.2771 16.6949 4.26007 16.5437 4.25271C16.3901 4.24525 16.3484 4.22769 16.3484 4.17061C16.3484 4.15451 16.3423 4.12135 16.3349 4.09692C16.3275 4.07249 16.3133 4.02321 16.3034 3.98742C16.2693 3.86421 16.2549 3.84671 16.1788 3.83634C16.0644 3.82076 15.892 3.83267 15.7666 3.86483C15.7151 3.87801 15.6478 3.94332 15.6107 4.01604L15.581 4.0742H15.2628C15.0498 4.0742 14.9248 4.08017 14.8847 4.09228C14.8382 4.1063 14.7797 4.15496 14.6235 4.30922L14.4221 4.50808H14.1922C13.935 4.50808 13.9552 4.51651 13.9115 4.39106C13.8993 4.35599 13.8892 4.28291 13.8891 4.22866C13.8889 4.14151 13.8942 4.12233 13.9345 4.06383C14.0599 3.88155 14.3229 3.36184 14.3229 3.29623C14.3229 3.25138 14.1879 2.91335 14.1253 2.80147C14.0715 2.70526 14.0047 2.56919 14.0047 2.55578C14.0047 2.54754 13.9763 2.49694 13.9416 2.44334C13.907 2.38974 13.8571 2.31112 13.8308 2.26863C13.8045 2.22615 13.7756 2.18384 13.7667 2.17462C13.7578 2.1654 13.7348 2.13509 13.7155 2.10725C13.6963 2.07941 13.6701 2.04687 13.6574 2.03493C13.6447 2.023 13.6185 1.99046 13.5991 1.96262C13.5542 1.89827 13.4623 1.80622 13.397 1.76026C13.3692 1.74066 13.3313 1.70968 13.3128 1.69141C13.2786 1.65757 13.0777 1.55083 12.9992 1.52477C12.9753 1.51685 12.9134 1.5053 12.8617 1.49911C12.81 1.49291 12.7513 1.48357 12.7313 1.47833C12.7113 1.47311 12.6897 1.47417 12.6832 1.4807ZM14.851 5.60568C14.9067 5.61359 14.9881 5.62726 15.0318 5.63603C15.1072 5.65111 15.167 5.66149 15.361 5.69314C15.5248 5.71987 15.5599 5.73028 15.5599 5.75213C15.5599 5.77843 15.3345 5.93405 15.2639 5.95652C15.2357 5.96547 15.1639 5.978 15.1042 5.98432C15.0445 5.99065 14.9599 6.00308 14.9161 6.01193C14.8723 6.02077 14.8007 6.03388 14.757 6.04106C14.6006 6.06673 14.5753 6.07467 14.5119 6.11807C14.4765 6.14225 14.3806 6.22906 14.2986 6.31098C14.0943 6.51529 14.0023 6.55933 13.8735 6.51448C13.8006 6.48909 13.6013 6.35691 13.5917 6.32761C13.5798 6.29127 13.6356 6.19296 13.6897 6.15491C13.7157 6.1366 13.7598 6.09842 13.7876 6.07007C13.8155 6.04172 13.8611 6.00277 13.8889 5.98352C13.9168 5.96427 13.9428 5.94447 13.9468 5.93951C13.9508 5.93455 13.9963 5.90219 14.0481 5.86759C14.0998 5.83299 14.1454 5.80016 14.1493 5.79465C14.1732 5.76159 14.4334 5.60723 14.4656 5.60704C14.4866 5.60691 14.5136 5.60024 14.5255 5.5922C14.5488 5.57653 14.6859 5.58219 14.851 5.60568Z" fill="url(#paint0_linear)"/>
<defs>
<linearGradient id="paint0_linear" x1="19.5" y1="2.30968e-07" x2="4" y2="26" gradientUnits="userSpaceOnUse">
<stop stop-color="#F1902D"/>
<stop offset="1" stop-color="#FF9735"/>
</linearGradient>
</defs>
</svg>
