<svg width="15" height="22" viewBox="0 0 15 22" fill="none" xmlns="http://www.w3.org/2000/svg">
<path fill-rule="evenodd" clip-rule="evenodd" d="M7.5 0C7.72233 0 7.9324 0.10296 8.07003 0.279388L12.7419 6.26828C12.8113 6.35732 12.8594 6.46142 12.8823 6.57241L14.9847 16.7506C15.0463 17.0489 14.9188 17.3547 14.6645 17.5186L7.89035 21.8849C7.65228 22.0384 7.34773 22.0384 7.10965 21.8849L0.335493 17.5186C0.0811724 17.3547 -0.0462823 17.0489 0.0153456 16.7506L2.11767 6.57241C2.1406 6.46142 2.18868 6.35732 2.25814 6.26828L6.92997 0.279388C7.0676 0.10296 7.27767 0 7.5 0ZM2.98078 9.57295L3.35937 10.7516L2.37805 12.491L2.98078 9.57295ZM3.21313 17.6337L6.18535 19.5495L5.56999 17.6337H3.21313ZM7.09613 17.6337L7.5 18.8911L7.90387 17.6337H7.09613ZM8.37498 16.167H6.62502L4.93802 10.9151L7.5 6.37393L10.062 10.9151L8.37498 16.167ZM9.43001 17.6337L8.81466 19.5495L11.7869 17.6337H9.43001ZM12.6219 12.491L12.0192 9.57295L11.6406 10.7516L12.6219 12.491ZM11.0344 12.6388L9.90112 16.167H13.025L11.0344 12.6388ZM10.6682 9.02788L11.3618 6.86848L8.2258 2.84842V4.69877L10.6682 9.02788ZM6.7742 4.69877V2.84842L3.63822 6.86848L4.33184 9.02788L6.7742 4.69877ZM3.96556 12.6388L5.09888 16.167H1.97501L3.96556 12.6388Z" fill="#1A1A27"/>
</svg>
