<svg width="12" height="20" viewBox="0 0 12 20" fill="none" xmlns="http://www.w3.org/2000/svg">
<path opacity="0.5" d="M0.292893 1.70711C-0.0976315 1.31658 -0.0976315 0.683417 0.292893 0.292893C0.683417 -0.0976311 1.31658 -0.0976311 1.70711 0.292893L0.292893 1.70711ZM10 10L10.7071 9.29289L11.4142 10L10.7071 10.7071L10 10ZM1.70711 19.7071C1.31658 20.0976 0.683417 20.0976 0.292893 19.7071C-0.0976315 19.3166 -0.0976315 18.6834 0.292893 18.2929L1.70711 19.7071ZM1.70711 0.292893L10.7071 9.29289L9.29289 10.7071L0.292893 1.70711L1.70711 0.292893ZM10.7071 10.7071L1.70711 19.7071L0.292893 18.2929L9.29289 9.29289L10.7071 10.7071Z" fill="#ADB8CC"/>
</svg>
