<svg width="43" height="26" viewBox="0 0 43 26" fill="none" xmlns="http://www.w3.org/2000/svg">
<path d="M35.8194 20.9976H0L8.31892 9.51531C8.49721 9.26507 8.73603 9.06041 9.01475 8.91901C9.29348 8.77761 9.60373 8.70372 9.91872 8.70372C10.2337 8.70372 10.544 8.77761 10.8227 8.91901C11.1014 9.06041 11.3402 9.26507 11.5185 9.51531L11.7905 9.90381L11.8817 10.0102L13.2543 11.9157H13.2639L14.091 13.0642L22.5411 1.37534C22.8481 0.950771 23.257 0.60399 23.7331 0.364524C24.2091 0.125058 24.7381 0 25.2751 0C25.8121 0 26.3412 0.125058 26.8172 0.364524C27.2932 0.60399 27.7022 0.950771 28.0092 1.37534L28.4891 2.03671L28.6395 2.2325L30.98 5.47924H30.9912L38.5582 15.9517C38.9062 16.4335 39.1105 16.9981 39.1489 17.5839C39.1873 18.1698 39.0583 18.7546 38.776 19.2747C38.4937 19.7949 38.0688 20.2305 37.5475 20.5343C37.0262 20.838 36.4285 20.9983 35.8194 20.9976Z" fill="url(#paint0_linear)"/>
<path d="M39.0382 25.4376H11.5634L14.7629 21.0038L25.4384 6.24392C25.4487 6.22588 25.4623 6.20971 25.4784 6.19612C25.4896 6.17608 25.5088 6.14679 25.5296 6.1175C25.9807 5.37288 28.222 1.40464 25.4672 0.00018692C25.9711 0.027583 26.4619 0.165241 26.9023 0.402713C27.3428 0.640186 27.7214 0.971231 28.0092 1.37072L28.4892 2.0321L28.4988 2.02285L28.6395 2.22789L30.98 5.47463H30.9912L38.5583 15.9471L41.7675 20.381C42.1193 20.8619 42.3271 21.4268 42.3681 22.014C42.4091 22.6011 42.2817 23.1877 42 23.7098C41.7182 24.2318 41.2929 24.6692 40.7705 24.9739C40.2481 25.2786 39.6488 25.4391 39.0382 25.4376Z" fill="url(#paint1_linear)"/>
<defs>
<linearGradient id="paint0_linear" x1="3.1292" y1="18.1224" x2="25.1468" y2="11.5324" gradientUnits="userSpaceOnUse">
<stop stop-color="#11B16F"/>
<stop offset="1" stop-color="#113D3D"/>
</linearGradient>
<linearGradient id="paint1_linear" x1="25.0976" y1="29.136" x2="33.1914" y2="5.63619" gradientUnits="userSpaceOnUse">
<stop stop-color="#6AB74F"/>
<stop offset="0.99" stop-color="#38B179"/>
</linearGradient>
</defs>
</svg>
