<svg width="476" height="148" viewBox="0 0 476 148" fill="none" xmlns="http://www.w3.org/2000/svg">
<path fill-rule="evenodd" clip-rule="evenodd" d="M332.758 119.646L341.727 138.285L417.477 139.904L425.04 147.125L421.715 138.285L462.991 76.6834L475.477 73.7502L462.991 70.6877L421.415 9.50024L425.04 0.937744L418.415 7.68774L343.881 10.1008L338.852 5.18774L341.179 11.9291L325.557 43.7426L345.101 15.2369L415.808 15.2369L450.162 74.4716L415.808 134.706H344.101L332.758 119.646Z" fill="url(#paint0_linear)"/>
<path d="M230.907 79.9753H244.328V87.6959C241.081 90.2214 236.824 91.2315 232.927 91.2315C222.537 91.2315 214.961 84.8819 214.961 73.7699C214.961 63.0909 221.816 56.3083 232.278 56.3083C238.195 56.3083 242.741 58.3286 245.699 61.6478L251.544 56.0918C247.791 50.9688 240.359 47.9382 231.845 47.9382C216.692 47.9382 205.869 59.3388 205.869 73.7699C205.869 89.4276 217.198 99.6016 232.783 99.6016C240.432 99.6016 248.008 96.7154 252.698 91.5923V72.0382H235.907L230.907 79.9753Z" fill="white"/>
<path d="M310.924 99.0243H319.654V63.9568L335.384 84.0881H337.621L352.99 64.0289V113.024L361.721 118.024V48.5155H354.073L336.683 71.966L318.644 48.5155H310.924V99.0243Z" fill="white"/>
<path d="M371.805 99.0243H395.047L400.047 90.7986H380.536V77.3777H402.45L407.45 69.4406H380.536V56.7412H409.326L404.326 48.5155H371.805V99.0243Z" fill="white"/>
<path fill-rule="evenodd" clip-rule="evenodd" d="M264.015 99.0243H254.996L277.148 48.5155H283.786L305.938 99.0243H296.774L291.867 87.8402L288.62 80.3361L280.322 61.1427L272.024 80.3361H280.322L291.867 87.8402H268.85L264.015 99.0243Z" fill="white"/>
<path d="M0.128418 97.8872H8.76246V78.3358H24.0214L28.0214 70.2012H8.76246V56.0728H33.8766L37.8766 47.9382H0.128418V97.8872Z" fill="white"/>
<path d="M131.192 97.8872H139.826V63.2084L155.381 83.1166H157.593L172.792 63.2797V102.887L181.426 111.887V47.9382H173.863L156.666 71.1288L138.827 47.9382H131.192V97.8872Z" fill="white"/>
<path d="M27.1753 97.8872H36.0948L40.8756 86.8271L44.0152 79.4061L52.2212 60.4255L60.4271 79.4061L63.6381 86.8271L68.4902 97.8872H77.5524L55.6462 47.9382H49.0815L27.1753 97.8872Z" fill="white"/>
<path d="M91.1173 97.8872V79.5488V71.4143V56.0728H101.892C110.312 56.0728 112.809 59.1411 112.809 63.4938C112.809 68.4173 108.885 71.4143 102.32 71.4143H101.102L91.1173 79.5488H101.678L115.307 97.8872H125.796L110.811 77.9076C117.448 75.981 121.8 70.3439 121.8 63.4938C121.8 55.5019 117.662 47.9382 102.106 47.9382H82.4832V97.8872H91.1173Z" fill="white"/>
<path fill-rule="evenodd" clip-rule="evenodd" d="M40.8756 86.8271L44.0152 79.4061H52.2212L63.6381 86.8271H40.8756Z" fill="white"/>
<path d="M242 135.554C243.431 137.412 246.531 139 249.699 139C255.287 139 258.796 135.385 258.796 129.541C258.796 124.338 255.661 120.655 250.551 120.655C248.03 120.655 245.85 121.534 244.214 123.595V114H242V135.554ZM250.279 122.75C253.856 122.75 256.445 125.385 256.445 129.743C256.445 134.236 253.685 136.905 249.972 136.905C247.894 136.905 245.577 136.061 244.214 134.541V126.601C245.305 124.541 247.485 122.75 250.279 122.75Z" fill="url(#paint1_linear)"/>
<path d="M276.061 134C275.004 135.588 272.892 136.905 270.61 136.905C266.555 136.905 263.523 134.574 263.455 130.52H278.071C278.139 129.912 278.207 129.236 278.207 128.628C278.207 123.797 274.732 120.655 270.065 120.655C264.239 120.655 261.105 124.676 261.105 129.845C261.105 135.419 264.886 139 270.507 139C273.369 139 275.958 137.784 277.56 135.318L276.061 134ZM269.894 122.716C273.471 122.716 275.72 124.878 275.822 128.493H263.421C263.796 125.182 266.113 122.716 269.894 122.716Z" fill="url(#paint2_linear)"/>
<path d="M279.41 123.189H282.953V132.108C282.953 136.534 284.725 138.899 288.268 138.899C290.312 138.899 292.083 137.851 292.969 136.635L291.606 135.318C291.061 135.993 290.039 136.804 288.676 136.804C286.258 136.804 285.167 135.52 285.167 131.601V123.189H291.504V121.095H285.167V117.142H282.953V121.095H279.41V123.189Z" fill="url(#paint3_linear)"/>
<path d="M296.054 124.811C297.621 123.595 299.393 122.75 301.437 122.75C305.729 122.75 306.786 125.25 306.786 128.865C305.866 128.595 303.685 128.324 302.323 128.324C296.906 128.324 293.703 129.912 293.703 133.662C293.703 136.838 296.293 138.899 300.108 138.899C303.481 138.899 305.661 137.412 306.786 135.757V138.662H309V127.75C309 123.257 306.547 120.655 301.709 120.655C299.291 120.655 296.497 121.635 294.862 123.122L296.054 124.811ZM300.721 136.872C297.996 136.872 296.02 135.622 296.02 133.527C296.02 131.095 298.575 130.318 302.629 130.318C304.23 130.318 305.764 130.554 306.786 130.858V132.953C306.138 134.473 304.06 136.872 300.721 136.872Z" fill="url(#paint4_linear)"/>
<path d="M189.216 75.2462C189.216 77.3932 190.978 79.375 193.675 79.375C196.208 79.375 198.079 77.3932 198.079 75.2462C198.079 73.3195 196.208 71.2275 193.675 71.2275C190.978 71.2275 189.216 73.3195 189.216 75.2462Z" fill="white"/>
<defs>
<linearGradient id="paint0_linear" x1="352.469" y1="56.7791" x2="441.281" y2="38.6604" gradientUnits="userSpaceOnUse">
<stop stop-color="#46AC56"/>
<stop offset="1" stop-color="#38B179"/>
</linearGradient>
<linearGradient id="paint1_linear" x1="296.973" y1="123.55" x2="264.781" y2="106.387" gradientUnits="userSpaceOnUse">
<stop stop-color="#46AC56"/>
<stop offset="1" stop-color="#38B179"/>
</linearGradient>
<linearGradient id="paint2_linear" x1="296.973" y1="123.55" x2="264.781" y2="106.387" gradientUnits="userSpaceOnUse">
<stop stop-color="#46AC56"/>
<stop offset="1" stop-color="#38B179"/>
</linearGradient>
<linearGradient id="paint3_linear" x1="296.973" y1="123.55" x2="264.781" y2="106.387" gradientUnits="userSpaceOnUse">
<stop stop-color="#46AC56"/>
<stop offset="1" stop-color="#38B179"/>
</linearGradient>
<linearGradient id="paint4_linear" x1="296.973" y1="123.55" x2="264.781" y2="106.387" gradientUnits="userSpaceOnUse">
<stop stop-color="#46AC56"/>
<stop offset="1" stop-color="#38B179"/>
</linearGradient>
</defs>
</svg>
