<svg width="200" height="66" viewBox="0 0 200 66" fill="none" xmlns="http://www.w3.org/2000/svg">
<path fill-rule="evenodd" clip-rule="evenodd" d="M139.814 53.3559L143.583 61.6678L175.411 62.3894L178.588 65.6099L177.191 61.6678L194.534 34.1966L199.78 32.8886L194.534 31.5229L177.065 4.2366L178.588 0.418183L175.804 3.42832L144.488 4.50442L142.375 2.31345L143.352 5.31972L136.789 19.5071L145 6.79492L174.709 6.79492L189.144 33.2104L174.709 60.0718H144.58L139.814 53.3559Z" fill="url(#paint0_linear)"/>
<path d="M97.0197 35.6647H102.659V39.1076C101.294 40.2338 99.5057 40.6843 97.8686 40.6843C93.5028 40.6843 90.3195 37.8527 90.3195 32.8974C90.3195 28.1351 93.1997 25.1104 97.5957 25.1104C100.082 25.1104 101.992 26.0114 103.235 27.4916L105.69 25.0139C104.114 22.7293 100.991 21.3779 97.4138 21.3779C91.0471 21.3779 86.4995 26.4619 86.4995 32.8974C86.4995 39.8799 91.2593 44.4169 97.8079 44.4169C101.022 44.4169 104.205 43.1298 106.176 40.8452V32.1251H99.1205L97.0197 35.6647Z" fill="white"/>
<path d="M130.64 44.1595H134.308V28.5213L140.918 37.4988H141.857L148.315 28.5534V50.4027L151.984 52.6325V21.6353H148.77L141.463 32.093L133.884 21.6353H130.64V44.1595Z" fill="white"/>
<path d="M156.22 44.1595H165.986L168.087 40.4913H159.889V34.5063H169.096L171.197 30.9667H159.889V25.3035H171.985L169.885 21.6353H156.22V44.1595Z" fill="white"/>
<path fill-rule="evenodd" clip-rule="evenodd" d="M110.931 44.1595H107.141L116.448 21.6353H119.238L128.545 44.1595H124.695L122.633 39.172L121.269 35.8255L117.782 27.2663L114.296 35.8255H117.782L122.633 39.172H112.962L110.931 44.1595Z" fill="white"/>
<path d="M0.0539551 43.6524H3.6817V34.9335H10.093L11.7737 31.3059H3.6817V25.0054H14.2339L15.9145 21.3779H0.0539551V43.6524Z" fill="white"/>
<path d="M55.1226 43.6524H58.7504V28.1875L65.2863 37.0655H66.2157L72.6018 28.2193V45.8821L76.2295 49.8957V21.3779H73.0515L65.826 31.7196L58.3306 21.3779H55.1226V43.6524Z" fill="white"/>
<path d="M11.4182 43.6524H15.1659L17.1746 38.7202L18.4938 35.4108L21.9417 26.9465L25.3895 35.4108L26.7387 38.7202L28.7774 43.6524H32.5851L23.3808 21.3779H20.6225L11.4182 43.6524Z" fill="white"/>
<path d="M38.2846 43.6524V35.4745V31.8469V25.0054H42.8117C46.3496 25.0054 47.3989 26.3737 47.3989 28.3148C47.3989 30.5104 45.7499 31.8469 42.9916 31.8469H42.4799L38.2846 35.4745H42.7218L48.4482 43.6524H52.8555L46.5594 34.7426C49.3477 33.8834 51.1766 31.3696 51.1766 28.3148C51.1766 24.7509 49.4376 21.3779 42.9017 21.3779H34.6568V43.6524H38.2846Z" fill="white"/>
<path fill-rule="evenodd" clip-rule="evenodd" d="M17.1746 38.7202L18.4938 35.4108H21.9417L26.7387 38.7202H17.1746Z" fill="white"/>
<path d="M79.5027 33.5557C79.5027 34.5132 80.2429 35.397 81.3763 35.397C82.4402 35.397 83.2267 34.5132 83.2267 33.5557C83.2267 32.6965 82.4402 31.7636 81.3763 31.7636C80.2429 31.7636 79.5027 32.6965 79.5027 33.5557Z" fill="white"/>
<defs>
<linearGradient id="paint0_linear" x1="148.096" y1="25.3204" x2="185.58" y2="18.1152" gradientUnits="userSpaceOnUse">
<stop stop-color="#46AC56"/>
<stop offset="1" stop-color="#38B179"/>
</linearGradient>
</defs>
</svg>
