<svg width="312" height="210" viewBox="0 0 312 210" fill="none" xmlns="http://www.w3.org/2000/svg">
<path fill-rule="evenodd" clip-rule="evenodd" d="M107.062 170.489L119.888 197.141L228.201 199.455L239.015 209.781L234.261 197.141L293.281 109.058L311.135 104.864L293.281 100.484L233.832 12.9934L239.015 0.75L229.542 10.4017L122.967 13.8522L115.777 6.82701L119.104 16.4663L96.7659 61.957L124.712 21.1962H225.815L274.937 105.895L225.815 192.024H123.282L107.062 170.489Z" fill="url(#paint0_linear)"/>
<path d="M64 146.061L81.0447 145.74V152.616C78.1528 154.866 74.3611 155.765 70.8908 155.765C61.6366 155.765 54.8887 150.11 54.8887 140.213C54.8887 130.702 60.9939 124.661 70.3124 124.661C75.5822 124.661 79.6309 126.46 82.2658 129.416L87.4713 124.468C84.1295 119.905 77.5101 117.206 69.9268 117.206C56.4311 117.206 46.7913 127.36 46.7913 140.213C46.7913 154.159 56.8809 163.22 70.7623 163.22C77.5744 163.22 84.3223 160.649 88.4995 156.087V138.671L68 138.606L64 146.061Z" fill="white"/>
<path d="M140.358 162.706H148.134V131.473L162.144 149.403H164.136L177.825 131.537V175.175L185.601 179.628V117.72H178.789L163.301 138.606L147.235 117.72H140.358V162.706Z" fill="white"/>
<path d="M194.582 162.706H215.283L219.736 155.38H202.358V143.426H221.876L226.329 136.357H202.358V125.046H228L223.547 117.72H194.582V162.706Z" fill="white"/>
<path fill-rule="evenodd" clip-rule="evenodd" d="M98.5791 162.706H90.546L110.275 117.72H116.188L135.917 162.706H127.756L123.386 152.745L120.494 146.061L113.103 128.967L105.713 146.061H113.103L123.386 152.745H102.885L98.5791 162.706Z" fill="white"/>
<path d="M16.3811 114C17.7932 112.932 19 110.619 19 108.254C19 104.085 16.2527 101.466 11.8108 101.466C7.85676 101.466 5.05811 103.805 5.05811 107.619C5.05811 109.5 5.72568 111.127 7.29189 112.347L-7.22359e-08 112.347L0 114L16.3811 114ZM6.65 107.822C6.65 105.152 8.6527 103.22 11.9649 103.22C15.3797 103.22 17.4081 105.28 17.4081 108.051C17.4081 109.602 16.7662 111.33 15.6108 112.347L9.57703 112.347C8.01081 111.534 6.65 109.907 6.65 107.822Z" fill="url(#paint1_linear)"/>
<path d="M15.2 88.5817C16.4068 89.3698 17.4081 90.9461 17.4081 92.6495C17.4081 95.675 15.6365 97.9378 12.5554 97.9886L12.5554 87.0817C12.0932 87.0308 11.5797 86.98 11.1176 86.98C7.44595 86.98 5.05811 89.5732 5.05811 93.0563C5.05811 97.4038 8.11351 99.7429 12.0419 99.7429C16.2784 99.7429 19 96.9208 19 92.7258C19 90.5902 18.0757 88.658 16.2014 87.463L15.2 88.5817ZM6.62432 93.1834C6.62432 90.5139 8.26757 88.8359 11.0149 88.7597L11.0149 98.014C8.49865 97.7344 6.62432 96.0055 6.62432 93.1834Z" fill="url(#paint2_linear)"/>
<path d="M6.98378 86.0822L6.98378 83.4381L13.7622 83.4381C17.1257 83.4381 18.923 82.116 18.923 79.4719C18.923 77.9465 18.127 76.6244 17.2027 75.9634L16.2014 76.9804C16.7149 77.3872 17.3311 78.1499 17.3311 79.1668C17.3311 80.972 16.3554 81.7855 13.377 81.7855L6.98378 81.7855L6.98378 77.0567L5.39189 77.0567L5.39189 81.7855L2.38784 81.7855L2.38784 83.4381L5.39189 83.4381L5.39189 86.0822L6.98378 86.0822Z" fill="url(#paint3_linear)"/>
<path d="M8.21622 73.6611C7.29189 72.4916 6.65 71.1696 6.65 69.6441C6.65 66.4407 8.55 65.6526 11.2973 65.6526C11.0919 66.339 10.8865 67.9662 10.8865 68.9831C10.8865 73.0255 12.0932 75.4154 14.9432 75.4154C17.3568 75.4154 18.923 73.4832 18.923 70.6357C18.923 68.1187 17.7932 66.4916 16.5351 65.6526L18.7432 65.6526L18.7432 64L10.45 64C7.03513 64 5.05811 65.8305 5.05811 69.4407C5.05811 71.2459 5.8027 73.3306 6.93243 74.551L8.21622 73.6611ZM17.3824 70.1781C17.3824 72.212 16.4324 73.6866 14.8405 73.6866C12.9919 73.6866 12.4014 71.7798 12.4014 68.7543C12.4014 67.5594 12.5811 66.4153 12.8122 65.6526L14.4041 65.6526C15.5595 66.1356 17.3824 67.6865 17.3824 70.1781Z" fill="url(#paint4_linear)"/>
<path d="M32 126.656L40.0746 119.156V91.4734H54.3448L58.0857 83.8659H40.0746V70.6529H63.5615L67.3024 63.0454H32V126.656Z" fill="white"/>
<path d="M154.634 109.758H162.709V77.3261L177.256 95.9445H179.325L193.539 77.3929V109.754H201.614V63.0454H194.54L178.458 84.7334L161.774 63.0454H154.634V109.758Z" fill="white"/>
<path d="M57.0986 110.156L65.6987 109.758L70.1698 99.4145L73.106 92.4744L80.7802 74.7236L88.4544 92.4744L91.4574 99.4145L95.9952 109.758H104.47L83.9833 63.0454H77.844L57.0986 110.156Z" fill="white"/>
<path d="M73.106 92.4744L70.1698 99.4145H92.3881L83.0481 92.4744H73.106Z" fill="white"/>
<path d="M117.156 109.758V92.6078V85.0004V70.6529H127.233C135.107 70.6529 137.443 73.5224 137.443 77.5931C137.443 82.1976 133.772 85.0004 127.633 85.0004H123.688L116.061 92.6078H127.032L139.778 109.758L150.099 114.156L135.574 91.073C141.78 89.2712 145.851 83.9994 145.851 77.5931C145.851 70.119 141.981 63.0454 127.433 63.0454H109.081V109.754L117.156 109.758Z" fill="white"/>
<defs>
<linearGradient id="paint0_linear" x1="135.247" y1="80.5968" x2="262.238" y2="54.689" gradientUnits="userSpaceOnUse">
<stop stop-color="#46AC56"/>
<stop offset="1" stop-color="#38B179"/>
</linearGradient>
<linearGradient id="paint1_linear" x1="7.25771" y1="72.9753" x2="-5.41956" y2="97.1915" gradientUnits="userSpaceOnUse">
<stop stop-color="#46AC56"/>
<stop offset="1" stop-color="#38B179"/>
</linearGradient>
<linearGradient id="paint2_linear" x1="7.25771" y1="72.9753" x2="-5.41956" y2="97.1915" gradientUnits="userSpaceOnUse">
<stop stop-color="#46AC56"/>
<stop offset="1" stop-color="#38B179"/>
</linearGradient>
<linearGradient id="paint3_linear" x1="7.25771" y1="72.9753" x2="-5.41956" y2="97.1915" gradientUnits="userSpaceOnUse">
<stop stop-color="#46AC56"/>
<stop offset="1" stop-color="#38B179"/>
</linearGradient>
<linearGradient id="paint4_linear" x1="7.25771" y1="72.9753" x2="-5.41956" y2="97.1915" gradientUnits="userSpaceOnUse">
<stop stop-color="#46AC56"/>
<stop offset="1" stop-color="#38B179"/>
</linearGradient>
</defs>
</svg>
