<svg width="134" height="102" viewBox="0 0 134 102" fill="none" xmlns="http://www.w3.org/2000/svg">
<path fill-rule="evenodd" clip-rule="evenodd" d="M37.9887 80.9873L43.999 93.4776L94.7586 94.5619L99.8262 99.4011L97.5984 93.4776L125.257 52.1984L133.624 50.233L125.257 48.1808L97.3971 7.17945L99.8262 1.44177L95.3868 5.96491L45.4421 7.5819L42.0725 4.28967L43.6317 8.80699L33.1633 30.1255L46.2596 11.0236H93.6404L116.661 50.7164L93.6404 91.0793H45.5895L37.9887 80.9873Z" fill="url(#paint0_linear)"/>
<path d="M17.808 69.5397L25.7958 69.3892V72.6117C24.4405 73.6658 22.6636 74.0874 21.0373 74.0874C16.7004 74.0874 13.5381 71.4371 13.5381 66.7991C13.5381 62.3418 16.3993 59.5108 20.7662 59.5108C23.2358 59.5108 25.1332 60.3541 26.368 61.7394L28.8075 59.4204C27.2414 57.2821 24.1393 56.0172 20.5855 56.0172C14.261 56.0172 9.74341 60.7757 9.74341 66.7991C9.74341 73.3345 14.4718 77.581 20.977 77.581C24.1694 77.581 27.3317 76.3763 29.2893 74.238V66.0763L19.6826 66.0462L17.808 69.5397Z" fill="white"/>
<path d="M53.5921 77.34H57.2363V62.7032L63.8018 71.1058H64.7354L71.1503 62.7333V83.1835L74.7945 85.2705V56.2581H71.6021L64.3439 66.0462L56.8146 56.2581H53.5921V77.34Z" fill="white"/>
<path d="M79.0033 77.34H88.7045L90.7914 73.9067H82.6475V68.3049H91.7942L93.8811 64.9921H82.6475V59.6915H94.6642L92.5772 56.2581H79.0033V77.34Z" fill="white"/>
<path fill-rule="evenodd" clip-rule="evenodd" d="M34.013 77.34H30.2484L39.4943 56.2581H42.2651L51.511 77.34H47.6861L45.6382 72.6719L44.2829 69.5397L40.8194 61.5286L37.356 69.5397H40.8194L45.6382 72.6719H36.0308L34.013 77.34Z" fill="white"/>
<path d="M2.76562 60.4459L6.54967 56.9311V43.958H13.2372L14.9903 40.3928H6.54967V34.2008H17.5565L19.3095 30.6356H2.76562V60.4459Z" fill="white"/>
<path d="M60.2362 52.5268H64.0203V37.3281L70.8378 46.0533H71.8073L78.4684 37.3593V52.5247H82.2525V30.6356H78.9375L71.4007 40.7994L63.5825 30.6356H60.2362V52.5268Z" fill="white"/>
<path d="M14.5277 52.7134L18.558 52.5268L20.6533 47.6795L22.0293 44.4271L25.6257 36.1084L29.2221 44.4271L30.6294 47.6795L32.756 52.5268H36.7277L27.1268 30.6356H24.2497L14.5277 52.7134Z" fill="white"/>
<path d="M22.0293 44.4271L20.6533 47.6795H31.0656L26.6886 44.4271H22.0293Z" fill="white"/>
<path d="M42.6727 52.5268V44.4896V40.9245V34.2008H47.395C51.0852 34.2008 52.1797 35.5455 52.1797 37.4532C52.1797 39.611 50.4597 40.9245 47.5826 40.9245H45.734L42.1593 44.4896H47.3011L53.2743 52.5268L58.1107 54.5879L51.3041 43.7703C54.2125 42.9259 56.1202 40.4554 56.1202 37.4532C56.1202 33.9506 54.3063 30.6356 47.4888 30.6356H38.8887V52.5247L42.6727 52.5268Z" fill="white"/>
<defs>
<linearGradient id="paint0_linear" x1="51.1967" y1="38.8607" x2="110.71" y2="26.7194" gradientUnits="userSpaceOnUse">
<stop stop-color="#46AC56"/>
<stop offset="1" stop-color="#38B179"/>
</linearGradient>
</defs>
</svg>
