<svg width="91" height="45" viewBox="0 0 91 45" fill="none" xmlns="http://www.w3.org/2000/svg">
<path d="M81.5652 31.3565H30.0186L41.9901 14.2095C42.2467 13.8358 42.5903 13.5302 42.9915 13.3191C43.3926 13.1079 43.839 12.9976 44.2923 12.9976C44.7456 12.9976 45.1921 13.1079 45.5932 13.3191C45.9943 13.5302 46.338 13.8358 46.5945 14.2095L46.9859 14.7897L47.1171 14.9486L49.0924 17.7941H49.1063L50.2965 19.5092L62.4568 2.05384C62.8986 1.41982 63.4871 0.901959 64.1721 0.544356C64.8572 0.186753 65.6185 0 66.3913 0C67.1641 0 67.9254 0.186753 68.6104 0.544356C69.2955 0.901959 69.884 1.41982 70.3258 2.05384L71.0165 3.04149L71.2329 3.33387L74.601 8.18234H74.6171L85.5066 23.8213C86.0074 24.5408 86.3014 25.3838 86.3567 26.2587C86.4119 27.1335 86.2263 28.0068 85.82 28.7836C85.4137 29.5604 84.8022 30.2109 84.0521 30.6645C83.302 31.1181 82.4418 31.3575 81.5652 31.3565Z" fill="url(#paint0_linear)"/>
<path d="M5.51611 16.6453C5.1278 16.986 4.93365 17.5838 4.93365 18.4387V18.4617H7.53976V21.2244H4.93365V31.3542H1.65069V21.2244H0V18.4617H1.65069V18.1579C1.65069 16.623 2.08965 15.4397 2.96756 14.6078C3.84547 13.776 5.14469 13.3616 6.86521 13.3646C7.15989 13.3646 7.38551 13.3646 7.53976 13.3877V16.2263C6.57743 16.1634 5.90288 16.303 5.51611 16.6453Z" fill="white"/>
<path d="M17.3403 19.0672C18.1014 19.5603 18.6816 20.2876 18.9933 21.1392V18.4618H22.2509V31.3542H18.9933V28.656C18.6794 29.5094 18.1 30.2397 17.3403 30.7395C16.5088 31.2758 15.5344 31.5478 14.5454 31.5199C13.5138 31.5342 12.4987 31.2599 11.6147 30.728C10.7242 30.1773 10.0156 29.3766 9.57721 28.4258C9.06612 27.3217 8.81489 26.1151 8.84281 24.8988C8.81488 23.6866 9.06451 22.4841 9.57261 21.3833C10.011 20.4325 10.7196 19.6318 11.6101 19.0811C12.4964 18.5516 13.5131 18.2804 14.5454 18.2983C15.5329 18.27 16.5063 18.5378 17.3403 19.0672ZM13.1042 22.1614C12.4826 22.8291 12.1718 23.7446 12.1718 24.908C12.1718 26.0714 12.4826 26.983 13.1042 27.643C13.4212 27.9738 13.8051 28.2332 14.2303 28.4039C14.6555 28.5746 15.1121 28.6527 15.5699 28.633C16.0271 28.6475 16.4822 28.5654 16.9055 28.3921C17.3288 28.2187 17.7107 27.958 18.0263 27.6269C18.671 26.9531 18.9933 26.0491 18.9933 24.9149C18.9933 23.7806 18.671 22.869 18.0263 22.1798C17.7112 21.8478 17.3295 21.5861 16.9061 21.4119C16.4828 21.2378 16.0274 21.155 15.5699 21.1692C15.1119 21.1488 14.6548 21.2269 14.2295 21.3981C13.8042 21.5692 13.4205 21.8295 13.1042 22.1614Z" fill="white"/>
<path d="M30.4215 18.9844C31.2236 18.5089 32.1412 18.2636 33.0736 18.2753V21.7908H32.1205C29.7155 21.7908 28.513 22.9074 28.513 25.1405V31.3565H25.2277V18.4641H28.5107V20.9275C28.9704 20.1266 29.6284 19.4574 30.4215 18.9844Z" fill="white"/>
<path d="M55.0115 19.7303C55.9201 20.6988 56.3744 22.0755 56.3744 23.8605V31.3565H53.1144V24.2334C53.1144 23.2404 52.8627 22.473 52.3593 21.9312C51.8559 21.3894 51.1652 21.1224 50.2873 21.13C49.8822 21.1105 49.4776 21.1771 49.1002 21.3256C48.7228 21.474 48.3812 21.7008 48.0979 21.9911C47.5546 22.5636 47.2837 23.4016 47.2852 24.5051V31.3565H44.0138V24.2334C44.0138 23.2404 43.7621 22.473 43.2587 21.9312C42.7552 21.3894 42.0646 21.1224 41.1867 21.13C40.7816 21.1105 40.377 21.1771 39.9995 21.3256C39.6221 21.474 39.2805 21.7008 38.9973 21.9911C38.4539 22.5636 38.1823 23.4016 38.1823 24.5051V31.3565H34.897V18.4641H38.1777V20.9044C38.4915 20.1001 39.0568 19.4186 39.7892 18.9613C40.5635 18.4918 41.4554 18.2523 42.3608 18.2707C43.3181 18.2478 44.2611 18.5064 45.0728 19.0143C45.8587 19.5319 46.4645 20.2809 46.8064 21.1577C47.1914 20.2955 47.8184 19.5638 48.6113 19.0511C49.4106 18.5306 50.3465 18.2589 51.3003 18.2707C52.8658 18.2738 54.1029 18.7603 55.0115 19.7303Z" fill="white"/>
<path d="M86.1973 37.9868H46.659L51.2634 31.3656L66.6261 9.32422C66.6411 9.29729 66.6605 9.27315 66.6837 9.25285C66.6998 9.22292 66.7274 9.17918 66.7574 9.13544C67.4066 8.02347 70.632 2.09756 66.6676 0.000244141C67.3927 0.0411557 68.099 0.246725 68.7329 0.601351C69.3668 0.955976 69.9115 1.45034 70.3258 2.04691L71.0165 3.03457L71.0303 3.02075L71.2329 3.32695L74.601 8.17542H74.6171L85.5066 23.8144L90.1249 30.4355C90.6312 31.1538 90.9302 31.9974 90.9892 32.8742C91.0482 33.7509 90.8649 34.627 90.4595 35.4066C90.054 36.1862 89.4419 36.8393 88.6901 37.2944C87.9384 37.7494 87.076 37.989 86.1973 37.9868Z" fill="url(#paint1_linear)"/>
<path d="M5.09021 34.9341C5.49094 35.21 5.79398 35.6057 5.95584 36.0645V34.5888H7.27041V41.012C7.2813 41.5604 7.15634 42.1029 6.90666 42.5913C6.67044 43.0437 6.3082 43.4179 5.86375 43.6687C5.37099 43.9406 4.81479 44.0764 4.2522 44.0624C3.48083 44.0983 2.7197 43.8745 2.09042 43.427C1.53836 43.0059 1.16782 42.39 1.05442 41.7049H2.35748C2.45254 42.0637 2.67308 42.3766 2.97907 42.5867C3.3295 42.8104 3.7401 42.9213 4.15551 42.9044C4.39223 42.913 4.62829 42.8745 4.85 42.7911C5.07171 42.7077 5.27466 42.5811 5.44705 42.4186C5.62494 42.2324 5.76207 42.0111 5.84967 41.7689C5.93727 41.5267 5.97343 41.2689 5.95584 41.012V39.4672C5.79398 39.926 5.49094 40.3217 5.09021 40.5976C4.65425 40.8889 4.13862 41.0377 3.61449 41.0235C3.09367 41.032 2.58062 40.8966 2.13186 40.6321C1.68968 40.3619 1.33539 39.9693 1.11198 39.5017C0.867615 38.9556 0.741302 38.3641 0.741302 37.7659C0.741302 37.1676 0.867615 36.5761 1.11198 36.03C1.33483 35.5621 1.68925 35.1692 2.13186 34.8996C2.58001 34.6335 3.09334 34.4972 3.61449 34.5059C4.13907 34.4908 4.65518 34.6406 5.09021 34.9341ZM2.61763 36.2188C2.27896 36.6608 2.09543 37.2021 2.09543 37.7589C2.09543 38.3158 2.27896 38.8571 2.61763 39.2991C2.79757 39.4868 3.01556 39.6338 3.25698 39.7303C3.4984 39.8268 3.75766 39.8705 4.01737 39.8586C4.36578 39.865 4.70918 39.7749 5.00963 39.5984C5.30336 39.4232 5.54251 39.1697 5.70029 38.8663C5.86697 38.5222 5.95356 38.1448 5.95356 37.7624C5.95356 37.38 5.86697 37.0026 5.70029 36.6585C5.54355 36.3525 5.30431 36.0965 5.00963 35.9195C4.70858 35.7446 4.36545 35.6555 4.01737 35.6616C3.75782 35.6493 3.49862 35.6926 3.25718 35.7887C3.01575 35.8848 2.79768 36.0314 2.61763 36.2188Z" fill="white"/>
<path d="M12.8763 34.9341C13.277 35.21 13.5801 35.6057 13.7419 36.0645V34.5888H15.0565V40.9429H13.7419V39.4672C13.5801 39.926 13.277 40.3217 12.8763 40.5976C12.4403 40.8889 11.9247 41.0377 11.4006 41.0235C10.8797 41.0322 10.3666 40.8968 9.91795 40.6321C9.47517 40.362 9.12013 39.9694 8.89577 39.5017C8.65296 38.9552 8.5275 38.3639 8.5275 37.7659C8.5275 37.1678 8.65296 36.5765 8.89577 36.03C9.11947 35.5619 9.47466 35.1691 9.91795 34.8996C10.366 34.6331 10.8794 34.4968 11.4006 34.5059C11.9252 34.4908 12.4413 34.6406 12.8763 34.9341ZM10.4014 36.2188C10.0628 36.6608 9.87922 37.2021 9.87922 37.7589C9.87922 38.3158 10.0628 38.8571 10.4014 39.2991C10.5823 39.4861 10.8008 39.6327 11.0425 39.7291C11.2842 39.8255 11.5435 39.8696 11.8035 39.8586C12.1518 39.8647 12.4952 39.7747 12.7957 39.5984C13.0899 39.4238 13.3292 39.1702 13.4864 38.8663C13.6546 38.5226 13.742 38.145 13.742 37.7624C13.742 37.3798 13.6546 37.0022 13.4864 36.6585C13.3315 36.35 13.0919 36.0921 12.7957 35.9149C12.4945 35.7404 12.1515 35.6512 11.8035 35.657C11.5433 35.6462 11.2839 35.6907 11.0422 35.7876C10.8005 35.8844 10.5821 36.0314 10.4014 36.2188Z" fill="white"/>
<path d="M26.3788 35.1989C26.8392 35.6762 27.0694 36.3569 27.0694 37.2409V40.9429H25.7549V37.3791C25.7849 36.9131 25.6368 36.4531 25.3405 36.0921C25.1937 35.9362 25.0146 35.8143 24.8158 35.7347C24.617 35.6552 24.4032 35.62 24.1894 35.6317C23.9613 35.6209 23.7336 35.659 23.5215 35.7436C23.3094 35.8282 23.118 35.9572 22.96 36.1221C22.653 36.449 22.4995 36.9278 22.4995 37.5587V40.9383H21.1919V37.3791C21.2219 36.9131 21.0738 36.4531 20.7775 36.0921C20.6307 35.9362 20.4516 35.8143 20.2528 35.7347C20.054 35.6552 19.8402 35.62 19.6264 35.6317C19.3983 35.6209 19.1706 35.659 18.9585 35.7436C18.7465 35.8282 18.555 35.9572 18.397 36.1221C18.09 36.449 17.9366 36.9278 17.9366 37.5587V40.9383H16.6358V34.5842H17.9504V35.9149C18.0912 35.4795 18.3762 35.1052 18.7584 34.8536C19.1541 34.6017 19.6156 34.4727 20.0845 34.4829C20.5743 34.4706 21.0562 34.6079 21.4659 34.8766C21.8637 35.1512 22.1612 35.548 22.3131 36.007C22.4831 35.5492 22.7943 35.1574 23.2017 34.8881C23.6113 34.6179 24.0924 34.4767 24.5831 34.4829C24.9159 34.469 25.248 34.5256 25.5574 34.649C25.8669 34.7724 26.1468 34.9598 26.3788 35.1989Z" fill="white"/>
<path d="M34.455 38.0237H29.5651C29.5881 38.6776 29.7692 39.1626 30.1084 39.4787C30.4493 39.7948 30.9007 39.9643 31.3654 39.9507C31.7625 39.9634 32.1529 39.8462 32.4774 39.6169C32.7736 39.4058 32.9746 39.0865 33.0368 38.7282H34.4366C34.3593 39.1614 34.1775 39.5691 33.907 39.9162C33.6288 40.2688 33.2684 40.5479 32.8572 40.7288C32.404 40.9307 31.9122 41.0313 31.416 41.0235C30.8475 41.0345 30.2855 40.8998 29.7838 40.6321C29.3107 40.3713 28.9236 39.9786 28.6695 39.5018C28.4045 38.9615 28.2667 38.3677 28.2667 37.7659C28.2667 37.1641 28.4045 36.5703 28.6695 36.03C28.9224 35.5523 29.3098 35.1593 29.7838 34.8996C30.2897 34.6432 30.8489 34.5095 31.416 34.5095C31.9832 34.5095 32.5424 34.6432 33.0483 34.8996C33.4994 35.1444 33.8716 35.5125 34.1212 35.961C34.3732 36.4224 34.5024 36.9409 34.4964 37.4666C34.5006 37.6532 34.4867 37.8398 34.455 38.0237ZM32.9631 36.3753C32.8172 36.1055 32.5912 35.8875 32.3162 35.7514C32.038 35.6161 31.7323 35.5467 31.423 35.5489C30.9473 35.5342 30.4845 35.7041 30.1314 36.0231C29.9484 36.2059 29.804 36.4236 29.7067 36.6632C29.6094 36.9029 29.5612 37.1596 29.5651 37.4183H33.1749C33.202 37.0577 33.1287 36.6967 32.9631 36.3753Z" fill="white"/>
<defs>
<linearGradient id="paint0_linear" x1="34.5217" y1="27.0628" x2="66.3936" y2="17.8701" gradientUnits="userSpaceOnUse">
<stop stop-color="#11B16F"/>
<stop offset="1" stop-color="#113D3D"/>
</linearGradient>
<linearGradient id="paint1_linear" x1="66.1357" y1="43.5098" x2="78.5769" y2="8.70032" gradientUnits="userSpaceOnUse">
<stop stop-color="#6AB74F"/>
<stop offset="0.99" stop-color="#38B179"/>
</linearGradient>
</defs>
</svg>
