<svg width="90" height="34" viewBox="0 0 90 34" fill="none" xmlns="http://www.w3.org/2000/svg">
<path d="M15.7482 8.10539C16.8228 8.10539 17.7972 8.35665 18.6712 8.85923C19.5596 9.34742 20.2544 10.0439 20.756 10.9485C21.2575 11.8387 21.5082 12.8797 21.5082 14.0715C21.5082 15.2634 21.2575 16.3115 20.756 17.2162C20.2544 18.1064 19.5596 18.8028 18.6712 19.3054C17.7972 19.7936 16.8228 20.0377 15.7482 20.0377C14.2724 20.0377 13.1118 19.5711 12.2664 18.6377V24.0438H8.91357V8.2777H12.116V9.61308C12.947 8.60797 14.1578 8.10539 15.7482 8.10539ZM15.1679 17.2808C16.0276 17.2808 16.7297 16.9936 17.2742 16.4192C17.833 15.8305 18.1124 15.048 18.1124 14.0715C18.1124 13.0951 17.833 12.3197 17.2742 11.7454C16.7297 11.1566 16.0276 10.8623 15.1679 10.8623C14.3082 10.8623 13.5989 11.1566 13.0401 11.7454C12.4956 12.3197 12.2234 13.0951 12.2234 14.0715C12.2234 15.048 12.4956 15.8305 13.0401 16.4192C13.5989 16.9936 14.3082 17.2808 15.1679 17.2808ZM28.2276 8.10539C30.0187 8.10539 31.3942 8.53616 32.3542 9.3977C33.3142 10.2449 33.7942 11.53 33.7942 13.2531V19.8654H30.6563V18.4223C30.0258 19.4992 28.8509 20.0377 27.1315 20.0377C26.2431 20.0377 25.4694 19.8869 24.8103 19.5854C24.1656 19.2838 23.6712 18.8674 23.3273 18.3362C22.9835 17.8049 22.8115 17.2018 22.8115 16.5269C22.8115 15.45 23.2127 14.6028 24.0151 13.9854C24.8318 13.368 26.0856 13.0592 27.7763 13.0592H30.4414C30.4414 12.3269 30.2193 11.7669 29.7751 11.3792C29.3309 10.9772 28.6647 10.7762 27.7763 10.7762C27.1602 10.7762 26.5512 10.8766 25.9494 11.0777C25.3619 11.2643 24.8605 11.5228 24.445 11.8531L23.2414 9.50539C23.8718 9.06028 24.6241 8.71567 25.4981 8.47154C26.3865 8.22742 27.2963 8.10539 28.2276 8.10539ZM27.9697 17.7762C28.5428 17.7762 29.0515 17.6469 29.4957 17.3885C29.9399 17.1157 30.2551 16.7208 30.4414 16.2038V15.0192H28.1417C26.7661 15.0192 26.0784 15.4715 26.0784 16.3762C26.0784 16.8069 26.2431 17.1515 26.5727 17.41C26.9166 17.6541 27.3822 17.7762 27.9697 17.7762ZM43.8567 8.10539C45.2896 8.10539 46.443 8.53616 47.317 9.3977C48.2054 10.2592 48.6496 11.5372 48.6496 13.2315V19.8654H45.2967V13.7485C45.2967 12.8295 45.0961 12.1474 44.695 11.7023C44.2938 11.2428 43.7135 11.0131 42.9541 11.0131C42.1087 11.0131 41.4353 11.2787 40.9338 11.81C40.4322 12.3269 40.1815 13.1023 40.1815 14.1362V19.8654H36.8287V8.2777H40.0311V9.63462C40.4752 9.14644 41.0269 8.77308 41.686 8.51462C42.3451 8.24182 43.0687 8.10539 43.8567 8.10539ZM63.5926 3.88385V19.8654H60.3902V18.53C59.5592 19.5351 58.3556 20.0377 56.7795 20.0377C55.6905 20.0377 54.7019 19.7936 53.8135 19.3054C52.9395 18.8172 52.2517 18.1208 51.7502 17.2162C51.2487 16.3115 50.998 15.2634 50.998 14.0715C50.998 12.8797 51.2487 11.8315 51.7502 10.9269C52.2517 10.0223 52.9395 9.32588 53.8135 8.8377C54.7019 8.34951 55.6905 8.10539 56.7795 8.10539C58.2553 8.10539 59.4087 8.57203 60.2398 9.50539V3.88385H63.5926ZM57.3598 17.2808C58.2052 17.2808 58.9072 16.9936 59.466 16.4192C60.0248 15.8305 60.3042 15.048 60.3042 14.0715C60.3042 13.0951 60.0248 12.3197 59.466 11.7454C58.9072 11.1566 58.2052 10.8623 57.3598 10.8623C56.5001 10.8623 55.7908 11.1566 55.232 11.7454C54.6732 12.3197 54.3938 13.0951 54.3938 14.0715C54.3938 15.048 54.6732 15.8305 55.232 16.4192C55.7908 16.9936 56.5001 17.2808 57.3598 17.2808ZM71.3595 8.10539C73.1507 8.10539 74.5263 8.53616 75.486 9.3977C76.4465 10.2449 76.926 11.53 76.926 13.2531V19.8654H73.7881V18.4223C73.1581 19.4992 71.9828 20.0377 70.2634 20.0377C69.3754 20.0377 68.6017 19.8869 67.9422 19.5854C67.2974 19.2838 66.8032 18.8674 66.4594 18.3362C66.1155 17.8049 65.9436 17.2018 65.9436 16.5269C65.9436 15.45 66.3447 14.6028 67.1469 13.9854C67.9636 13.368 69.2176 13.0592 70.9081 13.0592H73.5732C73.5732 12.3269 73.3516 11.7669 72.9069 11.3792C72.463 10.9772 71.7967 10.7762 70.9081 10.7762C70.2922 10.7762 69.683 10.8766 69.0813 11.0777C68.4942 11.2643 67.9925 11.5228 67.5768 11.8531L66.3734 9.50539C67.0038 9.06028 67.7561 8.71567 68.6299 8.47154C69.5185 8.22742 70.4286 8.10539 71.3595 8.10539ZM71.1016 17.7762C71.6751 17.7762 72.1836 17.6469 72.6275 17.3885C73.0722 17.1157 73.3872 16.7208 73.5732 16.2038V15.0192H71.2735C69.898 15.0192 69.2102 15.4715 69.2102 16.3762C69.2102 16.8069 69.3754 17.1515 69.7045 17.41C70.0484 17.6541 70.5145 17.7762 71.1016 17.7762ZM83.8507 20.0377C82.8909 20.0377 81.9526 19.9228 81.0351 19.6931C80.1183 19.449 79.3876 19.1474 78.8429 18.7885L79.9605 16.3762C80.4763 16.7064 81.0996 16.9792 81.8304 17.1946C82.5611 17.3957 83.2777 17.4962 83.9796 17.4962C85.3981 17.4962 86.1074 17.1443 86.1074 16.4408C86.1074 16.1105 85.9139 15.8736 85.5271 15.73C85.1402 15.5864 84.5458 15.4643 83.7432 15.3638C82.7975 15.2203 82.0171 15.0551 81.4005 14.8685C80.7846 14.6818 80.2473 14.3515 79.7886 13.8777C79.3446 13.4038 79.1223 12.729 79.1223 11.8531C79.1223 11.1208 79.3305 10.4746 79.7456 9.91462C80.1754 9.34028 80.792 8.89511 81.5939 8.57924C82.4107 8.26336 83.3711 8.10539 84.4739 8.10539C85.2907 8.10539 86.1007 8.19874 86.9026 8.38539C87.7193 8.5577 88.393 8.80182 88.9229 9.1177L87.8053 11.5085C86.7884 10.9341 85.6775 10.6469 84.4739 10.6469C83.758 10.6469 83.2207 10.7474 82.862 10.9485C82.504 11.1495 82.3247 11.408 82.3247 11.7238C82.3247 12.0828 82.5181 12.3341 82.905 12.4777C83.2919 12.6213 83.9084 12.7577 84.7533 12.8869C85.699 13.0449 86.4727 13.2172 87.0745 13.4038C87.6763 13.5762 88.1995 13.8992 88.6435 14.3731C89.0881 14.8469 89.3098 15.5074 89.3098 16.3546C89.3098 17.0726 89.0948 17.7115 88.665 18.2715C88.2351 18.8315 87.6051 19.2695 86.7737 19.5854C85.9569 19.8869 84.983 20.0377 83.8507 20.0377Z" fill="white"/>
<path d="M58.9373 25.9231C59.6609 25.9231 60.2341 26.1349 60.6567 26.5584C61.0794 26.9749 61.2908 27.6031 61.2908 28.4431V31.7384H59.9475V28.6154C59.9475 28.1128 59.8364 27.7359 59.6143 27.4846C59.3922 27.2261 59.0735 27.0969 58.6579 27.0969C58.2066 27.0969 57.8448 27.2477 57.5725 27.5492C57.3003 27.8436 57.1642 28.2672 57.1642 28.82V31.7384H55.8209V28.6154C55.8209 28.1128 55.7099 27.7359 55.4878 27.4846C55.2657 27.2261 54.9469 27.0969 54.5314 27.0969C54.0728 27.0969 53.7074 27.2441 53.4352 27.5384C53.1701 27.8328 53.0376 28.26 53.0376 28.82V31.7384H51.6943V25.9877H52.9731V26.72C53.1881 26.4615 53.4567 26.2641 53.7791 26.1277C54.1015 25.9912 54.4597 25.9231 54.8537 25.9231C55.2836 25.9231 55.6633 26.0057 55.9928 26.1708C56.3295 26.3287 56.5946 26.5657 56.7881 26.8815C57.0245 26.58 57.3289 26.3466 57.7015 26.1815C58.0741 26.0092 58.486 25.9231 58.9373 25.9231ZM65.6389 31.8138C65.0586 31.8138 64.5356 31.6882 64.0699 31.4369C63.6042 31.1856 63.2389 30.8374 62.9738 30.3923C62.7159 29.94 62.587 29.4303 62.587 28.8631C62.587 28.2959 62.7159 27.7897 62.9738 27.3446C63.2389 26.8995 63.6042 26.5512 64.0699 26.3C64.5356 26.0487 65.0586 25.9231 65.6389 25.9231C66.2263 25.9231 66.7529 26.0487 67.2183 26.3C67.6845 26.5512 68.0458 26.8995 68.3037 27.3446C68.569 27.7897 68.7013 28.2959 68.7013 28.8631C68.7013 29.4303 68.569 29.94 68.3037 30.3923C68.0458 30.8374 67.6845 31.1856 67.2183 31.4369C66.7529 31.6882 66.2263 31.8138 65.6389 31.8138ZM65.6389 30.6615C66.1332 30.6615 66.5416 30.4964 66.864 30.1661C67.1861 29.8359 67.3473 29.4015 67.3473 28.8631C67.3473 28.3246 67.1861 27.8903 66.864 27.56C66.5416 27.2297 66.1332 27.0646 65.6389 27.0646C65.1446 27.0646 64.7362 27.2297 64.4138 27.56C64.0986 27.8903 63.941 28.3246 63.941 28.8631C63.941 29.4015 64.0986 29.8359 64.4138 30.1661C64.7362 30.4964 65.1446 30.6615 65.6389 30.6615ZM73.2423 25.9231C73.9656 25.9231 74.5459 26.1349 74.9832 26.5584C75.4204 26.982 75.6387 27.6103 75.6387 28.4431V31.7384H74.2954V28.6154C74.2954 28.1128 74.1772 27.7359 73.9408 27.4846C73.7044 27.2261 73.3679 27.0969 72.9306 27.0969C72.4363 27.0969 72.0461 27.2477 71.7593 27.5492C71.4725 27.8436 71.3295 28.2708 71.3295 28.8308V31.7384H69.9862V25.9877H71.265V26.7308C71.4873 26.4651 71.7667 26.2641 72.1032 26.1277C72.4397 25.9912 72.8198 25.9231 73.2423 25.9231ZM82.7897 28.8954C82.7897 28.9887 82.7823 29.1215 82.7682 29.2938H78.2655C78.3441 29.7174 78.5483 30.0549 78.878 30.3061C79.2145 30.5503 79.6303 30.6723 80.1246 30.6723C80.7553 30.6723 81.2745 30.4641 81.6828 30.0477L82.4028 30.8769C82.1449 31.1857 81.8192 31.4189 81.4249 31.5769C81.0306 31.7349 80.5867 31.8138 80.0924 31.8138C79.4617 31.8138 78.9069 31.6882 78.4267 31.4369C77.9465 31.1856 77.5744 30.8374 77.3091 30.3923C77.0512 29.94 76.9222 29.4303 76.9222 28.8631C76.9222 28.3031 77.0478 27.8005 77.2983 27.3554C77.5562 26.9031 77.9109 26.5512 78.3622 26.3C78.8136 26.0487 79.322 25.9231 79.8882 25.9231C80.447 25.9231 80.9447 26.0487 81.3819 26.3C81.8259 26.5441 82.1698 26.8923 82.4136 27.3446C82.6641 27.7897 82.7897 28.3066 82.7897 28.8954ZM79.8882 27C79.4583 27 79.093 27.1292 78.7921 27.3877C78.4986 27.6389 78.3192 27.9764 78.2547 28.4H81.5109C81.4538 27.9836 81.2778 27.6461 80.9843 27.3877C80.6908 27.1292 80.3254 27 79.8882 27ZM89.3483 25.9877L86.6617 32.2015C86.4112 32.8261 86.1062 33.2641 85.7483 33.5154C85.3903 33.7738 84.9564 33.9031 84.448 33.9031C84.1612 33.9031 83.8784 33.8564 83.599 33.7631C83.3196 33.6697 83.0906 33.5405 82.9112 33.3754L83.4486 32.3846C83.5775 32.5066 83.728 32.6036 83.8999 32.6754C84.0792 32.7472 84.2579 32.7831 84.4372 32.7831C84.6736 32.7831 84.8671 32.722 85.0175 32.6C85.1753 32.478 85.3184 32.2733 85.4474 31.9861L85.5441 31.76L83.0402 25.9877H84.4372L86.2426 30.2415L88.0587 25.9877H89.3483Z" fill="#38B179"/>
<path d="M2.68117 11.7885C3.42944 7.09336 6.264 3.20591 9.38107 1.8269C4.67953 0.682698 -3.04431 2.02886 2.68117 11.7885Z" fill="white" stroke="white"/>
</svg>
