<svg width="158" height="55" viewBox="0 0 158 55" fill="none" xmlns="http://www.w3.org/2000/svg">
<path d="M0 27.5C0 12.3122 12.3122 0 27.5 0H130.5C145.688 0 158 12.3122 158 27.5C158 42.6878 145.688 55 130.5 55H27.5C12.3122 55 0 42.6878 0 27.5Z" fill="url(#paint0_linear)"/>
<path d="M0.5 27.5C0.5 12.5883 12.5883 0.5 27.5 0.5H130.5C145.412 0.5 157.5 12.5883 157.5 27.5C157.5 42.4117 145.412 54.5 130.5 54.5H27.5C12.5883 54.5 0.5 42.4117 0.5 27.5Z" stroke="#7C9EA5" stroke-opacity="0.2"/>
<path d="M49.7702 20.1054C50.8448 20.1054 51.8192 20.3566 52.6932 20.8592C53.5815 21.3474 54.2764 22.0439 54.7779 22.9485C55.2794 23.8387 55.5302 24.8797 55.5302 26.0715C55.5302 27.2634 55.2794 28.3115 54.7779 29.2162C54.2764 30.1064 53.5815 30.8028 52.6932 31.3054C51.8192 31.7936 50.8448 32.0377 49.7702 32.0377C48.2944 32.0377 47.1338 31.5711 46.2884 30.6377V36.0438H42.9355V20.2777H46.1379V21.6131C46.969 20.608 48.1797 20.1054 49.7702 20.1054ZM49.1899 29.2808C50.0496 29.2808 50.7516 28.9936 51.2961 28.4192C51.8549 27.8305 52.1344 27.048 52.1344 26.0715C52.1344 25.0951 51.8549 24.3197 51.2961 23.7454C50.7516 23.1566 50.0496 22.8623 49.1899 22.8623C48.3302 22.8623 47.6209 23.1566 47.0621 23.7454C46.5176 24.3197 46.2454 25.0951 46.2454 26.0715C46.2454 27.048 46.5176 27.8305 47.0621 28.4192C47.6209 28.9936 48.3302 29.2808 49.1899 29.2808ZM62.2496 20.1054C64.0407 20.1054 65.4162 20.5362 66.3762 21.3977C67.3362 22.2449 67.8162 23.53 67.8162 25.2531V31.8654H64.6783V30.4223C64.0478 31.4992 62.8729 32.0377 61.1535 32.0377C60.2651 32.0377 59.4914 31.8869 58.8323 31.5854C58.1875 31.2838 57.6932 30.8674 57.3493 30.3362C57.0054 29.8049 56.8335 29.2018 56.8335 28.5269C56.8335 27.45 57.2347 26.6028 58.0371 25.9854C58.8538 25.368 60.1075 25.0592 61.7983 25.0592H64.4633C64.4633 24.3269 64.2412 23.7669 63.7971 23.3792C63.3529 22.9772 62.6866 22.7762 61.7983 22.7762C61.1822 22.7762 60.5732 22.8766 59.9714 23.0777C59.3839 23.2643 58.8825 23.5228 58.4669 23.8531L57.2633 21.5054C57.8938 21.0603 58.6461 20.7157 59.5201 20.4715C60.4084 20.2274 61.3182 20.1054 62.2496 20.1054ZM61.9917 29.7762C62.5648 29.7762 63.0735 29.6469 63.5177 29.3885C63.9618 29.1157 64.2771 28.7208 64.4633 28.2038V27.0192H62.1636C60.7881 27.0192 60.1004 27.4715 60.1004 28.3762C60.1004 28.8069 60.2651 29.1515 60.5947 29.41C60.9386 29.6541 61.4042 29.7762 61.9917 29.7762ZM77.8787 20.1054C79.3115 20.1054 80.465 20.5362 81.339 21.3977C82.2274 22.2592 82.6716 23.5372 82.6716 25.2315V31.8654H79.3187V25.7485C79.3187 24.8295 79.1181 24.1474 78.7169 23.7023C78.3158 23.2428 77.7355 23.0131 76.976 23.0131C76.1306 23.0131 75.4572 23.2787 74.9557 23.81C74.4542 24.3269 74.2035 25.1023 74.2035 26.1362V31.8654H70.8507V20.2777H74.053V21.6346C74.4972 21.1464 75.0489 20.7731 75.708 20.5146C76.3671 20.2418 77.0907 20.1054 77.8787 20.1054ZM97.6146 15.8839V31.8654H94.4122V30.53C93.5812 31.5351 92.3776 32.0377 90.8014 32.0377C89.7125 32.0377 88.7239 31.7936 87.8355 31.3054C86.9615 30.8172 86.2737 30.1208 85.7722 29.2162C85.2707 28.3115 85.0199 27.2634 85.0199 26.0715C85.0199 24.8797 85.2707 23.8315 85.7722 22.9269C86.2737 22.0223 86.9615 21.3259 87.8355 20.8377C88.7239 20.3495 89.7125 20.1054 90.8014 20.1054C92.2772 20.1054 93.4307 20.572 94.2617 21.5054V15.8839H97.6146ZM91.3817 29.2808C92.2271 29.2808 92.9292 28.9936 93.488 28.4192C94.0468 27.8305 94.3262 27.048 94.3262 26.0715C94.3262 25.0951 94.0468 24.3197 93.488 23.7454C92.9292 23.1566 92.2271 22.8623 91.3817 22.8623C90.522 22.8623 89.8128 23.1566 89.254 23.7454C88.6952 24.3197 88.4158 25.0951 88.4158 26.0715C88.4158 27.048 88.6952 27.8305 89.254 28.4192C89.8128 28.9936 90.522 29.2808 91.3817 29.2808ZM105.381 20.1054C107.173 20.1054 108.548 20.5362 109.508 21.3977C110.468 22.2449 110.948 23.53 110.948 25.2531V31.8654H107.81V30.4223C107.18 31.4992 106.005 32.0377 104.285 32.0377C103.397 32.0377 102.624 31.8869 101.964 31.5854C101.319 31.2838 100.825 30.8674 100.481 30.3362C100.137 29.8049 99.9655 29.2018 99.9655 28.5269C99.9655 27.45 100.367 26.6028 101.169 25.9854C101.986 25.368 103.24 25.0592 104.93 25.0592H107.595C107.595 24.3269 107.374 23.7669 106.929 23.3792C106.485 22.9772 105.819 22.7762 104.93 22.7762C104.314 22.7762 103.705 22.8766 103.103 23.0777C102.516 23.2643 102.014 23.5228 101.599 23.8531L100.395 21.5054C101.026 21.0603 101.778 20.7157 102.652 20.4715C103.54 20.2274 104.451 20.1054 105.381 20.1054ZM105.124 29.7762C105.697 29.7762 106.206 29.6469 106.649 29.3885C107.094 29.1157 107.409 28.7208 107.595 28.2038V27.0192H105.295C103.92 27.0192 103.232 27.4715 103.232 28.3762C103.232 28.8069 103.397 29.1515 103.727 29.41C104.07 29.6541 104.537 29.7762 105.124 29.7762ZM117.873 32.0377C116.913 32.0377 115.975 31.9228 115.057 31.6931C114.14 31.449 113.41 31.1474 112.865 30.7885L113.982 28.3762C114.498 28.7064 115.122 28.9792 115.852 29.1946C116.583 29.3957 117.3 29.4962 118.002 29.4962C119.42 29.4962 120.129 29.1443 120.129 28.4408C120.129 28.1105 119.936 27.8736 119.549 27.73C119.162 27.5864 118.568 27.4643 117.765 27.3638C116.82 27.2203 116.039 27.0551 115.422 26.8685C114.807 26.6818 114.269 26.3515 113.811 25.8777C113.367 25.4038 113.144 24.729 113.144 23.8531C113.144 23.1208 113.352 22.4746 113.768 21.9146C114.197 21.3403 114.814 20.8951 115.616 20.5792C116.433 20.2634 117.393 20.1054 118.496 20.1054C119.313 20.1054 120.123 20.1987 120.925 20.3854C121.741 20.5577 122.415 20.8018 122.945 21.1177L121.827 23.5085C120.81 22.9341 119.7 22.6469 118.496 22.6469C117.78 22.6469 117.243 22.7474 116.884 22.9485C116.526 23.1495 116.347 23.408 116.347 23.7238C116.347 24.0828 116.54 24.3341 116.927 24.4777C117.314 24.6213 117.93 24.7577 118.775 24.8869C119.721 25.0449 120.495 25.2172 121.097 25.4038C121.698 25.5762 122.222 25.8992 122.665 26.3731C123.11 26.8469 123.332 27.5074 123.332 28.3546C123.332 29.0726 123.117 29.7115 122.687 30.2715C122.257 30.8315 121.627 31.2695 120.796 31.5854C119.979 31.8869 119.005 32.0377 117.873 32.0377Z" fill="white"/>
<path d="M92.9594 37.9231C93.683 37.9231 94.2562 38.1349 94.6788 38.5584C95.1015 38.9749 95.3128 39.6031 95.3128 40.4431V43.7384H93.9696V40.6154C93.9696 40.1128 93.8585 39.7359 93.6364 39.4846C93.4143 39.2261 93.0956 39.0969 92.68 39.0969C92.2287 39.0969 91.8669 39.2477 91.5946 39.5492C91.3224 39.8436 91.1863 40.2672 91.1863 40.82V43.7384H89.843V40.6154C89.843 40.1128 89.732 39.7359 89.5099 39.4846C89.2878 39.2261 88.969 39.0969 88.5535 39.0969C88.0949 39.0969 87.7295 39.2441 87.4573 39.5384C87.1922 39.8328 87.0597 40.26 87.0597 40.82V43.7384H85.7164V37.9877H86.9952V38.72C87.2102 38.4615 87.4788 38.2641 87.8012 38.1277C88.1236 37.9912 88.4818 37.9231 88.8758 37.9231C89.3057 37.9231 89.6854 38.0057 90.0149 38.1708C90.3516 38.3287 90.6167 38.5657 90.8102 38.8815C91.0466 38.58 91.351 38.3466 91.7236 38.1815C92.0962 38.0092 92.5081 37.9231 92.9594 37.9231ZM99.661 43.8138C99.0807 43.8138 98.5577 43.6882 98.092 43.4369C97.6263 43.1856 97.261 42.8374 96.9959 42.3923C96.738 41.94 96.6091 41.4303 96.6091 40.8631C96.6091 40.2959 96.738 39.7897 96.9959 39.3446C97.261 38.8995 97.6263 38.5512 98.092 38.3C98.5577 38.0487 99.0807 37.9231 99.661 37.9231C100.248 37.9231 100.775 38.0487 101.24 38.3C101.707 38.5512 102.068 38.8995 102.326 39.3446C102.591 39.7897 102.723 40.2959 102.723 40.8631C102.723 41.4303 102.591 41.94 102.326 42.3923C102.068 42.8374 101.707 43.1856 101.24 43.4369C100.775 43.6882 100.248 43.8138 99.661 43.8138ZM99.661 42.6615C100.155 42.6615 100.564 42.4964 100.886 42.1661C101.208 41.8359 101.369 41.4015 101.369 40.8631C101.369 40.3246 101.208 39.8903 100.886 39.56C100.564 39.2297 100.155 39.0646 99.661 39.0646C99.1667 39.0646 98.7583 39.2297 98.4359 39.56C98.1207 39.8903 97.9631 40.3246 97.9631 40.8631C97.9631 41.4015 98.1207 41.8359 98.4359 42.1661C98.7583 42.4964 99.1667 42.6615 99.661 42.6615ZM107.264 37.9231C107.988 37.9231 108.568 38.1349 109.005 38.5584C109.443 38.982 109.661 39.6103 109.661 40.4431V43.7384H108.318V40.6154C108.318 40.1128 108.199 39.7359 107.963 39.4846C107.726 39.2261 107.39 39.0969 106.953 39.0969C106.458 39.0969 106.068 39.2477 105.781 39.5492C105.495 39.8436 105.352 40.2708 105.352 40.8308V43.7384H104.008V37.9877H105.287V38.7308C105.509 38.4651 105.789 38.2641 106.125 38.1277C106.462 37.9912 106.842 37.9231 107.264 37.9231ZM116.812 40.8954C116.812 40.9887 116.804 41.1215 116.79 41.2938H112.288C112.366 41.7174 112.57 42.0549 112.9 42.3061C113.237 42.5503 113.652 42.6723 114.147 42.6723C114.777 42.6723 115.297 42.4641 115.705 42.0477L116.425 42.8769C116.167 43.1857 115.841 43.4189 115.447 43.5769C115.053 43.7349 114.609 43.8138 114.114 43.8138C113.484 43.8138 112.929 43.6882 112.449 43.4369C111.969 43.1856 111.596 42.8374 111.331 42.3923C111.073 41.94 110.944 41.4303 110.944 40.8631C110.944 40.3031 111.07 39.8005 111.32 39.3554C111.578 38.9031 111.933 38.5512 112.384 38.3C112.836 38.0487 113.344 37.9231 113.91 37.9231C114.469 37.9231 114.967 38.0487 115.404 38.3C115.848 38.5441 116.192 38.8923 116.436 39.3446C116.686 39.7897 116.812 40.3066 116.812 40.8954ZM113.91 39C113.48 39 113.115 39.1292 112.814 39.3877C112.521 39.6389 112.341 39.9764 112.277 40.4H115.533C115.476 39.9836 115.3 39.6461 115.006 39.3877C114.713 39.1292 114.348 39 113.91 39ZM123.37 37.9877L120.684 44.2015C120.433 44.8261 120.128 45.2641 119.77 45.5154C119.412 45.7738 118.978 45.9031 118.47 45.9031C118.183 45.9031 117.901 45.8564 117.621 45.7631C117.342 45.6697 117.113 45.5405 116.933 45.3754L117.471 44.3846C117.6 44.5066 117.75 44.6036 117.922 44.6754C118.101 44.7472 118.28 44.7831 118.459 44.7831C118.696 44.7831 118.889 44.722 119.04 44.6C119.197 44.478 119.34 44.2733 119.469 43.9861L119.566 43.76L117.062 37.9877H118.459L120.265 42.2415L122.081 37.9877H123.37Z" fill="#38B179"/>
<path d="M36.7031 23.7885C37.4514 19.0934 40.286 15.2059 43.403 13.8269C38.7015 12.6827 30.9777 14.0289 36.7031 23.7885Z" fill="white" stroke="white"/>
<defs>
<linearGradient id="paint0_linear" x1="-1.36299e-06" y1="27.5" x2="161.023" y2="24.3064" gradientUnits="userSpaceOnUse">
<stop stop-color="#384C50"/>
<stop offset="1" stop-color="#27383C"/>
</linearGradient>
</defs>
</svg>
