<svg width="35" height="25" viewBox="0 0 35 25" fill="none" xmlns="http://www.w3.org/2000/svg">
<path fill-rule="evenodd" clip-rule="evenodd" d="M7.65788 4.84205C8.21016 4.84205 8.65788 5.28976 8.65788 5.84205V6.65784H9.47367C10.026 6.65784 10.4737 7.10555 10.4737 7.65784C10.4737 8.21012 10.026 8.65784 9.47367 8.65784H8.65788V9.47363C8.65788 10.0259 8.21016 10.4736 7.65788 10.4736C7.10559 10.4736 6.65788 10.0259 6.65788 9.47363V8.65784H5.84209C5.28981 8.65784 4.84209 8.21012 4.84209 7.65784C4.84209 7.10555 5.28981 6.65784 5.84209 6.65784H6.65788V5.84205C6.65788 5.28976 7.10559 4.84205 7.65788 4.84205Z" fill="#ADCCC7"/>
<path fill-rule="evenodd" clip-rule="evenodd" d="M15.5263 13.3157C16.0786 13.3157 16.5263 13.7634 16.5263 14.3157V15.1315H17.3421C17.8944 15.1315 18.3421 15.5792 18.3421 16.1315C18.3421 16.6838 17.8944 17.1315 17.3421 17.1315H16.5263V17.9473C16.5263 18.4996 16.0786 18.9473 15.5263 18.9473C14.974 18.9473 14.5263 18.4996 14.5263 17.9473V17.1315H13.7105C13.1582 17.1315 12.7105 16.6838 12.7105 16.1315C12.7105 15.5792 13.1582 15.1315 13.7105 15.1315H14.5263V14.3157C14.5263 13.7634 14.974 13.3157 15.5263 13.3157Z" fill="#ADCCC7"/>
<path fill-rule="evenodd" clip-rule="evenodd" d="M27.1599 9.28941C26.4533 9.35876 25.6935 9.55231 24.8648 9.77502L24.3457 7.84355C25.1586 7.62508 26.0703 7.38674 26.9645 7.29897C27.8651 7.21058 28.836 7.26431 29.7426 7.7035C30.987 8.30632 31.9458 9.67363 32.6537 11.1398C33.3845 12.6531 33.9445 14.4752 34.2889 16.2569C34.6323 18.0338 34.7733 19.8326 34.6265 21.2987C34.5533 22.0293 34.4039 22.7282 34.1376 23.3132C33.8723 23.8958 33.444 24.4621 32.7663 24.7374C31.6419 25.1942 30.5984 25.0109 29.6761 24.5287C28.8052 24.0734 27.9953 23.3285 27.2397 22.5859C25.8315 21.202 24.1796 20.2307 21.58 20.2209C18.9791 20.2302 17.3267 21.2016 15.9182 22.5859C15.1625 23.3285 14.3527 24.0734 13.4818 24.5287C12.5595 25.0109 11.516 25.1942 10.3916 24.7374C9.45206 24.3557 8.98872 23.4253 8.75593 22.5683C8.51163 21.6688 8.44048 20.5698 8.4871 19.4209C8.58062 17.116 9.15903 14.3772 10.069 12.1253L11.9233 12.8746C11.0996 14.9131 10.5697 17.4258 10.4855 19.502C10.4432 20.5435 10.5158 21.4173 10.686 22.044C10.8677 22.7131 11.0897 22.8623 11.1444 22.8845C11.606 23.072 12.0286 23.0316 12.5551 22.7563C13.1332 22.4541 13.7549 21.9077 14.5163 21.1594C16.2096 19.4953 18.3311 18.241 21.5399 18.221L21.5767 18.2209H21.5835L21.618 18.2208C24.8268 18.2408 26.9483 19.4953 28.6415 21.1594C29.4029 21.9077 30.0247 22.4541 30.6027 22.7563C31.1292 23.0316 31.5519 23.072 32.0135 22.8845C32.048 22.8705 32.1734 22.8006 32.3174 22.4845C32.4602 22.1707 32.5755 21.7084 32.6365 21.0994C32.7579 19.8862 32.6453 18.2923 32.3252 16.6365C32.0061 14.9855 31.4928 13.335 30.8527 12.0095C30.1898 10.6367 29.4801 9.79868 28.8706 9.50342C28.419 9.28463 27.8601 9.22069 27.1599 9.28941Z" fill="#ADCCC7"/>
<path fill-rule="evenodd" clip-rule="evenodd" d="M13.1396 3.13859L13.1048 3.13843L13.0708 3.13858C12.3845 3.12903 11.6724 2.98645 11.0052 2.82314C10.6708 2.7413 10.3317 2.6499 10.0028 2.56125L9.98093 2.55536C9.6411 2.46377 9.31104 2.375 8.98353 2.29508C7.61608 1.96137 6.58347 1.86728 5.81354 2.24027C5.20405 2.53553 4.49436 3.37351 3.83146 4.7463C3.19136 6.07188 2.67806 7.72235 2.35895 9.37333C2.0389 11.0292 1.92623 12.6231 2.04772 13.8362C2.10872 14.4453 2.22397 14.9076 2.36681 15.2213C2.51074 15.5374 2.63618 15.6073 2.67069 15.6213C3.13229 15.8089 3.55494 15.7685 4.08146 15.4932C4.65948 15.191 5.28124 14.6445 6.04263 13.8963C7.7362 12.2319 9.85822 10.9774 13.0679 10.9579L13.1047 10.9577H13.1081L13.1426 10.9576C16.3524 10.9772 18.4743 12.2319 20.1679 13.8963C20.9293 14.6445 21.551 15.191 22.129 15.4932C22.6556 15.7685 23.0782 15.8089 23.5398 15.6213C23.5743 15.6073 23.6998 15.5374 23.8437 15.2213C23.9865 14.9076 24.1018 14.4453 24.1628 13.8362C24.2843 12.6231 24.1716 11.0292 23.8515 9.37332C23.5324 7.72234 23.0191 6.07187 22.379 4.7463C21.7161 3.3735 21.0064 2.53552 20.397 2.24026C19.6269 1.86722 18.5942 1.96139 17.2265 2.29518C16.899 2.37512 16.5689 2.4639 16.229 2.5555L16.2077 2.56124C15.8786 2.64995 15.5392 2.74142 15.2046 2.82331C14.5376 2.98654 13.8257 3.12905 13.1396 3.13859ZM13.1063 12.9577C15.706 12.9676 17.3578 13.9388 18.766 15.3227C19.5217 16.0653 20.3315 16.8102 21.2024 17.2655C22.1247 17.7478 23.1682 17.9311 24.2926 17.4743C24.9703 17.1989 25.3986 16.6327 25.6639 16.0501C25.9302 15.4651 26.0796 14.7661 26.1528 14.0355C26.2996 12.5694 26.1586 10.7706 25.8152 8.99377C25.4708 7.21208 24.9108 5.38997 24.18 3.87661C23.4721 2.41047 22.5133 1.04317 21.2689 0.440341C19.7939 -0.274222 18.1125 0.0202445 16.7523 0.352205C16.3979 0.438699 16.0452 0.533671 15.7085 0.624409L15.6978 0.627299C15.361 0.718079 15.041 0.804334 14.7292 0.880637C14.0949 1.03586 13.5589 1.13302 13.105 1.13836C12.651 1.13294 12.1149 1.03572 11.4807 0.880491C11.1691 0.804227 10.8493 0.718032 10.5127 0.62732L10.5014 0.624264C10.1647 0.533533 9.81206 0.438575 9.45769 0.352096C8.09763 0.020193 6.41647 -0.274141 4.94159 0.440348C3.69721 1.04317 2.73843 2.41048 2.03045 3.87662C1.29967 5.38998 0.739673 7.21209 0.395298 8.99378C0.0518607 10.7706 -0.0891506 12.5694 0.0576775 14.0355C0.130845 14.7661 0.280251 15.4651 0.546605 16.0501C0.811868 16.6327 1.24015 17.1989 1.9179 17.4743C3.04232 17.9311 4.08578 17.7478 5.00812 17.2656C5.87897 16.8102 6.68884 16.0654 7.4445 15.3227C8.85299 13.9385 10.5054 12.9671 13.1063 12.9577Z" fill="#ADCCC7"/>
<path d="M20.3684 6.44731C20.3684 7.11586 19.8264 7.65784 19.1579 7.65784C18.4893 7.65784 17.9474 7.11586 17.9474 6.44731C17.9474 5.77875 18.4893 5.23678 19.1579 5.23678C19.8264 5.23678 20.3684 5.77875 20.3684 6.44731Z" fill="#ADCCC7"/>
<path fill-rule="evenodd" clip-rule="evenodd" d="M19.1579 6.65784C19.2741 6.65784 19.3684 6.56358 19.3684 6.44731C19.3684 6.33104 19.2741 6.23678 19.1579 6.23678C19.0416 6.23678 18.9474 6.33104 18.9474 6.44731C18.9474 6.56358 19.0416 6.65784 19.1579 6.65784ZM19.1579 7.65784C19.8264 7.65784 20.3684 7.11586 20.3684 6.44731C20.3684 5.77875 19.8264 5.23678 19.1579 5.23678C18.4893 5.23678 17.9474 5.77875 17.9474 6.44731C17.9474 7.11586 18.4893 7.65784 19.1579 7.65784Z" fill="#ADCCC7"/>
<path d="M18.5526 8.2631C18.5526 8.93165 18.0106 9.47362 17.3421 9.47362C16.6735 9.47362 16.1316 8.93165 16.1316 8.2631C16.1316 7.59454 16.6735 7.05257 17.3421 7.05257C18.0106 7.05257 18.5526 7.59454 18.5526 8.2631Z" fill="#ADCCC7"/>
<path fill-rule="evenodd" clip-rule="evenodd" d="M17.3421 8.47362C17.4584 8.47362 17.5526 8.37937 17.5526 8.2631C17.5526 8.14683 17.4584 8.05257 17.3421 8.05257C17.2258 8.05257 17.1316 8.14683 17.1316 8.2631C17.1316 8.37937 17.2258 8.47362 17.3421 8.47362ZM17.3421 9.47362C18.0106 9.47362 18.5526 8.93165 18.5526 8.2631C18.5526 7.59454 18.0106 7.05257 17.3421 7.05257C16.6735 7.05257 16.1316 7.59454 16.1316 8.2631C16.1316 8.93165 16.6735 9.47362 17.3421 9.47362Z" fill="#ADCCC7"/>
<path d="M20.3684 10.0789C20.3684 10.7474 19.8264 11.2894 19.1579 11.2894C18.4893 11.2894 17.9474 10.7474 17.9474 10.0789C17.9474 9.41033 18.4893 8.86836 19.1579 8.86836C19.8264 8.86836 20.3684 9.41033 20.3684 10.0789Z" fill="#ADCCC7"/>
<path fill-rule="evenodd" clip-rule="evenodd" d="M19.1579 10.2894C19.2741 10.2894 19.3684 10.1952 19.3684 10.0789C19.3684 9.96262 19.2741 9.86836 19.1579 9.86836C19.0416 9.86836 18.9474 9.96262 18.9474 10.0789C18.9474 10.1952 19.0416 10.2894 19.1579 10.2894ZM19.1579 11.2894C19.8264 11.2894 20.3684 10.7474 20.3684 10.0789C20.3684 9.41033 19.8264 8.86836 19.1579 8.86836C18.4893 8.86836 17.9474 9.41033 17.9474 10.0789C17.9474 10.7474 18.4893 11.2894 19.1579 11.2894Z" fill="#ADCCC7"/>
<path d="M22.1842 8.2631C22.1842 8.93165 21.6422 9.47362 20.9737 9.47362C20.3051 9.47362 19.7631 8.93165 19.7631 8.2631C19.7631 7.59454 20.3051 7.05257 20.9737 7.05257C21.6422 7.05257 22.1842 7.59454 22.1842 8.2631Z" fill="#ADCCC7"/>
<path fill-rule="evenodd" clip-rule="evenodd" d="M20.9737 8.47362C21.0899 8.47362 21.1842 8.37937 21.1842 8.2631C21.1842 8.14683 21.0899 8.05257 20.9737 8.05257C20.8574 8.05257 20.7631 8.14683 20.7631 8.2631C20.7631 8.37937 20.8574 8.47362 20.9737 8.47362ZM20.9737 9.47362C21.6422 9.47362 22.1842 8.93165 22.1842 8.2631C22.1842 7.59454 21.6422 7.05257 20.9737 7.05257C20.3051 7.05257 19.7631 7.59454 19.7631 8.2631C19.7631 8.93165 20.3051 9.47362 20.9737 9.47362Z" fill="#ADCCC7"/>
<path d="M28.8421 13.7105C28.8421 14.379 28.3001 14.921 27.6316 14.921C26.963 14.921 26.421 14.379 26.421 13.7105C26.421 13.0419 26.963 12.4999 27.6316 12.4999C28.3001 12.4999 28.8421 13.0419 28.8421 13.7105Z" fill="#ADCCC7"/>
<path d="M27.0263 15.5263C27.0263 16.1948 26.4843 16.7368 25.8158 16.7368C25.1472 16.7368 24.6052 16.1948 24.6052 15.5263C24.6052 14.8577 25.1472 14.3157 25.8158 14.3157C26.4843 14.3157 27.0263 14.8577 27.0263 15.5263Z" fill="#ADCCC7"/>
<path d="M28.8421 17.342C28.8421 18.0106 28.3001 18.5526 27.6316 18.5526C26.963 18.5526 26.421 18.0106 26.421 17.342C26.421 16.6735 26.963 16.1315 27.6316 16.1315C28.3001 16.1315 28.8421 16.6735 28.8421 17.342Z" fill="#ADCCC7"/>
<path d="M30.6579 15.5263C30.6579 16.1948 30.1159 16.7368 29.4474 16.7368C28.7788 16.7368 28.2368 16.1948 28.2368 15.5263C28.2368 14.8577 28.7788 14.3157 29.4474 14.3157C30.1159 14.3157 30.6579 14.8577 30.6579 15.5263Z" fill="#ADCCC7"/>
<path fill-rule="evenodd" clip-rule="evenodd" d="M27.6316 13.921C27.7478 13.921 27.8421 13.8267 27.8421 13.7105C27.8421 13.5942 27.7478 13.4999 27.6316 13.4999C27.5153 13.4999 27.421 13.5942 27.421 13.7105C27.421 13.8267 27.5153 13.921 27.6316 13.921ZM27.9314 16.1689C27.8355 16.1445 27.7351 16.1315 27.6316 16.1315C27.5281 16.1315 27.4276 16.1445 27.3317 16.1689C26.8082 16.3024 26.421 16.777 26.421 17.342C26.421 17.4455 26.434 17.546 26.4585 17.6419C26.5919 18.1654 27.0665 18.5526 27.6316 18.5526C28.1966 18.5526 28.6712 18.1654 28.8047 17.6419C28.8291 17.546 28.8421 17.4455 28.8421 17.342C28.8421 16.777 28.4549 16.3024 27.9314 16.1689ZM25.5159 14.3532C24.9924 14.4866 24.6052 14.9612 24.6052 15.5263C24.6052 16.0913 24.9924 16.5659 25.5159 16.6994C25.6118 16.7238 25.7123 16.7368 25.8158 16.7368C26.3808 16.7368 26.8555 16.3496 26.9889 15.8261C27.0133 15.7302 27.0263 15.6298 27.0263 15.5263C27.0263 15.4228 27.0133 15.3223 26.9889 15.2264C26.8555 14.7029 26.3808 14.3157 25.8158 14.3157C25.7123 14.3157 25.6118 14.3287 25.5159 14.3532ZM27.3317 14.8836C26.8082 14.7502 26.421 14.2755 26.421 13.7105C26.421 13.607 26.434 13.5065 26.4585 13.4106C26.5919 12.8871 27.0665 12.4999 27.6316 12.4999C28.1966 12.4999 28.6712 12.8871 28.8047 13.4106C28.8291 13.5065 28.8421 13.607 28.8421 13.7105C28.8421 14.2755 28.4549 14.7502 27.9314 14.8836C27.8355 14.908 27.7351 14.921 27.6316 14.921C27.5281 14.921 27.4276 14.908 27.3317 14.8836ZM29.7472 14.3532C29.6513 14.3287 29.5509 14.3157 29.4474 14.3157C28.8823 14.3157 28.4077 14.7029 28.2743 15.2264C28.2498 15.3223 28.2368 15.4228 28.2368 15.5263C28.2368 15.6298 28.2498 15.7302 28.2743 15.8261C28.4077 16.3496 28.8823 16.7368 29.4474 16.7368C29.5509 16.7368 29.6513 16.7238 29.7472 16.6994C30.2707 16.5659 30.6579 16.0913 30.6579 15.5263C30.6579 14.9612 30.2707 14.4866 29.7472 14.3532ZM25.8158 15.7368C25.932 15.7368 26.0263 15.6425 26.0263 15.5263C26.0263 15.41 25.932 15.3157 25.8158 15.3157C25.6995 15.3157 25.6052 15.41 25.6052 15.5263C25.6052 15.6425 25.6995 15.7368 25.8158 15.7368ZM27.6316 17.5526C27.7478 17.5526 27.8421 17.4583 27.8421 17.342C27.8421 17.2258 27.7478 17.1315 27.6316 17.1315C27.5153 17.1315 27.421 17.2258 27.421 17.342C27.421 17.4583 27.5153 17.5526 27.6316 17.5526ZM29.4474 15.7368C29.5636 15.7368 29.6579 15.6425 29.6579 15.5263C29.6579 15.41 29.5636 15.3157 29.4474 15.3157C29.3311 15.3157 29.2368 15.41 29.2368 15.5263C29.2368 15.6425 29.3311 15.7368 29.4474 15.7368Z" fill="#ADCCC7"/>
</svg>
