<svg width="22" height="20" viewBox="0 0 22 20" fill="none" xmlns="http://www.w3.org/2000/svg">
<path d="M1 7C1 5.89543 1.89543 5 3 5C4.10457 5 5 5.89543 5 7V17C5 18.1046 4.10457 19 3 19C1.89543 19 1 18.1046 1 17V7ZM9 12C9 10.8954 9.89543 10 11 10C12.1046 10 13 10.8954 13 12V17C13 18.1046 12.1046 19 11 19C9.89543 19 9 18.1046 9 17V12ZM17 3C17 1.89543 17.8954 1 19 1C20.1046 1 21 1.89543 21 3V17C21 18.1046 20.1046 19 19 19C17.8954 19 17 18.1046 17 17V3Z" stroke="#ADCCC7" stroke-width="2"/>
</svg>
