<svg width="12" height="19" viewBox="0 0 12 19" fill="none" xmlns="http://www.w3.org/2000/svg">
<path fill-rule="evenodd" clip-rule="evenodd" d="M5.00729 3.38993C3.72589 4.32603 2.80005 5.59909 2.80005 7.14894C2.80005 7.82444 3.06625 8.3582 3.55834 8.87637C4.08067 9.4264 4.80025 9.90053 5.64686 10.4447C5.67872 10.4652 5.71079 10.4858 5.74305 10.5065C6.51964 11.0052 7.40628 11.5745 8.09201 12.2716C8.83738 13.0293 9.41229 14.0023 9.41229 15.2872C9.41229 16.746 8.7054 17.7228 7.83605 18.2934C7.01963 18.8293 6.08333 19 5.47352 19C4.88547 19 4.21651 18.7574 3.74944 18.5581C3.24896 18.3445 2.7809 18.0918 2.53701 17.9317L3.63452 16.2598C3.75798 16.3408 4.11644 16.5402 4.53433 16.7185C4.98563 16.9111 5.32687 17 5.47352 17C5.78208 17 6.31516 16.8994 6.73854 16.6215C7.10898 16.3783 7.41229 15.9987 7.41229 15.2872C7.41229 14.6732 7.16068 14.1768 6.66625 13.6742C6.14067 13.1399 5.41977 12.6762 4.56548 12.1271L4.56289 12.1255C3.75703 11.6075 2.82478 11.0083 2.10809 10.2536C1.36038 9.46627 0.800049 8.46279 0.800049 7.14894C0.800049 4.72006 2.26196 2.91865 3.8275 1.77497C5.36853 0.64919 7.22384 0 8.41229 0C9.67598 0 10.5607 0.580912 11.0993 1.31013C11.6036 1.99285 11.8 2.79272 11.8 3.35106C11.8 4.25412 11.3261 5.59079 10.4958 6.68939C9.6404 7.82116 8.27291 8.87234 6.39189 8.87234L5.64686 8.87637L4.56548 6.87234H6.39189C7.44963 6.87234 8.28623 6.29586 8.90023 5.48348C9.53929 4.63794 9.80005 3.71397 9.80005 3.35106C9.80005 3.186 9.72099 2.81034 9.49058 2.49838C9.2945 2.23292 8.98534 2 8.41229 2C7.76401 2 6.3132 2.43592 5.00729 3.38993Z" fill="#1A1A27"/>
</svg>
