<svg width="38" height="21" viewBox="0 0 38 21" fill="none" xmlns="http://www.w3.org/2000/svg">
<path fill-rule="evenodd" clip-rule="evenodd" d="M15.9201 1C15.9201 0.447715 16.3678 0 16.9201 0H20.8745C21.4268 0 21.8745 0.447715 21.8745 1V2.71449H25.0667C25.0799 2.71423 25.093 2.71423 25.1062 2.71449H28.8345C28.8469 2.71449 28.8594 2.71472 28.8718 2.71518C30.3836 2.77155 32.6281 3.27862 34.5232 4.64632C36.465 6.04779 38 8.3314 38 11.7811C38 15.225 36.472 17.5665 34.5405 19.0186C32.6522 20.4382 30.3956 21 28.8345 21C26.5934 21 23.0545 19.9367 21.0186 16.6876H16.9814C14.9455 19.9367 11.4066 21 9.16548 21C8.19641 21 6.98411 20.7847 5.76748 20.3031C5.25396 20.0999 5.00245 19.5188 5.20571 19.0053C5.40898 18.4918 5.99005 18.2403 6.50356 18.4435C7.50351 18.8393 8.46673 19 9.16548 19C11.0186 19 14.0028 18.0463 15.5258 15.214C15.7002 14.8898 16.0385 14.6876 16.4066 14.6876H21.5934C21.9615 14.6876 22.2998 14.8898 22.4742 15.214C23.9972 18.0463 26.9814 19 28.8345 19C29.9996 19 31.8258 18.5573 33.3387 17.4199C34.8084 16.315 36 14.5471 36 11.7811C36 9.02109 34.8132 7.3221 33.3527 6.26806C31.8529 5.18561 30.0253 4.76307 28.8152 4.71449H25.6842L24.1182 7.63673C23.9441 7.96161 23.6054 8.16438 23.2368 8.16438H20.3096C19.7573 8.16438 19.3096 7.71667 19.3096 7.16438C19.3096 6.6121 19.7573 6.16438 20.3096 6.16438H22.6382L23.4152 4.71449H14.4308L15.2078 6.16438H17.5364C18.0887 6.16438 18.5364 6.6121 18.5364 7.16438C18.5364 7.71667 18.0887 8.16438 17.5364 8.16438H14.6091C14.2405 8.16438 13.9018 7.96161 13.7277 7.63673L12.1617 4.71449H9.1848C7.97465 4.76307 6.14709 5.18561 4.64728 6.26806C3.18684 7.3221 2 9.02109 2 11.7811C2 13.8821 2.68647 15.3909 3.63386 16.4709C3.99807 16.8861 3.95674 17.5179 3.54157 17.8821C3.12639 18.2463 2.49457 18.205 2.13037 17.7898C0.859413 16.341 0 14.362 0 11.7811C0 8.3314 1.53499 6.04779 3.47683 4.64632C5.37188 3.27862 7.61637 2.77155 9.12822 2.71518C9.14064 2.71472 9.15306 2.71449 9.16548 2.71449H12.7397C12.7529 2.71423 12.7661 2.71423 12.7792 2.71449H15.9201V1ZM17.9201 2.71449H19.8745V2H17.9201V2.71449ZM6.8816 8.07759C6.8816 7.5253 7.32931 7.07759 7.8816 7.07759H10.398C10.9503 7.07759 11.398 7.5253 11.398 8.07759V9.5128H12.8631C13.4153 9.5128 13.8631 9.96052 13.8631 10.5128V12.9988C13.8631 13.551 13.4153 13.9988 12.8631 13.9988H11.398V15.434C11.398 15.9863 10.9503 16.434 10.398 16.434H7.8816C7.32931 16.434 6.8816 15.9863 6.8816 15.434V13.9988H5.41655C4.86426 13.9988 4.41655 13.551 4.41655 12.9988V10.5128C4.41655 9.96052 4.86426 9.5128 5.41655 9.5128H6.8816V8.07759ZM8.8816 9.07759V10.5128L7.8816 11.5128H6.41655V11.9988H7.8816L8.8816 12.9988V14.434H9.398V12.9988L10.398 11.9988H11.8631V11.5128H10.398L9.398 10.5128V9.07759H8.8816ZM30.6833 9.07759C30.3165 9.07759 30.0399 9.36817 30.0399 9.70106C30.0399 10.034 30.3165 10.3245 30.6833 10.3245C31.0501 10.3245 31.3267 10.034 31.3267 9.70106C31.3267 9.36817 31.0501 9.07759 30.6833 9.07759ZM28.0399 9.70106C28.0399 8.24071 29.2349 7.07759 30.6833 7.07759C32.1317 7.07759 33.3267 8.24071 33.3267 9.70106C33.3267 11.1614 32.1317 12.3245 30.6833 12.3245C29.2349 12.3245 28.0399 11.1614 28.0399 9.70106ZM27.0884 13.3392C26.7216 13.3392 26.4451 13.6298 26.4451 13.9627C26.4451 14.2956 26.7216 14.5862 27.0884 14.5862C27.4553 14.5862 27.7318 14.2956 27.7318 13.9627C27.7318 13.6298 27.4553 13.3392 27.0884 13.3392ZM24.4451 13.9627C24.4451 12.5023 25.6401 11.3392 27.0884 11.3392C28.5368 11.3392 29.7318 12.5023 29.7318 13.9627C29.7318 15.423 28.5368 16.5862 27.0884 16.5862C25.6401 16.5862 24.4451 15.423 24.4451 13.9627Z" fill="#6AB74F"/>
</svg>
