<svg width="16" height="19" viewBox="0 0 16 19" fill="none" xmlns="http://www.w3.org/2000/svg">
<path fill-rule="evenodd" clip-rule="evenodd" d="M9.99331 0.0119439C9.98771 0.0185995 9.90586 0.0268873 9.81143 0.0303299C9.60738 0.0378016 9.37089 0.064641 9.18641 0.101273C9.14953 0.108591 9.09159 0.120054 9.05765 0.126748C8.99493 0.139128 8.91669 0.156826 8.82964 0.178336C8.80308 0.184902 8.75721 0.195829 8.72771 0.202625C8.6982 0.209421 8.65353 0.221088 8.62845 0.228534C8.60338 0.235993 8.56475 0.247175 8.54261 0.253384C8.52049 0.259594 8.47582 0.274384 8.44336 0.286255C8.4109 0.298112 8.36503 0.31354 8.34143 0.320527C8.27066 0.341476 7.96985 0.457594 7.91223 0.486193C7.88272 0.500843 7.83444 0.524265 7.80493 0.538227C7.63373 0.619268 7.47762 0.704721 7.38914 0.765833C7.34931 0.793348 7.2817 0.839989 7.23892 0.869493C7.15819 0.925174 6.93984 1.09442 6.93044 1.10861C6.92748 1.11308 6.90817 1.13051 6.88752 1.14737C6.86686 1.16423 6.84272 1.18718 6.83387 1.19836C6.82501 1.20954 6.80087 1.23261 6.78022 1.24962C6.75956 1.26663 6.72093 1.30668 6.69438 1.33862C6.66782 1.37056 6.62919 1.41081 6.60854 1.42805C6.56046 1.46818 6.49224 1.54924 6.45847 1.60637C6.44396 1.63092 6.41009 1.67682 6.38321 1.70838C6.35633 1.73993 6.32263 1.78583 6.30832 1.81038C6.29401 1.83492 6.27943 1.85787 6.27591 1.86138C6.27239 1.86489 6.2579 1.88784 6.24372 1.91238C6.22953 1.93693 6.21488 1.95988 6.21114 1.96338C6.18705 1.98601 6.0009 2.33819 5.94493 2.46702C5.92665 2.5091 5.90496 2.55787 5.89673 2.5754C5.88026 2.61051 5.80798 2.80047 5.77302 2.90053C5.75372 2.95575 5.68514 3.20274 5.62609 3.42967C5.61605 3.46824 5.60364 3.52705 5.59851 3.56036C5.59338 3.59368 5.58414 3.65106 5.57797 3.68787C5.55704 3.8127 5.54502 3.90746 5.53391 4.03531C5.51928 4.20351 5.51949 4.93492 5.53421 5.08084C5.56769 5.41273 5.57527 5.47539 5.59943 5.61954C5.6056 5.65635 5.61518 5.71373 5.6207 5.74704C5.63008 5.80349 5.63791 5.8429 5.66381 5.9638C5.67473 6.01479 5.69183 6.09807 5.70636 6.17099C5.71752 6.22698 5.8393 6.66004 5.86066 6.71965C5.86937 6.74398 5.8872 6.79544 5.90027 6.83401C5.99059 7.1004 6.1332 7.44326 6.26886 7.72016C6.31588 7.81612 6.5 8.14951 6.5118 8.16004C6.51573 8.16355 6.53995 8.20372 6.56562 8.2493C6.59128 8.29488 6.6153 8.33504 6.61898 8.33855C6.62266 8.34206 6.63727 8.36501 6.65147 8.38955C6.66565 8.41409 6.68497 8.44278 6.69438 8.4533C6.70379 8.46382 6.72314 8.49251 6.73739 8.51705C6.75163 8.5416 6.77573 8.57603 6.79095 8.59356C6.80616 8.61109 6.83035 8.64551 6.84471 8.67006C6.85908 8.6946 6.89283 8.7405 6.91971 8.77206C6.94658 8.80362 6.98049 8.84952 6.99505 8.87406C7.02913 8.93152 7.37471 9.3424 7.42401 9.38409C7.47325 9.42573 8.0547 10.1168 8.08911 10.1746C8.10373 10.1991 8.15209 10.2623 8.19657 10.3149C8.24106 10.3674 8.28926 10.4306 8.30367 10.4551C8.31808 10.4796 8.34231 10.5141 8.35752 10.5316C8.37274 10.5491 8.3969 10.5836 8.41124 10.6081C8.42557 10.6327 8.45452 10.6728 8.47555 10.6974C8.49658 10.7219 8.52548 10.7621 8.53976 10.7866C8.55404 10.8112 8.5686 10.8341 8.57212 10.8376C8.57564 10.8411 8.59013 10.8641 8.60431 10.8886C8.6185 10.9132 8.63298 10.9361 8.6365 10.9396C8.64002 10.9431 8.65451 10.9661 8.66869 10.9906C8.68288 11.0152 8.69736 11.0381 8.70088 11.0416C8.7044 11.0451 8.71889 11.0681 8.73307 11.0926C8.74726 11.1172 8.76194 11.1401 8.7657 11.1436C8.76946 11.1471 8.81272 11.2217 8.86183 11.3094C8.91094 11.397 8.95458 11.4716 8.9588 11.4751C8.96301 11.4786 8.99663 11.5418 9.0335 11.6154C9.07037 11.689 9.11048 11.766 9.12263 11.7864C9.22212 11.9535 9.45224 12.5252 9.53619 12.8139C9.55352 12.8735 9.57278 12.9395 9.57898 12.9605C9.59679 13.021 9.62524 13.1347 9.63561 13.1869C9.64084 13.2132 9.65025 13.2591 9.65652 13.2889C9.67613 13.382 9.69256 13.4885 9.72194 13.7128C9.73687 13.8268 9.73702 14.5465 9.72214 14.6818C9.7103 14.7894 9.69685 14.8759 9.67798 14.9655C9.67171 14.9953 9.6623 15.0412 9.65707 15.0675C9.63146 15.1964 9.56812 15.4161 9.51466 15.5616C9.44274 15.7573 9.38329 15.898 9.33137 15.9951C9.227 16.1905 9.12464 16.3758 9.11363 16.3894C9.10754 16.397 9.09086 16.4232 9.07659 16.4478C9.06231 16.4723 9.04292 16.501 9.03351 16.5115C9.0241 16.522 9.00474 16.5507 8.99049 16.5753C8.97626 16.5998 8.95216 16.6342 8.93694 16.6518C8.92173 16.6693 8.89742 16.7037 8.88293 16.7283C8.84874 16.7862 8.46015 17.248 8.41117 17.2889C8.39052 17.3062 8.35672 17.3408 8.33606 17.3658C8.31541 17.3908 8.28161 17.4252 8.26095 17.4422C8.2403 17.4592 8.21133 17.488 8.19657 17.506C8.18182 17.5241 8.15285 17.5527 8.13219 17.5697C8.11154 17.5866 8.09222 17.6039 8.08927 17.608C8.08632 17.6122 8.06701 17.6294 8.04635 17.6463C8.0257 17.6631 8.00638 17.6804 8.00343 17.6845C8.00048 17.6887 7.98117 17.7059 7.96051 17.7228C7.93986 17.7397 7.92054 17.7571 7.91759 17.7616C7.91026 17.7728 7.54385 18.0627 7.45084 18.1308C7.14516 18.3549 7.07692 18.4021 6.85533 18.5424C6.76417 18.6002 6.7373 18.6245 6.7373 18.6492C6.7373 18.6689 6.81242 18.6735 6.82904 18.6549C6.83465 18.6486 6.85854 18.6403 6.88215 18.6364C6.93678 18.6274 7.01878 18.6082 7.08066 18.5898C7.10721 18.5819 7.15067 18.5704 7.17723 18.5643C7.20378 18.5582 7.24604 18.5471 7.27111 18.5396C7.29619 18.5322 7.33603 18.5203 7.35963 18.5133C7.41887 18.4957 7.48667 18.4759 7.53131 18.4632C7.55197 18.4573 7.59543 18.4428 7.62788 18.4309C7.66034 18.419 7.70621 18.4036 7.72982 18.3966C7.8849 18.3505 8.18692 18.2318 8.59895 18.0549C8.69479 18.0138 8.81288 17.9553 9.01205 17.8502C9.16414 17.77 9.17738 17.7628 9.20519 17.7442C9.21994 17.7343 9.2823 17.6982 9.34376 17.664C9.40521 17.6297 9.48184 17.583 9.51405 17.5602C9.54625 17.5374 9.57653 17.5188 9.58133 17.5188C9.58613 17.5188 9.6133 17.5023 9.64173 17.4822C9.67015 17.4622 9.7779 17.3864 9.88118 17.3139C10.053 17.1932 10.3512 16.9656 10.364 16.9452C10.367 16.9405 10.4008 16.9118 10.4391 16.8813C10.4775 16.8508 10.5113 16.8222 10.5142 16.8179C10.5172 16.8135 10.5365 16.7961 10.5572 16.7793C10.5778 16.7624 10.602 16.7395 10.6108 16.7283C10.6197 16.7171 10.6438 16.6941 10.6645 16.6772C10.6851 16.6602 10.7141 16.6316 10.7288 16.6135C10.7436 16.5954 10.7726 16.5666 10.7932 16.5494C10.8139 16.5322 10.856 16.4894 10.8867 16.4543C10.9175 16.4191 10.9674 16.3646 10.9975 16.333C11.0931 16.233 11.1952 16.1114 11.2224 16.0653C11.2369 16.0407 11.2755 15.9891 11.3083 15.9505C11.341 15.9119 11.3795 15.8603 11.3939 15.8357C11.4082 15.8112 11.4276 15.7825 11.437 15.772C11.4464 15.7615 11.4657 15.7328 11.4799 15.7082C11.4941 15.6837 11.5086 15.6607 11.5121 15.6572C11.5157 15.6537 11.5301 15.6308 11.5443 15.6062C11.5585 15.5817 11.5732 15.5587 11.577 15.5552C11.5876 15.5453 11.7502 15.2535 11.8042 15.1472C11.8573 15.0429 12.0181 14.6664 12.0424 14.5895C12.086 14.4512 12.1227 14.3334 12.1327 14.2993C12.1609 14.203 12.2239 13.9631 12.2324 13.92C12.2375 13.8937 12.2469 13.8478 12.2532 13.818C12.3169 13.5151 12.3709 12.9265 12.3711 12.5334C12.3712 12.1899 12.3307 11.7482 12.2741 11.4751C12.2676 11.4436 12.2583 11.3977 12.2534 11.3731C12.2485 11.3486 12.2319 11.2845 12.2163 11.2306C12.2008 11.1768 12.1881 11.1239 12.1881 11.113C12.1881 11.1022 12.179 11.0688 12.1678 11.0388C12.1566 11.0088 12.1368 10.9527 12.1237 10.9141C12.0818 10.7905 12.0365 10.6669 12.0138 10.6145C11.9591 10.4877 11.8898 10.3419 11.8595 10.2894C11.8412 10.2578 11.8185 10.2139 11.809 10.1917C11.7994 10.1696 11.7853 10.1438 11.7776 10.1344C11.7699 10.1249 11.7519 10.0971 11.7376 10.0726C11.7234 10.0481 11.7088 10.0251 11.7053 10.0216C11.7018 10.0181 11.6873 9.99514 11.6731 9.97059C11.6589 9.94605 11.6443 9.9231 11.6406 9.91959C11.6369 9.91608 11.6129 9.87592 11.5872 9.83034C11.5616 9.78476 11.5376 9.74459 11.5339 9.74109C11.5302 9.73758 11.5156 9.71463 11.5014 9.69009C11.4872 9.66554 11.4679 9.63685 11.4585 9.62633C11.4491 9.61581 11.4298 9.58713 11.4156 9.56258C11.4014 9.53804 11.3868 9.51509 11.3831 9.51158C11.3794 9.50807 11.3554 9.46791 11.3297 9.42233C11.304 9.37675 11.275 9.33084 11.2653 9.32032C11.2557 9.30981 11.2267 9.26391 11.201 9.21832C11.1753 9.17274 11.1512 9.13258 11.1473 9.12907C11.1435 9.12556 11.1193 9.0854 11.0937 9.03982C11.068 8.99424 11.044 8.95407 11.0403 8.95057C11.0366 8.94706 11.022 8.92411 11.0078 8.89956C10.9936 8.87502 10.9792 8.85207 10.9756 8.84856C10.9721 8.84506 10.9576 8.82211 10.9434 8.79756C10.9293 8.77302 10.9146 8.75007 10.911 8.74656C10.9073 8.74305 10.8833 8.70289 10.8576 8.65731C10.8319 8.61173 10.8079 8.57156 10.8042 8.56806C10.8006 8.56455 10.786 8.5416 10.7718 8.51705C10.7576 8.49251 10.7429 8.46956 10.7392 8.46605C10.7355 8.46255 10.7018 8.40517 10.6645 8.33855C10.6271 8.27193 10.5932 8.21455 10.5891 8.21105C10.5851 8.20754 10.5625 8.16738 10.539 8.12179C10.5155 8.07621 10.4708 7.99015 10.4397 7.93054C10.367 7.7915 10.2533 7.52211 10.2204 7.41117C10.2064 7.36372 10.1897 7.30768 10.1835 7.28665C10.1656 7.22658 10.1372 7.11304 10.1261 7.05714C10.0818 6.83548 10.0718 6.71802 10.0719 6.426C10.0721 6.11559 10.0842 5.97095 10.1273 5.76617C10.1336 5.73637 10.1429 5.69047 10.148 5.66417C10.1564 5.62108 10.1901 5.50277 10.256 5.28484C10.2761 5.2182 10.3673 4.97571 10.3997 4.90233C10.4611 4.76376 10.6085 4.48444 10.6319 4.46245C10.6356 4.45894 10.6505 4.43599 10.6649 4.41145C10.699 4.3535 10.9805 4.01897 11.0293 3.97847C11.0499 3.96132 11.0693 3.94365 11.0722 3.93919C11.0752 3.93474 11.1287 3.89051 11.1911 3.84092C11.2988 3.75538 11.577 3.58075 11.6757 3.53675C11.7853 3.48786 11.939 3.42548 11.9735 3.41582C11.9942 3.41006 12.0328 3.39898 12.0594 3.3912C12.2932 3.32276 12.4794 3.29971 12.7997 3.29954C13.0787 3.2994 13.1913 3.31135 13.4194 3.36533C13.4504 3.37266 13.4987 3.38405 13.5267 3.39062C13.6251 3.4137 13.6649 3.42704 13.8252 3.49082C13.9886 3.55587 14.0238 3.57305 14.2268 3.68715C14.3408 3.75122 14.5461 3.89131 14.5791 3.92756C14.5889 3.93841 14.6284 3.97244 14.6667 4.00316C14.7051 4.03387 14.7437 4.0683 14.7526 4.07964C14.7614 4.09099 14.7856 4.11431 14.8062 4.13146C14.8541 4.17122 15.1143 4.47999 15.1495 4.53881C15.1642 4.56328 15.1872 4.5977 15.2006 4.61531C15.214 4.63292 15.2624 4.7133 15.308 4.79393C15.3872 4.93384 15.4286 4.97877 15.4286 4.92494C15.4286 4.91181 15.4242 4.8956 15.4189 4.88895C15.4136 4.88229 15.4068 4.85388 15.4037 4.82583C15.4006 4.79778 15.3926 4.74901 15.3859 4.71745C15.3791 4.6859 15.3694 4.63426 15.3642 4.6027C15.3501 4.51652 15.3364 4.45097 15.3163 4.3732C15.3064 4.33463 15.2886 4.26291 15.2769 4.21382C15.2651 4.16473 15.2504 4.10735 15.2442 4.08631C15.2381 4.06528 15.2141 3.98208 15.1909 3.90143C15.0944 3.56553 14.8868 3.04777 14.7355 2.76567C14.7113 2.72062 14.6755 2.65312 14.6559 2.61566C14.6363 2.57822 14.6148 2.54092 14.6081 2.53279C14.6013 2.52467 14.5747 2.48073 14.5489 2.43514C14.5231 2.38956 14.499 2.3494 14.4954 2.34589C14.4917 2.34239 14.4771 2.31944 14.4629 2.29489C14.4487 2.27035 14.4294 2.24166 14.42 2.23114C14.4105 2.22062 14.3912 2.19193 14.3769 2.16739C14.3627 2.14284 14.3386 2.10842 14.3234 2.09089C14.3082 2.07335 14.284 2.0392 14.2697 2.01498C14.2106 1.91494 13.7948 1.42096 13.7113 1.35151C13.6909 1.33456 13.667 1.31155 13.6581 1.30037C13.6493 1.28918 13.6251 1.26623 13.6045 1.24938C13.5838 1.23251 13.5645 1.21529 13.5616 1.21111C13.5586 1.20693 13.5393 1.18972 13.5186 1.17286C13.498 1.15601 13.4787 1.13855 13.4757 1.13408C13.466 1.11925 13.1821 0.898691 13.1002 0.842284C13.0559 0.811798 12.9964 0.770436 12.968 0.750354C12.9396 0.730272 12.9106 0.713722 12.9036 0.713569C12.8967 0.713416 12.8789 0.702069 12.8641 0.688349C12.8494 0.67463 12.8312 0.663282 12.8237 0.663129C12.8162 0.662976 12.7668 0.637067 12.714 0.605548C12.6612 0.574042 12.5998 0.540216 12.5774 0.530385C12.5551 0.520555 12.5103 0.499733 12.4778 0.484114C12.397 0.445213 12.0841 0.31762 12.0379 0.30473C11.9983 0.293675 11.9375 0.276003 11.8662 0.254838C11.8426 0.247825 11.8028 0.235993 11.7777 0.228534C11.7526 0.221088 11.7104 0.209969 11.6838 0.203836C11.6573 0.197703 11.6138 0.186228 11.5872 0.178336C11.4814 0.146893 11.3702 0.124325 11.0829 0.0760271C10.9327 0.0507686 10.7883 0.0366285 10.6162 0.0303299C10.5218 0.0268873 10.4399 0.0185995 10.4343 0.0119439C10.4209 -0.00398129 10.0067 -0.00398129 9.99331 0.0119439ZM4.38743 4.67943C4.21465 4.74554 4.15385 4.77296 4.07295 4.82126C4.00127 4.86405 3.84896 4.97085 3.8402 4.98447C3.83725 4.98906 3.81794 5.00661 3.79728 5.02346C3.77663 5.04032 3.75731 5.05753 3.75436 5.06171C3.75141 5.0659 3.7321 5.08333 3.71144 5.10046C3.65983 5.14326 3.23543 5.64967 3.21247 5.69586C3.18663 5.74783 3.15859 5.76699 3.1345 5.74911C3.12406 5.74137 3.08801 5.68537 3.05437 5.62469C3.02073 5.564 2.98349 5.50001 2.97162 5.48247C2.95974 5.46494 2.90285 5.36768 2.8452 5.26634C2.78755 5.165 2.73519 5.08023 2.72885 5.07796C2.72249 5.07569 2.70318 5.0898 2.68593 5.10935C2.66866 5.12888 2.63764 5.15909 2.61699 5.17648C2.56828 5.21747 2.45781 5.34889 2.42408 5.40597C2.40958 5.43052 2.3805 5.47068 2.35947 5.49522C2.33844 5.51977 2.30954 5.55993 2.29526 5.58448C2.28098 5.60902 2.26633 5.63197 2.2627 5.63548C2.22602 5.67098 2.08247 5.99534 2.04585 6.12551C2.01166 6.24706 2.00347 6.31543 1.99613 6.54075C1.99056 6.71199 1.98565 6.75825 1.9697 6.78938C1.95301 6.82201 1.69132 7.04016 1.61189 7.08767C1.59907 7.09533 1.58217 7.109 1.57433 7.11804C1.5665 7.12709 1.54318 7.14836 1.52253 7.16533C1.50187 7.18229 1.48256 7.19959 1.47961 7.20377C1.47666 7.20795 1.45734 7.22516 1.43669 7.24202C1.41603 7.25888 1.39672 7.27609 1.39377 7.28027C1.39082 7.28445 1.37151 7.30167 1.35085 7.31854C1.33019 7.33539 1.30605 7.35834 1.2972 7.36952C1.28835 7.38071 1.26421 7.40381 1.24355 7.42086C1.2229 7.4379 1.17461 7.48939 1.13625 7.53528C1.09789 7.58117 1.04961 7.63287 1.02895 7.65017C0.980494 7.69078 0.869954 7.82217 0.835994 7.87954C0.821465 7.90408 0.78758 7.94998 0.760702 7.98154C0.733823 8.0131 0.700077 8.059 0.68571 8.08354C0.671342 8.10809 0.647157 8.14251 0.631942 8.16004C0.616727 8.17758 0.592638 8.212 0.578399 8.23655C0.56415 8.26109 0.549493 8.28404 0.545812 8.28755C0.542132 8.29105 0.518118 8.33122 0.492452 8.3768C0.466786 8.42238 0.442472 8.46255 0.438427 8.46605C0.420433 8.48167 0.263571 8.80624 0.210114 8.93848C0.133256 9.12857 0.113738 9.18589 0.0734897 9.33945C0.0215995 9.53741 0.0203334 9.54314 0.0203334 9.5796C0.0203334 9.59847 0.0145285 9.62497 0.00743597 9.63847C-0.0021459 9.6567 -0.00242488 9.67059 0.00635224 9.69248C0.0128546 9.7087 0.0242713 9.74118 0.0317286 9.76466C0.0459029 9.80934 0.276254 10.0943 0.342233 10.1488C0.362888 10.1658 0.38703 10.1891 0.395882 10.2005C0.427396 10.2411 0.740508 10.4806 0.762064 10.4806C0.767515 10.4806 0.805413 10.5006 0.846294 10.5251C0.924269 10.5717 0.960622 10.5894 1.06651 10.6317C1.18075 10.6775 1.24779 10.7005 1.29988 10.7118C1.32791 10.7179 1.3762 10.7289 1.40718 10.7362C1.73887 10.8147 2.19214 10.8253 2.507 10.7619C2.54389 10.7544 2.60184 10.7429 2.63576 10.7362C2.71962 10.7197 2.79571 10.7016 2.85036 10.6854C2.87544 10.678 2.91408 10.6668 2.9362 10.6607C3.06197 10.6257 3.44686 10.4686 3.46779 10.4437C3.48763 10.4202 3.46311 10.4015 3.42315 10.4097C3.10495 10.4751 2.91891 10.4955 2.63845 10.4957C2.35113 10.4958 2.15756 10.4708 1.93027 10.4043C1.90371 10.3965 1.86508 10.3855 1.84443 10.3797C1.80986 10.37 1.65653 10.3078 1.54633 10.2587C1.43704 10.21 1.16605 10.0283 1.13625 9.98375C1.1333 9.97935 1.11418 9.96186 1.09375 9.94489C0.996793 9.86432 0.837464 9.66915 0.806454 9.59297C0.791518 9.55628 0.792108 9.54747 0.814105 9.47821C0.827217 9.43695 0.844706 9.38159 0.852979 9.35516C0.871328 9.2966 0.980162 9.04298 1.04303 8.91231C1.08811 8.81861 1.21903 8.58064 1.23243 8.56806C1.23617 8.56455 1.25083 8.5416 1.26501 8.51705C1.2792 8.49251 1.29368 8.46956 1.2972 8.46605C1.30072 8.46255 1.3153 8.4396 1.32962 8.41505C1.34392 8.39051 1.37762 8.34461 1.4045 8.31305C1.43138 8.28149 1.46526 8.23559 1.47978 8.21105C1.51375 8.15363 1.60311 8.04749 1.65129 8.00731C1.67194 7.99008 1.70574 7.95553 1.7264 7.93054C1.74705 7.90555 1.78085 7.8712 1.80151 7.85423C1.82216 7.83726 1.84631 7.81409 1.85516 7.80274C1.90838 7.73452 2.21728 7.51877 2.34006 7.46407C2.57944 7.35742 2.63347 7.33934 2.85841 7.29068C2.94098 7.27281 3.42846 7.27253 3.51294 7.29029C3.62893 7.31469 3.74206 7.3535 3.82947 7.3989C3.85013 7.40964 3.8837 7.4258 3.90409 7.43484C3.93829 7.45 4.1284 7.59148 4.14064 7.61089C4.14359 7.61555 4.16291 7.63338 4.18356 7.65048C4.23163 7.69027 4.29991 7.77139 4.33342 7.82854C4.34782 7.85308 4.36753 7.88177 4.37724 7.89229C4.40043 7.91741 4.48247 8.07946 4.52894 8.19192C4.5602 8.26756 4.58999 8.36865 4.64573 8.58809C4.65121 8.60962 4.65568 8.63984 4.65568 8.65523C4.65568 8.68774 4.6798 8.7849 4.6878 8.78462C4.71876 8.7835 4.82656 8.57104 4.8766 8.41248C4.91966 8.27603 4.9705 8.09847 4.979 8.05485C4.98412 8.02856 4.99291 7.98553 4.99855 7.95923C5.02186 7.85035 5.03311 7.79345 5.04264 7.7361C5.04816 7.70279 5.05784 7.64542 5.06413 7.60859C5.07042 7.57177 5.08061 7.49575 5.08677 7.43965C5.10149 7.30566 5.1012 6.6647 5.08636 6.53438C5.0531 6.24218 5.04527 6.1867 5.02118 6.07218C5.0149 6.04238 5.00472 5.9936 4.99855 5.9638C4.99238 5.934 4.98251 5.88666 4.9766 5.85861C4.9707 5.83056 4.96183 5.78753 4.9569 5.76298C4.94544 5.70598 4.88823 5.50252 4.86727 5.44422C4.85844 5.41968 4.84049 5.36804 4.82739 5.32947C4.75094 5.10448 4.60042 4.72615 4.57247 4.68877C4.55953 4.67146 4.53991 4.66676 4.48502 4.6678C4.4461 4.66856 4.40219 4.67378 4.38743 4.67943ZM2.55261 8.3768C2.54375 8.3836 2.51754 8.38925 2.49435 8.38936C2.47117 8.38946 2.43737 8.39491 2.41924 8.40143C2.40112 8.40798 2.36456 8.4205 2.33801 8.42927C2.22187 8.46761 2.00191 8.62251 1.91216 8.72917C1.85017 8.80281 1.77996 8.93372 1.78039 8.97486C1.78097 9.03074 1.81476 9.06738 1.89977 9.10431C1.96147 9.1311 2.03277 9.13606 2.08509 9.11719C2.10321 9.11065 2.13856 9.09917 2.16365 9.09169C2.27288 9.05907 2.3064 9.0444 2.40775 8.98483C2.5464 8.90333 2.59356 8.86405 2.68907 8.75056C2.78815 8.63284 2.81013 8.59031 2.80974 8.51705C2.8094 8.45147 2.79807 8.42926 2.74555 8.39121C2.7175 8.3709 2.69081 8.36418 2.63845 8.36429C2.60009 8.36437 2.56146 8.37 2.55261 8.3768ZM4.83393 10.8979C4.82938 10.9033 4.77897 10.9118 4.7219 10.9168C4.60876 10.9266 4.49951 10.9434 4.41157 10.9644C4.3806 10.9718 4.33231 10.9832 4.30428 10.9898C4.25601 11.0011 4.20812 11.0145 4.1165 11.0422C4.09438 11.0489 4.05816 11.0594 4.03603 11.0656C3.96879 11.0843 3.74142 11.1774 3.67345 11.214C3.50971 11.3023 3.31246 11.4196 3.23933 11.4722C3.14992 11.5364 2.96869 11.6789 2.96035 11.6914C2.9574 11.6959 2.93808 11.7133 2.91743 11.7303C2.89677 11.7472 2.8678 11.7758 2.85305 11.7939C2.83829 11.812 2.80932 11.8408 2.78867 11.8581C2.73965 11.8989 2.39392 12.3099 2.35993 12.3677C2.34549 12.3922 2.3308 12.4152 2.32728 12.4187C2.32376 12.4222 2.30927 12.4451 2.29509 12.4697C2.2809 12.4942 2.26642 12.5172 2.2629 12.5207C2.25938 12.5242 2.24489 12.5471 2.23071 12.5717C2.21652 12.5962 2.20185 12.6192 2.1981 12.6227C2.14892 12.6687 1.85495 13.302 1.79714 13.4865C1.78891 13.5128 1.77175 13.5687 1.75902 13.6108C1.74628 13.6529 1.72563 13.7147 1.71313 13.7481C1.69143 13.806 1.6912 13.8109 1.70822 13.8533C1.71803 13.8777 1.73076 13.8977 1.73652 13.8977C1.74227 13.8977 1.81372 13.8186 1.8953 13.722C1.97688 13.6254 2.06037 13.5325 2.08083 13.5155C2.10129 13.4985 2.12046 13.4811 2.12341 13.4769C2.12636 13.4728 2.14567 13.4555 2.16633 13.4387C2.18698 13.4218 2.2063 13.4042 2.20925 13.3995C2.22563 13.3736 2.50877 13.1696 2.54188 13.1599C2.55073 13.1573 2.57078 13.1444 2.58645 13.1312C2.60211 13.118 2.62039 13.1072 2.62705 13.1072C2.6337 13.1072 2.66278 13.0929 2.69167 13.0756C2.74932 13.0408 2.78011 13.0266 2.95493 12.9536C3.02165 12.9257 3.07695 12.9091 3.08222 12.9154C3.09141 12.9263 3.09006 12.944 3.06758 13.1072C3.023 13.4308 3.01227 13.5984 3.01206 13.9742C3.01185 14.3645 3.03186 14.5982 3.08795 14.8603C3.104 14.9354 3.12006 15.0134 3.13061 15.0675C3.13911 15.1112 3.19003 15.289 3.23295 15.425C3.24244 15.455 3.27189 15.5309 3.2984 15.5936C3.32493 15.6564 3.34662 15.7147 3.34662 15.7232C3.34662 15.7483 3.56707 16.1685 3.593 16.1928C3.59675 16.1963 3.61142 16.2192 3.6256 16.2438C3.63979 16.2683 3.65427 16.2913 3.65779 16.2948C3.66131 16.2983 3.676 16.3212 3.69043 16.3458C3.72438 16.4035 4.00585 16.738 4.0548 16.7789C4.07546 16.7961 4.10443 16.8251 4.11918 16.8433C4.13394 16.8615 4.17739 16.9015 4.21575 16.9321C4.25411 16.9627 4.28791 16.9915 4.29086 16.9961C4.30091 17.0119 4.4998 17.1667 4.58057 17.2216C4.64377 17.2646 4.86684 17.3994 4.96621 17.4546C4.97472 17.4594 4.98309 17.4686 4.98482 17.4751C4.98794 17.4868 4.89071 17.5589 4.85955 17.5681C4.8507 17.5706 4.83064 17.5836 4.81498 17.5968C4.79931 17.61 4.78104 17.6208 4.77438 17.6208C4.76772 17.6208 4.73765 17.6356 4.70755 17.6537C4.65228 17.687 4.553 17.7294 4.484 17.7491C4.46335 17.755 4.42472 17.7663 4.39816 17.7742C4.24218 17.8204 4.07327 17.8392 3.73378 17.8483C3.51959 17.854 3.41687 17.8612 3.41421 17.8707C3.4092 17.8886 3.43639 17.9154 3.47931 17.9348C3.71076 18.0396 3.95648 18.142 4.01457 18.158C4.05972 18.1704 4.12609 18.1897 4.18625 18.2079C4.20838 18.2146 4.2458 18.2258 4.2694 18.2328C4.29301 18.2398 4.33285 18.2517 4.35792 18.2591C4.56624 18.321 4.95359 18.3732 5.20291 18.3729C5.30151 18.3729 5.61851 18.349 5.69112 18.3362C5.83655 18.3106 5.89547 18.2984 5.94328 18.284C5.96983 18.276 6.01329 18.2644 6.03985 18.2583C6.0664 18.2522 6.10866 18.2411 6.13374 18.2336C6.15881 18.2262 6.19745 18.215 6.21957 18.2088C6.30137 18.1858 6.5244 18.0998 6.61658 18.0557C6.75146 17.9912 6.78793 17.9741 6.82611 17.9573C6.88756 17.9302 7.076 17.8161 7.16649 17.7512C7.25547 17.6873 7.43706 17.5446 7.44547 17.532C7.44843 17.5276 7.46774 17.5101 7.48839 17.4933C7.50905 17.4764 7.52836 17.4592 7.53131 17.455C7.53427 17.4509 7.55358 17.4336 7.57423 17.4166C7.59489 17.3996 7.62869 17.3653 7.64934 17.3403C7.67 17.3153 7.7038 17.2808 7.72445 17.2637C7.77183 17.2243 7.79846 17.1927 7.83169 17.1363C7.84615 17.1117 7.87998 17.0658 7.90686 17.0343C7.93374 17.0027 7.96744 16.9568 7.98175 16.9323C7.99606 16.9077 8.01064 16.8848 8.01416 16.8813C8.01768 16.8778 8.03217 16.8548 8.04635 16.8303C8.06054 16.8057 8.07515 16.7828 8.07883 16.7793C8.08937 16.7692 8.16722 16.6292 8.22059 16.5243C8.26494 16.4371 8.34146 16.2553 8.4163 16.0594C8.44798 15.9765 8.52589 15.7069 8.54173 15.6254C8.54718 15.5973 8.55655 15.5514 8.56255 15.5234C8.58133 15.4356 8.59813 15.3267 8.62748 15.1026C8.6425 14.9879 8.64247 14.293 8.62745 14.1591C8.61436 14.0425 8.59968 13.9351 8.583 13.8339C8.57664 13.7954 8.56739 13.738 8.56245 13.7064C8.55752 13.6749 8.54524 13.6175 8.53518 13.5789C8.52512 13.5404 8.50244 13.4514 8.48477 13.3813C8.4466 13.2297 8.43747 13.1975 8.40905 13.1135C8.39718 13.0785 8.38073 13.0282 8.37249 13.0018C8.34665 12.919 8.217 12.6195 8.17524 12.5462C8.15328 12.5076 8.12747 12.4579 8.1179 12.4358C8.10833 12.4137 8.0942 12.3879 8.08648 12.3784C8.07878 12.369 8.0608 12.3412 8.04651 12.3167C8.03224 12.2921 8.01768 12.2692 8.01416 12.2657C8.01064 12.2621 7.9961 12.2395 7.98187 12.2153C7.95494 12.1695 7.86291 12.0494 7.80186 11.9804C7.78246 11.9585 7.73659 11.906 7.69992 11.8639C7.66325 11.8217 7.61635 11.7732 7.59569 11.7561C7.57504 11.739 7.5509 11.7156 7.54204 11.7042C7.47688 11.6203 7.02618 11.3098 6.86893 11.2406C6.84669 11.2308 6.80194 11.2101 6.76949 11.1946C6.65978 11.1422 6.42778 11.0546 6.36175 11.0407C6.33519 11.0351 6.29173 11.024 6.26518 11.0161C6.12169 10.9735 5.93821 10.9404 5.69112 10.9127C5.54563 10.8964 4.84532 10.8843 4.83393 10.8979Z" fill="#1A1A27"/>
</svg>
