<svg xmlns="http://www.w3.org/2000/svg" viewBox="0 0 511.996 511.996"><path d="M349.85 62.196c-10.797-4.717-23.373.212-28.1 11s.212 23.373 11 28.1c69.412 30.324 115.228 98.977 115.228 176.035 0 106.034-85.972 192-192 192-106.042 0-192-85.958-192-192 0-77.04 45.8-145.694 115.192-176.038 10.795-4.72 15.72-17.298 11-28.093s-17.298-15.72-28.093-11C77.306 99.275 21.33 183.18 21.33 277.33c0 129.606 105.06 234.667 234.667 234.667 129.592 0 234.667-105.068 234.667-234.667 0-94.17-55.998-178.08-140.815-215.133zM256 234.667c11.782 0 21.333-9.55 21.333-21.333v-192C277.323 9.55 267.77 0 256 0s-21.333 9.55-21.333 21.333v192c0 11.782 9.55 21.334 21.333 21.334z"/></svg>