<svg width="61" height="17" viewBox="0 0 61 17" fill="none" xmlns="http://www.w3.org/2000/svg">
<mask id="path-1-inside-1" fill="white">
<path fill-rule="evenodd" clip-rule="evenodd" d="M4.5 0.5H56.5L61 8.5L56.5 16.5H4.5L0 8.5L4.5 0.5Z"/>
</mask>
<path fill-rule="evenodd" clip-rule="evenodd" d="M4.5 0.5H56.5L61 8.5L56.5 16.5H4.5L0 8.5L4.5 0.5Z" fill="url(#paint0_linear)"/>
<path d="M56.5 0.5L57.3716 0.00973877L57.0848 -0.5H56.5V0.5ZM4.5 0.5V-0.5H3.91515L3.62842 0.00973877L4.5 0.5ZM61 8.5L61.8716 8.99026L62.1473 8.5L61.8716 8.00974L61 8.5ZM56.5 16.5V17.5H57.0848L57.3716 16.9903L56.5 16.5ZM4.5 16.5L3.62842 16.9903L3.91515 17.5H4.5V16.5ZM0 8.5L-0.871576 8.00974L-1.14735 8.5L-0.871576 8.99026L0 8.5ZM56.5 -0.5H4.5V1.5H56.5V-0.5ZM61.8716 8.00974L57.3716 0.00973877L55.6284 0.990261L60.1284 8.99026L61.8716 8.00974ZM60.1284 8.00974L55.6284 16.0097L57.3716 16.9903L61.8716 8.99026L60.1284 8.00974ZM4.5 17.5H56.5V15.5H4.5V17.5ZM-0.871576 8.99026L3.62842 16.9903L5.37158 16.0097L0.871576 8.00974L-0.871576 8.99026ZM3.62842 0.00973877L-0.871576 8.00974L0.871576 8.99026L5.37158 0.990261L3.62842 0.00973877Z" fill="#B3EFBD" fill-opacity="0.4" mask="url(#path-1-inside-1)"/>
<defs>
<linearGradient id="paint0_linear" x1="50.0501" y1="6.61176" x2="26.1547" y2="-11.5112" gradientUnits="userSpaceOnUse">
<stop stop-color="#46AC56"/>
<stop offset="1" stop-color="#38B179"/>
</linearGradient>
</defs>
</svg>
