<svg width="61" height="17" viewBox="0 0 61 17" fill="none" xmlns="http://www.w3.org/2000/svg">
<mask id="path-1-inside-1" fill="white">
<path fill-rule="evenodd" clip-rule="evenodd" d="M5.17925 0.5H55.8208L61 8.5L55.8208 16.5H5.17925L0 8.5L5.17925 0.5Z"/>
</mask>
<path fill-rule="evenodd" clip-rule="evenodd" d="M5.17925 0.5H55.8208L61 8.5L55.8208 16.5H5.17925L0 8.5L5.17925 0.5Z" fill="url(#paint0_linear)"/>
<path d="M55.8208 0.5L56.6602 -0.0434564L56.3646 -0.5H55.8208V0.5ZM5.17925 0.5V-0.5H4.63538L4.33981 -0.0434565L5.17925 0.5ZM61 8.5L61.8394 9.04346L62.1913 8.5L61.8394 7.95654L61 8.5ZM55.8208 16.5V17.5H56.3646L56.6602 17.0435L55.8208 16.5ZM5.17925 16.5L4.33981 17.0435L4.63538 17.5H5.17925V16.5ZM0 8.5L-0.839437 7.95654L-1.19127 8.5L-0.839437 9.04346L0 8.5ZM55.8208 -0.5H5.17925V1.5H55.8208V-0.5ZM61.8394 7.95654L56.6602 -0.0434564L54.9813 1.04346L60.1606 9.04346L61.8394 7.95654ZM60.1606 7.95654L54.9813 15.9565L56.6602 17.0435L61.8394 9.04346L60.1606 7.95654ZM5.17925 17.5H55.8208V15.5H5.17925V17.5ZM-0.839437 9.04346L4.33981 17.0435L6.01868 15.9565L0.839437 7.95654L-0.839437 9.04346ZM4.33981 -0.0434565L-0.839437 7.95654L0.839437 9.04346L6.01868 1.04346L4.33981 -0.0434565Z" fill="#FFE0E8" fill-opacity="0.4" mask="url(#path-1-inside-1)"/>
<defs>
<linearGradient id="paint0_linear" x1="7.37903" y1="11" x2="51.6741" y2="5.67348" gradientUnits="userSpaceOnUse">
<stop stop-color="#E80672"/>
<stop offset="1" stop-color="#FF0736"/>
</linearGradient>
</defs>
</svg>
