<svg width="58" height="16" viewBox="0 0 58 16" fill="none" xmlns="http://www.w3.org/2000/svg">
<mask id="path-1-inside-1" fill="white">
<path fill-rule="evenodd" clip-rule="evenodd" d="M4.92453 0H53.0755L58 8L53.0755 16H4.92453L0 8L4.92453 0Z"/>
</mask>
<path fill-rule="evenodd" clip-rule="evenodd" d="M4.92453 0H53.0755L58 8L53.0755 16H4.92453L0 8L4.92453 0Z" fill="url(#paint0_linear)"/>
<path d="M53.0755 0L53.9271 -0.52421L53.6342 -1H53.0755V0ZM4.92453 0V-1H4.36582L4.07294 -0.524209L4.92453 0ZM58 8L58.8516 8.52421L59.1743 8L58.8516 7.47579L58 8ZM53.0755 16V17H53.6342L53.9271 16.5242L53.0755 16ZM4.92453 16L4.07294 16.5242L4.36582 17H4.92453V16ZM0 8L-0.851589 7.47579L-1.17427 8L-0.851589 8.52421L0 8ZM53.0755 -1H4.92453V1H53.0755V-1ZM58.8516 7.47579L53.9271 -0.52421L52.2239 0.52421L57.1484 8.52421L58.8516 7.47579ZM57.1484 7.47579L52.2239 15.4758L53.9271 16.5242L58.8516 8.52421L57.1484 7.47579ZM4.92453 17H53.0755V15H4.92453V17ZM-0.851589 8.52421L4.07294 16.5242L5.77612 15.4758L0.851589 7.47579L-0.851589 8.52421ZM4.07294 -0.524209L-0.851589 7.47579L0.851589 8.52421L5.77612 0.524209L4.07294 -0.524209Z" fill="#FFE0E8" fill-opacity="0.4" mask="url(#path-1-inside-1)"/>
<defs>
<linearGradient id="paint0_linear" x1="7.01613" y1="10.5" x2="49.1904" y2="5.67792" gradientUnits="userSpaceOnUse">
<stop stop-color="#E88A06"/>
<stop offset="1" stop-color="#FF9807"/>
</linearGradient>
</defs>
</svg>
